<mxfile host="Electron" modified="2024-02-14T09:34:49.376Z" agent="Mozilla/5.0 (Windows NT 10.0; Win64; x64) AppleWebKit/537.36 (KHTML, like Gecko) draw.io/21.2.8 Chrome/112.0.5615.165 Electron/24.2.0 Safari/537.36" etag="3TGA1TxGL3I0uiipgSe6" version="21.2.8" type="device">
  <diagram name="Page-1" id="2XWkQP5S-hDbL94sL5Vg">
    <mxGraphModel dx="2510" dy="1214" grid="1" gridSize="10" guides="1" tooltips="1" connect="1" arrows="1" fold="1" page="1" pageScale="1" pageWidth="3300" pageHeight="4681" background="#999999" math="0" shadow="0">
      <root>
        <mxCell id="0" />
        <mxCell id="1" parent="0" />
        <mxCell id="APLwThIm-aDqV8bCMrbt-1" value="TextInput: Doing better" style="rounded=0;whiteSpace=wrap;html=1;fontSize=25;fillColor=#dae8fc;strokeColor=#6c8ebf;" parent="1" vertex="1">
          <mxGeometry x="1080" y="80" width="1160" height="60" as="geometry" />
        </mxCell>
        <mxCell id="EggAjbklTozNuDKqpmRn-1" value="" style="shape=image;verticalLabelPosition=bottom;labelBackgroundColor=default;verticalAlign=top;aspect=fixed;imageAspect=0;image=data:image/png,iVBORw0KGgoAAAANSUhEUgAABIgAAAQTCAYAAAAPjRJDAAAAAXNSR0IArs4c6QAAAARnQU1BAACxjwv8YQUAAAAJcEhZcwAADsMAAA7DAcdvqGQAAP+lSURBVHhe7P0PcFR1vu97fwKcwpApFRKURAONYhDOQYGMyuwcQNk4U4oMqZkDT9inai7OHaaG1N5g6VAPWlqMpSXccqQczn7i1Gb2yJ2qPaTCnX2TcRhrRrcWeHMGdcKf8R4RRAmJJjrQCXp2iNThz7N+a/1W9+rO6k6n0wlJ+v2q6p3Vq3v1+tOts9fH7+/7K7h32fIr6kdX9KxdAgAAAAAAwFgzzv4FAAAAAABAniIgAgAAAAAAyHMERAAAAAAAAHmOgAgAAAAAACDPERABAAAAAADkOQIiAAAAAACAPEdABAAAAAAAkOcIiAAAAAAAAPIcAREAAAAAAECeIyACAAAAAADIcwREAAAAAAAAeY6ACAAAAAAAIM/lPCC6ZsMLuvGlX6t4w2K7Bsi1Eq3dVqv63bXasbrCrsudyOq19rNL7BoAAAAAAMa23AZE5TUquqPUXZxw402a4C5hQrUJzR7TNfb5UIlULdLmbV644T3WavPqCkXs66nZwGXbogzeG5f9/gZpxizd5f3MVLbiVi3xFgEAAAAAQJZyGxC1H9SFz81Cp746clAX3ZX5LqJr5pdKn386pNdjyaa12r5+oSpLJ9s1xmRVrliu7dseyHmIMtz7S3D6pN7t9BY79n2kA94iAAAAAADIUo6HmLXq33/yd/p8w2P6orHVrst35Rp/o/NnCAMiMySqdoEJarrVsq9BW9bVqcY8tr6uFhOklM5U7QCrg9IZ7v31dVZ7Hvf2+ejeE3YdAAAAAADIFk2qh9o9d7tDy7469Jb3POcqtHqFV8XTsmuPnt97VrFo7vQJPf/462oxy6ULtbrKXRtiim62Q7b6l4v9AQAAAACAkaTg3mXLr9jllLqiZ+1Sknse043rKu2TgM9/q+hP6lNUzET0tZ88p6LPX9Lnv5O+9lC117fo8xb1/PML+nct7ruu3W4a3PaltzThnhoVPfBtXWMqdBwX7fu/ir0/SXlE1zz0D+5nx/ojmW1e/Y3+/e3UFU+mh1Dxt6Se5x7zjqV8sa7736ud/dpUxfmML2L7dV77SeC1tJztNjjb2WdZqXpA9etnSp2HtOXxg/GwJsh/z+HXVfMzW3HjrNvx0EyVZXKYSdtltb8Zi7Tj6YUqS7md6YO0RqtKu9W0dY/2nLarY+vt0yQd+xr06N4Uv8+YEkWq7tLGh653ztcfEtetjsMt2ukcX/KxmAqp7Ssmp/xsM7zOraByzm9LyPYAAAAAAIw2g6ogmlBaZpcSXUzbf8gOudLduu6JDbGm1rqxUhMfekzFSeuKHgrMhla+SBOdbS/qJn1twwsqXhcPh4wJzvuve+IFfa3crgiYcI/57Od0XTAcMsw+1j2n4urUA6ImlJrj6dDFdi8sutE5xoQAyByDH0qV3+QcR4o0I1kOhp1Fyq53/3YcOpk6qPik2zl6x4LEhs4ZhUNJBrO/q2JGhTZvW6Pt600Y5odDxmSVLViu7bvXau0MuyoDseF1hEMAAAAAgDFkUAHRxcbH9PkG03PIPna7g4t0sTPNbbMJUMzfOyp1zV9eUjSw3QRn3YSkdQnKvG0n3PFtFd0hfbX7Ce+95vHcS/rKbZBdmhgqGSYcWud8trN40f989+Fs/we772/9Q2iwZKqWJpgAyIQ55nO+Vep9xnPxz/hi92/iVUDt9YHPd47JrDMVVbF1gUfKKqvMTS/zQo/OjjRVNKe75PV0vl43+WFI86te3yD3YYeFmeqe2LrAw68CcmS9v6zF+w0FH1v2ddvX06nQ5qeXq9IEYZ2n1LSrIfAZDarbd0odmqybb/be3R+/ssi9ToRDAAAAAIAxJKc9iLyKok5dcstHUrAhjxuavPSWF5B02Eqa4DrrYmd8vFisYskNXB7TF2+3xt/b/pa++Offes8TpthfrOvsMLivdv9d0uc72ze+oOgf3M7KmlgZVkXkVzzd5XxOmRdKmc+IHVarvko1PM0Pw4asQXWJbppm/nbrk0/cFSl06RMvsRmk4d7f4ERWV8r95t1hba9qT3Mw1DqrA3tf1aNbG/R8s12VRkI4lGpoHQAAAAAAo1QOAyJ/Ovd3U/cAcvghz1evBqpnbGgUXOe/L1iN5A316lTPP6eovGnvG8RMqK52m0Rf/MMT+uJtb12yiy3vuttNKA0pIfJDnhtLdXG3F0plzD+vIWtQjdRK9I2FptqpW00/TxPonO6vf1EwHDqlOsIhAAAAAMAYlMOAKLPp3P2QJ1hldM1CU+eRuM57X4suxEIdO9TL9gLKlL+/Cy1Z3tbbkCddwJRK2Hnl1ll9+pn5298wqYHMUpbOcO9vMPxjOKdPYw2vBy5S9YAXDrm61WaXAAAAAAAYS3IXEGU0nftiTbzD/A2GPGHBj31fQthkA6i/vJN61q8+Q7oyDJX8ECgwnM3nhzwDD5iyC7QGqq3D68VTWlbi/g01Y4q8vGZwYYkx3Pu7qhbe7za3NsPK6kzPo9KF2r6pwr4IAAAAAMDYkbOAKKP+Q36AkxDyhAQ/Yb17bAAVFuL4rnno2+52AxvSFdHXHvB6FPVtrj2YkCeDQCsHWjvOuX/LFs5yjjZc5O6ZcgfsHf5IB9w1KZRO1nS7mEpO9zcssm+UXWZmPbM9hw7s3aO6w87KBcu1ucp7HQAAAACAsSKHAZGpGcmiUics+Al5X1hPogT3PKbr3Oqk4LC0Vl10Zzar1MR73BV9TKj+BxWZIOfz36qnzxCyzIbNhfJDrqHW/JE3A1npQq0ODS4qtNoOkWr5c3w2snAZhCnZ7s+f2SxFCBVZfb9W5XRY2gm9bQIdTdaqHy1KGWZpRknq15IaUh/4mTfbW+X6gU2NDwAAAADASJejgMivtKlUUXX8dnvCPYt1TaDvc3jj6UzXeenBNet+reLqxYHwJaJrNrygG2Mzlb2QULHz1SFvGvtr1r2g6+4JRAHli/U1Zzszbb2pfAptfB1WyTRQd1Tra4H9TnD3W+OGYrlxQnvtlO8muNi8OhB4zKjQ5m3LYzN57U05W1dimLIkGH7MKNGSquBwsmz3589sNlO1myoC25Ro7SbbBDrHDjQeklvQZoaGbXtAaxPOwznuqge04+k1KYeNdRw6mdSQ+oSe33XK+dtP6AQAAAAAwChTcO+y5Vfsckpd0f5neppQ7YcticzU8n5z52s2/FrX3dGpnuce07/b4iBvXYu+2OAHOxF97SfPqejGkHXq1EWV2jCqL9NIOtqYeEtvePuwT/pIPJ4E9zzmBk+pPjc9/zzs0yTB65ILSzatVe2CFCGLO/vWq+mHe81YpB1PL/SGhvXhbL8ucfus9lf1gOpNT58QHfsa1Fi2xvnMbjVt3aM9/fQu8mcWM9s9ujfN7zPteRl999ffZ8dmNTv8ump+1l9VFgAAAAAAI1/OhphdbPxv+uIvbomI1amv/vBSYNhWWD8fuy6sGXXoukZFf/KEu59gRc/Fv/xWXzz3dylDnK9ecl7b3WKHm1mfe8cX3ZAiHHL0O6wtrVb9u3OsPQnXxPmsz1vcY81lOGQc+Nkebdl1Sh0Ju+tWx+HXtaW/cMg4fVCPbn1dLZ1edZCvo/OUmna922f7rPbX/GrfbUyYtLXODWL8Btg5Zc5rXYPq9qU41nX9h1HJWve+pibzWW4/ojTNugEAAAAAGCVyVkE0pMprVPzEt6WsKnnyz3BXuFBRAwAAAADA6Ja7ae6H0ITKu2zTasKhTLTubfEaSS9Yrh3Bfj9DZLj3BwAAAAAAcmtUVBCF9S5CP0wD5vV2uvmYzPr7ZGW49wcAAAAAAHJmFFQQhfUuQr+aX3V7CjUdHoK+PmGGe38AAAAAACBnRkEF0WJd99IGXfP5bxX9SchU9AAAAAAAABiU0dGkGgAAAAAAAENmVDSpBgAAAAAAwNAhIAIAAAAAAMhzBEQAAAAAAAB5joAIAAAAAAAgzxEQAQAAAAAA5DkCIgAAAAAAgDxHQAQAAAAAAJDnCIgAAAAAAADyXM4Doms2vKAbX/q1ijcstmuAXCvR2m21qt9dqx2rK+y63ImsXms/u8SuAQAAAABgbMttQFReo6I7St3FCTfepAnuEiZUm9DsMV1jnw+VSNUibd7mhRveY602r65QxL6emg1cti3K4L1x2e9vkGbM0l3ez0xlK27VEm9xFPMDr7VaO8OuQkB2v08AAAAAQOZyGxC1H9SFz81Cp746clAX3ZX5LqJr5pdKn386pNdjyaa12r5+oSpLJ9s1xmRVrliu7dseyHmIMtz7S3D6pN7t9BY79n2kA94iAAAAAADIUo6HmLXq33/yd/p8w2P6orHVrst35Rp/o/NnCAMiMySqdoEJarrVsq9BW9bVqcY8tr6uFhOklM5UbQ6rL4Z7f32d1Z7HvX0+uveEXQcAAAAAALJFk+qhds/d7tCyrw695T3PuQqtXuFV8bTs2qPn955VLJo7fULPP/66Wsxy6UKtrnLXhpiim+2Qrf7lYn/AQAzk9wkAAAAAyEbBvcuWX7HLKXVFz9qlJPc8phvXVdonAZ//VtGf1KeomInoaz95TkWfv6TPfyd97aFqr2/R5y3q+ecX9O9a3Hddu900uO1Lb2nCPTUqeuDbusZU6Dgu2vd/FXt/kvKIrnnoH9zPjvVHMtu8+hv9+9upK55MD6Hib0k9zz3mHUv5Yl33v1c7+7V3rc5nfBHbr/PaTwKvpeVst8HZzj7LStUDql8/U+o8pC2PH4yHNUH+ew6/rpqf2YobZ92Oh2aqLJPDTNouq/3NWKQdTy9UWcrtTJ+ZNVpV2q2mrXu057RdHVtvnybp2NegR/em+H3GlChSdZc2PnS9c77+kLhudRxu0U7n+JKPxVRIbV8xOeVnm+F1bgWVc35bQrYfuFTnnqEZFVpbXam7nGMqs6s6Ok/p3d+9qz3Nice/ZFOtc+wm3KvT8812ZR/+8ZxS3bpX+wzhM72nVj9khhfaFWmuZdbfe7a/z5gSLVl9l6oXBj/DHmejc5wDvcYAAAAAMMYNqoJoQql/O5roYtr+Q3bIle7WdU9siDW11o2VmvjQYypOWlf0UGA2tPJFmuhse1E36WsbXlDxung4ZExw3n/dEy/oa+V2RcCEe8xnP6frguGQYfax7jkVV6ceEDWh1BxPhy62e2HRjc4xJgRA5hj8UKr8Juc4Aq+lk4NhZ5Gy692/HYdOpg4qPnFujM3fBYkNnTO6+U4ymP1dFTMqtHnbGm1fb4ICPxwyJqtswXJtH2Bj6NjwupyFQ4NRorWb1qr+6eVaFQiHjLLSmVq1fo02J1VxHWg85H43lQ+lGQLoNwE/nNzfyYQ5tbb3lF3lyu5a9ieb36fH+85rVyQHTPY4nzbN1JmhDgAAAACCBhUQXWx8TJ9vMD2H7GO3O7hIFzvT3DabAMX8vaNS1/zlJUUD201w1k1IWpegzNt2wh3fVtEd0le7n/Deax7PvaSv3AbZpYmhkmHCoXXOZzuLF/3Pdx/O9n+w+/7WP4QGS3JuoyeYAMiEOeZzvlXqfcZz8c/4Yvdv4lVA7fWBz3eOyawzFVWxdYFHyiqrzE0v80KPzo40VTSnu+T1dL5eN/k38M2ven2D3IcdFmaqPGLrAo9AdUbW+8tavN9Q8LFlX7d9PZ0KbX56uRdmdJ5S066GwGc0qG7fKXVosm6+2Xt3f/zKIvc6XfVwyFF1lxsMmWqhuq3J5+Zdn8r1SQ3DTx9U42Hnb5ohgEuqF6pM3WpqTKzKiay+31ZydasleC23vq4m9wufrFVP56hBeZa/TyOyujL2nddtDb63QVt2Od9552Tn3xIAAAAAgKCc9iDyKoo6dcktH0nBhjxuaPLSW15A0mEraYLrrIud8fFisYolN3B5TF+83Rp/b/tb+uKff+s9T5hif7Gus8Pgvtr9d0mf72zf+IKif3A7K2tiZVhNhV/xdJfzOWVeKGU+I3ZYrfoq1fA0PwwbsgbVJbppmvnbrU8+cVek0KVPvMRmkIZ7f4PjBgVmwR3e9GrScKuzOrD3VT26tSHNUKu4hHAo1dC64db8qrZsrdOjzrkdOJ18bntUZ4KgkJAuVkX09QpvRYIK3bPA+dN5Sn8KDsOasUgb3d5T3lCw54PX8vQJ7Xm8wYZEM1U9QqpzOg6961wX+8R1Vq3ONXv0cdPcPE3ACQAAAAB5KIcBkT+d+7upewA5/JDnq1cD1TM2NAqu898XrEbyhnp1quefU1TetPcNYiZUV7tNoi/+4Ql98ba3LtnFlnfd7SaUhpQQ+SHPjaW6uNsLpTLmn9eQNahGaiX6xkIbaPw8TaCTEKyEi4dDp1Q3UsIhK9ZLZ0aJllQt0uZNa7Vj21rV7/Z6DZmqnj4VUqdP6l0T5iyo7DskrOpWN1TrM4TwZjuE7XBLih5JZ7Xnd6fcpbKFs1IPXxsGre+YyjDnOFbcr82rKxTJ4bA3AAAAABirchgQZTadux/yBKuMrllobkkT13nva9GFWKhjh3o5t37x6p3++fu70JLlbb0NedIFTKmEnVdundWnn5m//Q2TytUsUMO9v8Hwj+GcPh1EQ+JI1QNeOOTqVptdGilMw+jN22pV//Qa1ZreQKYXUUKvpTB+mDNZd90drPYp0dqHZjp/T6kxqcIm1nuqo8v9G8rvPeXsf7q74io5fVCPbj2kls7Jqlxheg4512e389hmeg8RGAEAAABAmNwFRBlN575YE+8wf4MhT1jwY9+XEDbZAOov76Se9avPkK4MQyU/BAoMZ/P5Ic/AA6bsAq2Bauvwes2UlqUZ1jNjiu25MriwxBju/V1VC+93m1ubYWVuT5/Shdq+KWxY1lViwiu/YXTnKbXse93tRbTF9iPyhpil0PyuOySsbMVd8Z5BKZtTj0KnD+p507vKuRam11RLZ7c6SuOB0Q7ne7yaVU4AAAAAMNLkLCDKqP+QH+AkhDwhwU9Y7x4bQIWFOL5rHvq2u93AhnRF9LUH3E41CcPZPIMJeTIItHKgteOc+zfdsJ7I3TPt8KB+bvwzqPzI6f6GRfaNst1KHNtzKNbTZ8HyPjODXR0V2mzCKzOEzjSMfvxVPb/3hNuLqDWDYXOmiuhPh0zYN1P32PPxvre+zamDysqm2KUQ/jC0ziGqtMqmMsm5FqbX1POP79GjplH11tfVYoIx53vcyExmAAAAABCTw4DIlB5kUakTFvyEvC+sJ1GCex7TdW51UnBYWqsuujObVWriPe6KPiZU/4OKTJDz+W/V02cIWWbD5kL5IddQa/7Im+Ep5axUFVpth0i1/Dn1jb8ngzAl2/35M5uluMmPz5CVKyf0tltBM1mrfpRuSveS1K8lNaQ+8DNvNq3K9RlM5z7DDv3aXasdQxlEmGbSCc23fSW6yS6l0rq3xTsfd8p727MpuTm15ff1Ce1b5PKHpzn/Fgj2L8rp955Z2BepSlMddPqEnvd7JaULuwAAAAAgz+QoIPIrbSpVVB2/NZtwz2JdE+j7HN54OtN13l3kNet+reLqxYHwJaJrNrygG2Mzlb2QULHz1SE3znC2e0HX3RO4bSxfrK8525lp65274vDG12GVTAN1R7W+FtjvBHe/NW4olhsntDc2pbnpsRIIPGZUaPO25bGZvPamnK0rMUxZErwJd5sfBwOObPfnz2w2U7XB4T3O56/dZJtA55g/W5c7NGzbA1qbcB7OcVc9oB1Pr0k5bKxPo2bn3J/f5fXuSRs6OcxU8e7QL4dpltxvoJQt59w2mr469mnsvLat0Sq3SXU69rssnalvrPaGl/U9Z8ufHt+c+9PO9x68ls73vtbszz3f5P5FufjeB/D7NLOtrV+u7bvXesPInNeDIuY36lZeOeearp8SAAAAAOSZgnuXLb9il1PqivY/ZGVCtR+2JDJTy/vNna/Z8Gtdd0enep57TP9ui4O8dS36YoMf7ET0tZ88p6IbQ9apUxdVasOovkwj6Whj39tbbx/2SR+Jx5Pgnsfc4CnV56bnn4d9miR4XXJhiXOzXbsgxc22O/vWq+mHezk31jueXugNEerD2X5d4vZZ7a/qAdXbm/NkHfsa1Fi2xvlMbxr18Jmy4vyZxcx2aacsT3teRt/99ffZsVnNDr+ump+FV2Ut2eTPImb0d04lgYAlncTvIXYcYcx3cEiqXTFTLbvq0kzlX6HNu22oF/I9J+rvOFOcZy6+9wH8Pk3j7tUPxQO6UEnVYQAAAACQ73I2xOxi43/TF39xSwWsTn31h5cCw7bC+vnYdWHNqEPXNSr6kyfc/QQrei7+5bf64rm/SxnifPWS89ruFjvczPrcO77ohhThkKPfYW1pterfnWPtSbgmzmd93uIeay7DIePAz/Zoy65T6kjYXbc6Dr/u3Ainu+m33JmfTH8WrzrI19F5Sk273u2zfVb7a3617zYmyNha5wYxfgPsnDLntc5rVBx6rOv6D6OSte59zW3w7PUjSqxQ8ZnqJdPrxujY99qA95GJ1r0h34H7fXk9iQ5kNHueX53j6Ldn1FntebzO2Wf83Dz9XMtcfO8D+H22NnsNqr3jDHt/A+EQAAAAACTJWQXRkCqvUfET35ayquTJP5lUuOTScO8PueVVO2VWuQUAAAAAGJtyN839EJpQeZdtWk04lAm/+bCpcBmO6byHe3/IoRmLVG2GwnWGN6cGAAAAAOSHUVFBFNa7CP0wjYrX2+nmY4awSmS494dBM716Nq73+vqk71MEAAAAABjrRkEFUVjvIvSr+VW3Z0vT4SHo6xNmuPeH7Jhmz7u96fe323DI9A8iHAIAAACA/DYKKogW67qXNuiaz3+r6E9CpqIHkLngjGKd3Wr53Wt6vvkq9xgDAAAAAFx1o6NJNQAAAAAAAIbMqGhSDQAAAAAAgKFDQAQAAAAAAJDnCIgAAAAAAADyHAERAAAAAABAniMgAgAAAAAAyHMERAAAAAAAAHmOgAgAAAAAACDPERABAAAAAADkOQIiAAAAAACAPEdABAAAAAAAkOcIiAAAAAAAAPIcAREAAAAAAECeIyACAAAAAADIcwREAAAAAAAAeY6ACAAAAAAAIM8REAEAAAAAAOQ5AiIAAAAAAIA8R0AEAAAAAACQ5wiIAAAAAAAA8hwBEQAAAAAAQJ4jIAIAAAAAAMhzBEQAAAAAAAB5joAIAAAAAAAgzxEQAQAAAAAA5DkCIgAAAAAAgDxHQAQAAAAAAJDnCIgAAAAAAADyHAERAAAAAABAniMgAgAAAAAAyHMERAAAAAAAAHmOgAgAAAAAACDPERABAAAAAADkOQIiAAAAAACAPEdABAAAAAAAkOcIiAAAAAAAAPIcAREAAAAAAECeIyACAAAAAADIcwREAAAAAAAAeY6ACAAAAAAAIM8V3Lts+RW7nFJX9KxdGioFKv/+eN00Rep9+5KOvtXvIeWQv+8r+vRXl9T+V7t6VCvRktV3qXrhTJWV2lU6pbp1r+qAfQYAAAAAAODLqoKopHqCFv14gu5cXGDXpFOgCue9i348XuU32FXJbijQlCneYuE941TiLSJLSzatUe2KYDgEAAAAAACQWlYB0fmoV+FTWOz+Se+GAhXaxd5U1Tl/vaKuLm+x9+3LGup6pbGtRDdN85ZadjWoZl2dfVA9BAAAAAAAwmUZENmFKQWaZBdTKrEBUdcVnXdXhLmi9l9e1MGfXhzm4WVjWOch7W0magMAAAAAAP3Lrkn12SvqtYsZSxsQAQAAAAAA4GoZH5l5y0/sckq9vUnRTlGBpt1ZoP9QKP3P/+4HPwUqqR6v2/5mnK67cEXRM+5KTbp9nG68uUC9H17R521mjWkKPUFz/3acbnbem/woHu+/L5ndboHUdfiK/pe/v4fGa6a/7Q3O8XxgXgtToElzx2vuSuf9dt/m/Ze6ruhiyTi3B9L/PHpFX/bYtwdMmjtOM53tbosdc4HdlxL2ZXoz3fHQOE06dzl2/q4bnH071+x/JX229/4CFZwM3292zmvKf7pLd32tU6//2yc6Z9cCAAAAAACkkl0F0V/jFUSFgcbTU2YVqHBKgaZUxJtXTyr2lntt36JBM8PabihQxffHa5bZn11tFM4apzu+Py5k2Js3U9kdD5rjs6sc5v2zvufNnhbOC6XueNALkOKcz5nlfF5S4+14b6Zg827nMx5y3uvsJ7Gptz2WriuKDsXMaaWTNd0uAgAAAAAApJNdQOTotU2lY+aOUyxD6dOb6Ip6Y+1w4v2Ggo+/vJ1pgFTghjpTzLT0v78U3/73dvsp43TzXG/RZyqNvBDoirqC2/zqkrq6EkOjoEmLx4Vud9DZ7lP3/At0k3Ms/qxrfm+mhObdwRnawtYz9A4AAAAAAFxlWQZEV2xAVKBCm45McsOPK+o66fyZ4g3BilXJOFLOYJaNris6+dNLan8/Hiqdf/+STpp9OxIqeG4Yp5tmmYUr+vRXl3QiuM1fr+jEL/2wJ4mz3W33mM/pu52poGqPbVegm/zKoPcvy10VDMjcJt3x65K43lRWeU9zo0SR1Q+oeoGz2Nmt0JF6AAAAAAAASbKuIEocTlWg4tucv11X1OWujwdHqapzsndFn/7uUuhU+P4xJfBnUTt5We0DCan63e6K2g/aa+Ccux/8uMFZIAgqMcPt/OsSC878QC1HQ+9mLNKO3bWq371G21fMVFnnKTX9/KBa7csAAAAAAADpDCIgsguW30/n7HGvP1GwD9HVHEYVD2K8v5nKaDt/NrdYIBSvrJriDnMriF8X93PiwZnXm+mKut73nudSh/P41FsEAAAAAADoV9YBkR+OuH11bP+hrhNX4g2sTWhyg63CuYoB0XBLblRtAiI3ZIpdL7O+QFPMsLdcXZfTB/XoujrVrGtQ3b5ulZXOVO2PFiliXwYAAAAAAEgn+4AoEASV2P5DXiPqvv12cttnJzsJDaIHIO12/jC0QNBz3lZQBYMzdxiZc726upz1ZjjakAVnZ3Vg7x7VHXYWmcUMAAAAAABkKPuAyOHPZOZXy/iNqL0qmgJN+RsvCMnZFPdZ8AMbzRoXm20swQ3O8ZsUJ0lwu+BU9nEFKl9kz/vDQNATEpx5w8ic9X5/oiFpUA0AAAAAAJCdQQREfuBhZwk7eTnWODpWReMGL85yWEfp4WIrd0ygM+v741USCHsmzR2vO82U+fZ5gr9e1qfurGjeVPYVc70wyHVDgcqdz/KnwP/0rcQAzA+CppjgLFAldNYMwXNMqTD/1zku5zoBAAAAAABcbYOqIApKqIaxVTSFUxIri66OK2r/3eVYVc+s703Qoh97jzseLFBhlx0SF+JsY3wq+ykPjo9tt+h7gXDoV8kzqtngzGyT3GfI7UNk1g/ldSnRTdOcP0xzDwAAAAAAMjSogCg+rXzfahh/+NmI8NfLOvqrS/r0ZPAYnWN++5L+8stL+iTlELgrav/lRf3l95dtFZLvinpPOtv+9FLoFPh+pZDhNu72+cPPjJz3HwIAAAAAAMhOwb3LlqdKR2K6oldzjBgGpkRrt63RKh3SlscPqtWuBQAAAAAASCVnQ8wwwpQu1Oqq0LbcAAAAAAAACaggGoMiq9dq+4rJ9pnvlOrWvaoD9hkAAAAAAICPCqIxqHXvHm3Zd0odnXYFAAAAAABAGlQQAQAAAAAA5DkqiAAAAAAAAPIcAREAAAAAAECeyzogmj49YpcAAAAAAAAwmlFBBAAAAAAAkOcIiAAAAAAAAPIcAREAAAAAAECeIyACAAAAAADIcwREAAAAAAAAeY6ACAAAAAAAIM8REA2LaXpk4VM6WvWUmqbPs+sGyv+MWj1SZFcNSq4/DwAAAAAAjFYERMOhaK7uK/QWI+VztNJbHAI29Fm4THPsGgAAAAAAgP4QEA2Hnvf1Zq+32Np+TK94i8hCpGqRNm9bq/rdtfaxVjs2VShiX+9fidZus9s626Xj7cvfj7evzasHsi8AAAAAAEYHAqJh8ZlePPSM7mx+Rqva3rPrMDBesLN9/UJVlk6264zJKluwXNu3PaAlM+yqNJZsWqNVpfZJGpHVa+2+7ArXZFWuMPtaREgEAAAAABhTCIjGlKm6xQ5lGzYz4lU2O1aX2JW5Fwt2Ok+paVeDatbV2UeD6vZ1S+a10+5bUzKhT+0CqWPfIbXYdaGcc9q4woRQ3WrZ16At/r62vq6WTmd16UJt76f6CAAAAACA0aTg3mXLr9jllLqiZ+1S3PTpEbW1tdpnY8vK25/Ss8XS/hPPaOMZu9Iomub29jnW85n33PLeH9XLR+r0Yo/pA7ReD6cIalrbd2lVW+L2iZx9TF2i7eWzFbGf0Rpt1i/a35DKg/vxXtPUNWoKvDetaKPu/MCvYPKPM37cK2//jn5QXByrjjH73fLBGzpmn4dZsqnWDV083Wraukd7+glqBqzqAdWvn+ksnFLduld1wFs7MP5nHH5dNY1TtOPphSozyz87Yd8Q559Tx74GPbo3+bdfoc27l6tyqM4VAAAAAICrgAqiECfPR92/MwqnuX890/TI7PWqn79eTdMT1986yfnT+4H+4Ic2WfNCm/qKxMAnUlylZ+fX6gdmPyEyCofSmTRPO539PhsIhwyz3/oR0PB6yddNOCS17MoyHJqxSDv8gCkkEEpUoXvcwOuUGvuEQ8YJ7TUVS5qsm2/21gAAAAAAMNoREIU41usFA5FJU92/ruBMZGHrz5+xlTbxfkPBR027Fzqls/J2v/Ioqv0ndsW3PdKo/b3F4UHQmYbAfpz3mXW9zaqJrQs8YtVDQcV6uKJaS00lUXCfJ457LxdWaUPgdJMdaDzkDbtydOx7bQgqauKBzdvNzp8ZFVq7KdCkelt/jaMrtNlUC2VafTRjijtaTYc/Snhv8PNbO865f0vLhm5IHQAAAAAAw4mAKMyZY17QMmlqvHpmUokiOq79Jufps15qPR8ci5aFomX6QbFZ8IZ8bTwTH4Z2rOc9bTy0Sy/bmdByrve4nmyu04vBfZ5p0JM200qspEpy+qCef9zr0dN3OFYOdXarzVQCPb1cqxYEmlSX2sbRoT2BTGNrfzhYhtVHN09WmfOno6PLe+4OKavV9mCPpU+61eH8KSub4j0HAAAAAGCUIyAKdUYfmzCmsESzvBVaWTxb6j2r18zws8Lb9a0ib/0c5z3G6d50fYUyYIMmRd+K9xcaFlG9fLwhdOp9f6jdVeVX9GimNppKoM5TqtvqN6iu05Zdp9ywRguWa3OV+8YYv7F1y65B9AqqulWVdpFACAAAAAAwVhEQhfpMH503f2frfnd4le0zdP6MXnGHnxXrFtsPaNYkU/ZzXK8NsoDID5oGXYk0VpVOdptKb3n8VR0IhD2tza/q0V2n3OXKr8eriOIzljXoeTM0bYBiYVDzu2pyh9B1q+XP/fUvAgAAAABgdCIgSiGxUbU3fbwb3pw/KzN3m7d+nu43+VDvWZ10/mAInO6S1+LIazAdOm+eHfKlaVNsr6AKrXanqZfKVqyJ9yvyH25PIseC5XbdA1rivtvhf1bMWe1xh9DtiQdNfYahAQAAAAAwuhEQpXAs+oEbRrgNqafO0VJn2R1G1vO+3ux11pfM1ZyiqZph3hxrUD14CQ2wsxUYGjf6dekT2wR7WPiB1IJb46FRkkjZ9e7fzo4h7LkEAAAAAMAwIiBKpeeM3JFMk6ZqpTv8yx9GZoefmRAmVw2qHX4gpeI5WumuSVLkVTFlpkS32h5JQ27GIm3e5lXmxJo459RZ/emQmVZ+pu5J6jHki9w906voOXTSVhid0PO2R1HoY+shr0ro8Ot2XbCB9Qm9fdj8nanq0PPxq5PsrGoAAAAAAIwBBEQpxRtV32/6DAWGkb0SNVPAO+vtrGNvRgfZoNqwlUmm79GzC9doZSDgmTN1jZrmV7tVTOm9p9fckXHFenj2soTPUNE0rZyaZjayLC2pXqhKr4u0ylbcr7VuSVVute5tUYvzt3J98pT2JVqyeq22u4FNt959JzcVPWbqfneWshVrtCO4vxkV2uzOiuZImgYfAAAAAIDRjIAopXij6qUmCAoOI3P7EBU762c7T87qo5zMOvaZXjze7FXAFM7Ws/Of0tEq71FfMVuRXjvFfj9eafc/oyrhM47OX69nK5aEVyeNeCf0vDtbmZ3SPtZPaI1qbTg0qJnKkp0+qJ37TNWSCYkC+3t6uReGdR7Slp/RsBoAAAAAMHYQEKXhVQp59kffs0sOf/iZkcsG1T1vaNWRRr0cDSZBUe1vb1TNoQa9lMm08/Yz9vcmvre197hePnEgdDr7wTDVNi22R1DHvtdyF9IkM7OVbX1dTYcTm0h3uNPeBxpI50jr3j3assucmxcUebrVss/MpHbQDmUDAAAAAGBsKLh32fIrdjmlrmjfoTvTp0fU1sZtMgAAAAAAwGhHBREAAAAAAECeIyACAAAAAADIcwREAAAAAAAAeY6ACAAAAAAAIM8REAEAAAAAAOQ5AiIAAAAAAIA8R0AEAAAAAACQ5wiIAAAAAAAA8hwBEQAAAAAAQJ4jIAIAAAAAAMhzBEQAAAAAAAB5joAIAAAAAAAgzxEQAQAAAAAA5DkCopSm6ZGFT+loVa0eKbKrhp1/DE+pafo8uy5XRsL5AQAAAACAkYCAaCQrmqv7Cr3FSPkcrfQWRxAbMi1cpjl2DQAAAAAAGH0IiEaynvf1Zq+32Np+TK94ixiUEq3dVqv63c5jU4VdFy5StUibt6313us+1mrHpkVaMsO+IQVvO38bb7vNqysUsa8DAAAAADDSEBCNaJ/pxUPP6M7mZ7Sq7T27DoOxZNMarSq1T9JYsmmttq9fqMrSyXaNMVllCxaq9um1WpsiJIqs9rezK1yTVbliubZvW0RIBAAAAAAYkQiIMAhTdYsdAjdgM+JVNjtWl9iVQ8uEN7ULpI59h9Ri14Vyjq16gQmGutWyq0E16+rso0F1h7ud9ZO1qjqk+sjZbuMKu92+Bm3xt9v6ulo6ndWlC7W9n6olAAAAAACuhoJ7ly2/YpdT6oqetUtx06dH1NbWap+NRaa/zno9XBjVy0fq9GLPNK28/Tv6QXFxrAqkNdqsLR+8oWP2eR9F8/RI+WLdF9ym97h+cbxBr/TYFTH+/uzTJK3tu7Sq7TP7LNycqWu0vXy2ImlCm/jnZHl+zj6a+tlHTLRRd34QXvm0ZFOtG9Z4utW0dY/2nLZPh0LVA6pfP1M6/LpqGqdox9MLVWaWf3bCviHAvrdjX4Me3Zv82zdD1EwV0inVrXtVB+xawz+n8O0qtHn3clUOx7kCAAAAADBAVBBlYtI87Vy4Xs8GwhMjUlyl+hQNmudMr9XR+dV6OHmbwtl6dr6ZlWyaXZMbK2+vVX1FhsFNsgGeX1b7uJpmLNIOEw7plOrCAqEBOatPQ3O6Ct3jBl6n1NgnHDJOaO8+r/ro5pu9NQAAAAAAjBQERP0q1sMV1VpqKm1O7HL7AZlHzYnj3suFVdow1VuMmbpG9eXFzkJU+9sbVWO38bczdVeR8u8kTS8f7zcUfNS0R+3raTj7M+GO2V/iMTa7+5KO60m7rm8V0gDP70xD7D13Njdqv1nX25xwjrFHiuoh40DjIW/YlaNj32tDWFFToc2mWsiEQ0kVPyk1v6sm59jKVtwV0pDaBkGd3WrzVnhmTJHbdujwRwn7CAZurR3n3L+lZcMzpA4AAAAAgEwREGWi1wQsdXrxTDxcOXamQU/a7GZGYbAaaJoeKZ/tLu0/UaeNbe8lDNEy261yw5di3VecmyqiOYVe4GD2l3iMb9h9zdb9ySFW0IDOL0dOH9Tzj3s9evoOx8oVMxzMH9aVYTjkOqs9j5t+Q9er9ulaO3OZc42dh/d5UsvvDtrwzbp5ssqcPx0dXd5zd0hZrbYHeyx90q0O509Z2RTvOQAAAAAAIwQBUb+ietn0DLLPgk6eD6nuKZqr+8wQrN5mvXTGW9XHmWNu5U2kZG7o8LShkDrkGeD5jSL+jGUtu7Lo+TNjiu6Z5s1g5s1ctkb1zmNVqde4+vlm96XUqm51gySDQAgAAAAAMNIREOXapBJvWFFhleqrntLR0Ee1lrpvzo1jvV4FztKKNVoZHLZWNE87K7xqptO9oY1zxqz4jGUZhDnJTJPqp02l0Ck1bTWzmDVoyy4zJM70EJJKvz4lYehYUCwMssPU3BnN/jzYvkcAAAAAAAwtAqKxIDYczGuAHQui5tsgKtqYupppTKrQane6edNHaI07lX7Cw+1J5Fiw3K57QEvcdxsV2mwaWnce0pbHX9We0yZ8O6vWZjMkbo9qtrbo3WnLtX1bcBuHHT4WZ4apmSF0e+IBVZ9haAAAAAAAjAwERLl2/qzXm8ZM8R7WuDn4OJRmivwB84aDJfTF8Ztkf5DYBynnCks0yy6OenZoWMehk0nX0jp9Qnt+fkgdpTNVu6nCrnSc7pJbMLTg1sTgKCBSdr37t7NjqHouAQAAAACQHQKiXOt5X2/2On+LFyfNUjaE3FnMpJePPKNVCSFU3ybZQ6NEtw70XGcs0uZtXkVPrIlzzpzQ8+u8Btihj62HvGqfw6/bdX0bWKftG2QrgRKd0NuHzd+Zqg49H7+q6ZTeHuiQNwAAAAAAhhgBUc59phfbvVnKHp5fq53T52lOQngyTSunr1FT1RqttGsGy5vFrFi35GhWtMy9p9fcwiXnXGcvS+p/5Jzn1NTHs6R6oSrdeeHNMLD7tbbPdPJXSfNHajF/FyzXjk0ViiQcV4kiVYu0wwxBcyQPFTNT97uzlK1Yox2rnW291dKMCm22s58lT4MPAAAAAMBIUHDvsuVX7HJKXdG+Q2KmT4+orS10EM4YMU2PLFyvhwujevlInV7ssasD5kyvVX15sVrbd2lVW2ITaP+1lHqPu7OHhX1uULp9xBQtU9P8qpSNk41WZ39vth8ITGU/uPOLSbtvM31++AxpSzbVuk2kPWYa+ixmGsvWjEXaYfoQmQqin4U0kK56wA2B+lYJBbg9ipKmuneY5tjbbf+jPlJsAwAAAADA1UYF0RA51lanO4806uVoNDEQ6LV9gQ71Hw5lrOd9/cLZTzqRwtl6uGK9dk61K3Kl5w2tcs5zv3NeQSaQevnEgdBwyDDVNi1u0x4z09hrwxcOZaL5VT26tUF1+06pwx6jr6PzlJp2NaQMelr37kmY8czTrZZ9rxMOAQAAAABGLCqIRj1bCaRm1aRsej1NK29f7/YpSlsNBAAAAAAA8hIVRKNd0VzdVyi1nn0/TTPqz3TyfPoKIwAAAAAAkL8IiMaISPl3tHPqNM2xz31ziubpkdv9fkjH9QuqhwAAAAAAQBKGmI0BK29/yh0+llaGTbEBAAAAAED+GR+ZectP7HJKvb3n7VLcddddry++OGef4Wo6cfaA9n81QVMnFUn/YZKut+sN0yz6/z71f+v/+Oht/e5/2ZUAAAAAAAABVBABAAAAAADkOXoQAQAAAAAA5DkCIgAAAAAAgDxHQAQAAAAAAJDnCIgAAAAAAADyHAERAAAAAABAniMgAgAAAAAAyHMERAAAAAAAAHmOgAgAAAAAACDPFdy7bPkVu5xSV/SsXYqbPj2itrZW+wzpTdMjC9fr4UKptb1Rq9res+uHSib7898T1ctH6vRij13dn6JlappfpYh9GtPbrJpDb+iYfQoAAAAAAEYPKoiGQ9Fc3VfoLUbK52iltzh0hnt/Y1aJ1m6rVf22RX0DMQAAAAAAxhACouHQ877e7PUWW9uP6RVvcegM5f563tCq5md0Z+zRqP32JQAAAAAAMDoREA2Lz/TiIS9QGfrhZcZw7w8AAAAAAIxmBEQYXWYs0mYz7Gt3rXasLrErh8oU3VxqFwEAAAAAGMNoUp3CnOm1qi8v1v4Tz2jjGbuyD7/R83E92dxgh3LFG0SHaW3fpVVtn9lnYaZp5fQl+kHJbEVinxFVa/QtbWl/T8f6NJPOdn+JTar/oHnaMHuxlhYWey/3RrW//V+dc093rMY87ayq1tKBNKkumqdHyhfrvuLiWG+f1t7j+sVx5xr20yx7yaZa1S6wT9Stpq17tOe0fZoLVQ9ox0MzVZZJMHT4ddX87IR94omsXqvtKxQ/rhkVWltdqbsWTFaZ9xZ1ONvtdLZz/+mZsUg7nl6oss5D2vL4QW9dAtMHaY1WlaY517B9dJ5S489f1YFcXhsAAAAAwJhFBVEKx6IfuDfrS8uXaY63qq+pS9xgprX9QI76/MzTzoXr9Wx5MBwyihUprlb9/FrtnD7NrsudW8prnc+ujodDhrO8tGK9jt4+z67IDRO8HXX29XAgHDIihbP17Pyn1DQE5zdQGYVDGTBhUf3Ty7UqENwYZjlX0WrKfZTOVO3Tw1FlBQAAAAAYC6ggSqn/aeBX3v6Uni3ObJp4vyIpXQWR/x71HteTCdU00zRn6hJtL58tne2vAsnT//4SK49ao836Rfsbdp+miuk7etYciyN9FdUAKoimrtHRCuccZKqT3tJLbe/F3j/HeW2781rEeS3t9TRDzH60UJWlUse+Bj26t+9vM3cqtHn3clWmrO7py6sgmqyWw6dUuWCm1HlKdT9/VwdO+8dZosiMs2r1K3sGU0FU9YDq1zv7ULda9rVo715bleSIOK9tdF4rG4oqKwAAAADAmEMFUUqf6cX2487fYj1cHlJFU7RMPzD5Se8H+kM/4dBAtZ49kDTU6jMdO9OgVYdM0+n+w6GBckOkD/xwyPhMr7TVqaY96j5bWpyLKqJpesQEXI79J+q0MRAOGe75nfCu933FaaqITh/U8487x7aubojDocEx4ZAJsGoeN8O8gscZCIcGpURrHzLhkNSya4+eD4RDRmvzq3p01ylnabLuupsqIgAAAABAegRE6Zw55k3hXjxHK90VcXOKb3eHSO1vz7DvTgb8YW2R8u9o5/R5mlPkrR9aUb0ZDQ+d/OPRpKmph9llqmiu7jPVSr3NeilVNZK93pGSuYPf39V2+PWhDbBmzNJdZihc5yHtbfZW9dH8kVqcP2ULZyUM5wMAAAAAIBkBUVrv6SW3ima27p/qrfFM07dKTPnQcb2WcuhVFnre0KojzdrfW6yl5abn0FM6WuU8FpreQ8MVGIUoLNEsu5i1SSVeSFFYpXpzTqGPai113zz6dXR02aUhcrPtOVS6UNt317qzuvV9LFel+2YAAAAAANIjIOpHaLPqnDenDuh5QxsPPaM7j+zSk+3Htb83qlbTMNoGRk23zxv91TUAAAAAAGBEISDqT88b+oUpIiq8Xd+yFTwri71Gy6mGZuVEj+kD1KCNh+q0qtkERo3a3yt3NrPtwzXTl1/103tWJ90Vg3D+rDdcLdqoO835pHtkOl3+cCmdrOl2ccT4pFsd5q+Zan+d15Mp5SPDBtsAAAAAgPxFQJSBV6LB5snzdP8QNaeeMzVNdVDPe9roNs2WIpMSxrsNUrFumWQXE8SbSreefb//wKa/YWg97+vNXudv8WI9MpihcmYWs23eEKrhm8L9et00wy7m2ukudZq/KUKoyOr7tSps2v3TJ/Wu2XBBpdYO1bEBAAAAAPIGAVEmzhzQy6Z6p2SuVk6d4/bJyWVzalfRMm2vqFZ9Va03jKwosUpoTtE87XSniJdaz+ey8ZG0tOIpNZkeR/a5nH3Fp8A/rl+knTntjD42wY9m6wdJn7EyIQgKzAo3P6ynkplaf42aqtb0aQgetKTam+LeKFtx/xCHIyf09mHzd7JW/WiRlgT3NaNES6pyEVB16RM3IZqp2k0V8WbSzuev3eRNmR/urPb8zpulbNXTa7V5tbNtwrVwjm/1A9qx+wEtsWsAAAAAAEil4N5ly6/Y5ZS6on1nY5o+PaK2tvwZuDJneq3qy03pkHFcTzY3DKj/kL+9O6V8isBlztRl2lBepaVuMJNCb7NqMhiC1f/+ptkQKKrW3mJFQvcZ1ctH6vRiP5VSidcmwAwn++A9+8ST8r2+3uN6+XhDyn0u2VSr2gX2ibrVtHWP9uRk2vgUZizSjqcXeg2h+zilunWv6oB9ZkRWe6GOmeI+41nMqh5Q/Xpvyvpk5nMay9Y45xx+rv7+Uuo8paafvzq01wgAAAAAMOpRQZShY21veVPeO4akObXj2BmvQXXNCTOTmWl8FNdqgpMTuzIKhwak9wNtcfd53NmHXedojTbryQzCIeNYW51q2p3t7XOXOd5o30on817TT+nlaDTp/VHtb290zi91OGQcaDykFrfixoQnrw198HH6oB7d+rqzz267wtNhgpdd7yaEQ1lrflVbdp1yPtM+N5zPr9ta54ZMbR2J+w5q3btHNc7xNR22PYl8zvG27HtdWx4nHAIAAAAA9I8KIgAAAAAAgDxHBREAAAAAAECeIyACAAAAAADIcwREAAAAAAAAeY6ACAAAAAAAIM8REAEAAAAAAOQ5AiIAAAAAAIA8R0AEAAAAAACQ5wiIAAAAAAAA8hwBEQAAAAAAQJ4jIAIAAAAAAMhzBEQAAAAAAAB5joAIAAAAAAAgzxEQASPZjEXase0BLbFPgashsnqtdmyqsM8AAAAAjEUERMNimh5Z+JSOVj2lpunz7LocKVqmJudzzWcnPBYu0xz7FoxSVQ9ox9MLVWaWZ7hrgKumbMFy1RMSAQAAAGNWwb3Lll+xyyl1Rc/apbjp0yNqa2u1z8Y6E/Cs18NqVs2hN3TMrs2YCXHmVyniPjmuJ5sb9Iq7nMoA9pfw2QG9WR4rNOGmF1RcVmqfZeCr3yr6Xr0u2qc5YSqH3HDolOrWvaoDdnWiCVq7ZrJWXe8snjuvLQ09cv+JvO1a1d830Syp5c0zev5Dd9ExUZt/eK0q7bNMJG5/tdjzVOAc01jyzamq7fMPRLJLavpNl/ZE7dNRaWDXZeC/l0Smimj7isnq2NegR/f2/d8EAAAAAKMbFUTDoed9vdnrLba2H+snHBqgnje0qvkZ3Rl7NGq/fQnDpPfT3IZDKtHaH5lwqFtNW1OFQ0nOXQwJCC7pky67CARl8Xtp3btHdYelshX3ay0VbQAAAMCYQ0A0LD7Ti4e8AGdV23t2HUaqi58+ps/f/buER7Sj033tq48T17uPk2+5r+VKZPX9WlUqdex7TXtO25U5cUHP/9MZ1SQ8utV0zrxmKmqSXxsJ1UMDd+CPwXNIdX6jvXro6jjws9fVosla9aNFfasWAQAAAIxqBEQZmapbCu3isBju/Q3CjEXavK1W9btrtWN1iV059kwoNEPOOnXJVoINnQqtXjHZ2dUh7ex3GM9FfeqGH0m6LqnDLo4N43WzGRaFJAO9Lrn4vZzQ3n3dUulCra6yqwAAAACMCfQgSmXqGjWVz1Ykk6Am2qg7P/Arg2z/oBTbtbbv0qq2z+yzgKz3l2yedlZVa+lAehAVzdMj5Yt1X3FxrCqgtfe4fnG8Qa/02BUpLNlUq9oF9ok7JGpPjqtegiK6ZtY/qGhyqSbYNRe7f6uejnp9VfiYbrylTD3/4zH9+3n7ojWhuEZFZXfpmmv8vkKdznbvetslvTfcYl131wZdoxZ98e4L+squTcXrYaT4sUxytr+1Or7/r5zP+cj5nLB9Vz2g+vUzM+7z4vfb6TjSrUffsQPdiou047uTVKYLqvunL/sZoub3pRlAT57iiVpbWaS7IuO9BtqOjnMX1Phvzr76bB/vexPe3ybF/m+7VjsWTFRZJgFI65eq+eMF+yRZpudn3xfr5zPBubbXqjp4jq3ntfOPyb1+Ercz12b13xap8vrx3svnLqnl8JfOeScNQvS/o2AvoARDc10G/3tx+P2xDr+ump+dsCsBAAAAjHZUEKWRUViTQ8O9P2PO9FodnV+thwPhkBEpnK1n55tZ16bZNVfZpBoV3/WcrguEQ8aEyd/Wdf/xBWe9ab3coYvJoUvxYyq+5duBcMhwPsPfrjiDgTKTbvL22f1Ov+GQ4VUbecdiwqIb/+OGxP1f4zxSBFNLvj7T+b/devedzJoAt5275P7t7A4EENGLcgfEOa+1uStyJ3L3FNV/91qtCgQnRtn1E1X73anacXfw2zEuak/Dl2pxlirvm6K1xd5aX+Ru57OuN4HFl33Cm4xCkFy7frymF0/U5jWTVZt8jpFJ2r6mKHxolbPd6m9O0Xbn2sTCIcNZrrxvsuq/6TWBzoXBXJec/F5On9S7ZoMFt2qJtwYAAADAGEAFUUayqMpJYoKY+vLi1BVECQazvwFsO3WNjlbMdhai2t/+ll5qey/2/jnOa9ud1yLOay8fqdOLqSqJzBCzHy1UZalzkz9ksxv5FTyOr36rLz6KV/5MKH5M191S6QU4fWYTi+hr855T0TWd+urj/6Yvov7vNeJs9127XWdo1VECZx83Ou+92PGEop/295u3+5RzLB03qdhs1/2Svuh4y4ZXEV1T7Bxq7FiCSrR22xqtKk03c1kSOwNVYnVOcjVMOplW2Dhis11dUsuRHu1950LssyPOaxud18rcXj8hn+NvG6yY6beKxmdnX+v3fWEyPT//ffapOY83v9QeW/ljzm976ExfiduZKqPGlh5bSTVBS+6+VrXzvcAoYbtsK4gSZHFdBv178XgzmmmIKwYBAAAADCcqiPLWND1SbsIhaf+JOm0MhEPGsTMNWnXiuLNUrPuK01QRnT6o5x+vU826uiGb+vqaWTYc6n5Jn7+XOCzsYvQFRT829SmOVLOJffWuehICmVZvu3ef0Bf9hUOOCdd4dSQXv8rk1rlc492DvUvX3VKmrz5+QtGTfjhktKYIh4wputkUGnV2D7DyJ8XsU6EzVWVrgtYu8AOSLj0fCIeM1g+/1KNvmuFM43XXrclVRA7n9TqzwfWTtNGtMnI+72/NsKZLavq3gYY+Q+ycGWrVFQuHDHN+7vE7SieHnJ/DHbb1Rz8cMi7qwDtd2nLEq9qpnJm7KqLBydXvZbJuvtkuAgAAABj1CIjyVdFc3WeGtPU266Uz3qo+zhxzp8yPlMzVHG/N8JtUo6LJzl9THdTPbGFfdSe/3qqLpqn0Nd/WdbMWa8Ikb21ca0Y9iAbUoNofjnZNqS5+/FigammIfPhlyIxcZljXmTR9ebJQPFF3mSqZc+e1t08fIevDC+5QsrLIRIUNwzrwR2+oWdn8a7X5m97QMhM2pa1aGnYmsArvw+MPzwp3Se9+FBpPqvWjC14T6OsnhF6XYZWj30trR1i3awAAAACjGQFRvppU4t2sFlapvuopHQ19VGup++arZ8Lku9zA5WLXwfDqIIdX4RMe4Hx18gl90d3pfM4GFf/HX+vGu17QdTct9kKcjCzWRBNQhfU3ClPoBURmONoXIyr4GKQpth/P9ZO0/YdTVR/6uFamE1RqF/T8b847V3K8KiPjZZoo921aPYaZ/kZ2EQAAAABGGgIijGh+9c6F7lSVOBFdM8W8J1WA06qvTj6mz//HE/qio0UXVapryjao2A2Kct+g+hq3WXa6481vkVtNnyJrJFTUICuRq9JBHAAAAMBQIiAaiMISzbKLw2Io93f+rNdvxEyZ3/xM+keWjbmHh+3581WK/kO+863OW0zfob/T5//jJX31lQmK/kFf6zPsLIlfEdTb7j1PK6IJ7kx0GVYb9dGlT8zsUKWTR16lSdclb5iUmTr9n86kf6RqdGwaPZuGzc5n1Jm+PLF+RBkarRU4fvXVEMwq57pq16Vbn3xiFwEAAACMegREA1KiW4vs4rAYxP76C5d63tebZkhW8WI9MphzMrOYbatV/e5a7VhdYlfmWqnGu8FLski8gXWfBtWLvb5D9lmC82+51USpPzcuqwbV/YVVKZ3Vp+4Ed9frphnuipEjekHvmrYzkaI+U9VnZqI2u7OAXVDdHy/owDtfqsn5vLL5k7X5Nu8d/Zugm7La9/C4eYpdSBBv7t3RGmjs7U8tnyLc8af/z8xwX5cSfWOhGXd5Tp8ygxkAAAAwZhAQZeQ9veb2kynWw7OXaWUwUCmappVT08zylZXB7O+MPnZ78czWD6bPizeXLpqX+Dn6TC+2e7OUPTy/VjvNexNed/YzfY2aqtZopV0TZkm1N8W9Ubbifq3NcbBxsde9jdY1tzymawLVPhOKa3TdvOd0ndsfqG+D6gk3Vesa03do3gu6rjiSGBRNWqzrytJ3y/Fl1aA61WxqGTjw51PO/52su+4eqrAtWxe157A3S9mq707R5rsnKpIQSnhTuu/44bVaYtcELfmm15+o5U2/AbTzef9m+hFJlfeFbxN3QW+7yYqz778t0pLgfoud/d42gCqkITPeOQ97Xewa09g7PgX+BTW+E/xVXNInbp/niar9ZnCbCVr7zSlepVW/rtJ1mTFLd5l/LA5/FNrMGwAAAMDoVHDvsuVX7HJKXdG+05dPnx5RW1smVRVjRNEyNc2vStEz5biebG7QK/ZZmDnTa1VfXqzW9l1a1eaWiaQ3iP35++rDDCf74D37xJPyvb7e43r5eINe7LHPkyzZVKvaBfaJutW0dY/25LSqYLGuu8tWCSX7qkU9XWUqKpN6Qqarn3DTCyous+lVmO6XvCno7dO+/H236It3X+i/B1HxY7rxlkq3QXX002z/2ajQ5t3LVdl5SFsePxg+VCunJtgQ45KaftP/jGKRu/sJL85dcGcBS/ic265VvakeMsPTkmbKin1eyGsJiou047tmWvwwZlr6+MxjS745VbX9NjdKPt/+r4N/rO509rGwx99OMhN7hbfmSfGZ/nUJYfbReP1k5zz6+V4GcF1yJbJ6rbavmKyWXXV6vtmuBAAAADDqUUGUqZ43tOpIo/b3Jt6ptZoA5cSBtOFQVgaxv2NtdappP54YLpjton3nszfvvdPZz8vRaNL7o9rf3qiaQ6nDIeNA4yG1eEU+6tj3Wo7DIeMtffE/XlJPt92J8VWnvvr4CUXf+42UpkH1xU9Nc2pv22AIdNHfPm045Bhgg+qBDUdL5YT27uuWShdq45AN2cte6ztdqvnNl2pqtT2JfOcuqeXIl9rSkBQOmQAjMLQsmfm8OnO5ItdqR7p+RNEePerstyVpqvkOE0i9eX4EVLJc0rv/dkZb3rzgBkW+jtbzqksV8HzoXK+k95uAre43Z9wAKv20+tawX5cKrV4xWeo8pL2EQwAAAMCYQgURRjFb4fPVbxV9rz592DOqlGjttjVaVToUFVnIrYFVYI12XsUgv0sAAABgLKKCCKNXDnr+jExntefnh9ShyVr19AP99OcBhocZWmaGkw5NpSAAAACAq42ACKPXgKagH2VOH9Sju06pQzNVu42QCFeX33dIh1/Xo3v7VpQCAAAAGP0IiDBqeT1/OnWhe4wOdWx+VY9uNZVEjpE27T3yTsfh11XzsxP2GQAAAICxhoAIo1RE16RpUD1mmEqix1/VAYb04Cpq3btHjxIOAQAAAGMaTaoBAAAAAADyHBVEAAAAAAAAeY6ACAAAAAAAIM8REAEAAAAAAOQ5AiIAAAAAAIA8R0AEAAAAAACQ5wiIAAAAAAAA8hwBEQAAAAAAQJ4jIAIAAAAAAMhzBEQAAAAAAAB5joAIAAAAAAAgzxEQAQAAAAAA5DkCIgAAAAAAgDxHQAQAAAAAAJDnCIgAAAAAAADyHAERAAAAAABAniMgAgAAAAAAyHMERAAAAAAAAHmOgAgAAAAAACDPERABAAAAAADkOQIiAAAAAACAPEdABAAAAAAAkOcIiAAAAAAAAPIcAREAAAAAAECeIyACAAAAAADIcwREAAAAAAAAeY6ACAAAAAAAIM8REAEAAAAAAOQ5AiIAAAAAAIA8R0AEAAAAAACQ5wiIAAAAAAAA8hwBEQAAAAAAQJ4jIAIAAAAAAMhzBEQAAAAAAAB5joAIAAAAAAAgzxEQAQAAAAAA5DkCIgAAAAAAgDxHQAQAAAAAAJDnCIgAAAAAAADyHAERAAAAAABAniMgAgAAAAAAyHMERAAAAAAAAHmOgAgAAAAAACDPERABAAAAAADkOQIiAAAAAACAPEdABAAAAAAAkOcIiAAAAAAAAPIcAREAAAAAAECeIyACAAAAAADIcwREAAAAAAAAeY6ACAAAAAAAIM8REAEAAAAAAOQ5AiIAAAAAAIA8R0AEAAAAAACQ5wiIAAAAAAAA8hwBEQAAAAAAQJ4jIAIAAAAAAMhzBEQAAAAAAAB5joAIAAAAAAAgzxEQAQAAAAAA5DkCIgAAAAAAgDxHQAQAAAAAAJDnCIgAAAAAAADyHAERAAAAAABAniu4d9nyK3Y5pa7oWbsUN316RG1trfYZgJGu+7b/ZJcGZvKH/69dAgAAAACMVVQQAQAAAAAA5DkCIgAAAAAAgDxHQAQAAAAAAJDnCIgAAAAAAADyHAERAAAAAABAniMgAgAAAAAAyHNMcz9S3DBOd35vnArt05iuy/rLLy/rvH0KZCv1NPdT9J8XfV0rb41o2mS7Sq3a9Y9/1P/jLDHNPQAAAACMfVQQZWjS3HGq+P54LfrxhNjjzupxKrnBvgEZKFD59821G69yrlsIe32+P06T7Jrh8J8f/C9a//VgOAQAAAAAyDcERP1ybtqrx+uOB8dpypQCu85TOGucZn1vvCrm2hWD8dfLOvrTizoYe1xSl30JGDpTdJMNhg7/8f/S//aP/2QfXvUQAAAAACA/EBClZSo6xuumWSYYuqKu31/SXwIBzsm3r6jXec+UisTgCBh1ug+r8QSRJAAAAADkKwKidOaO001TzMIVnfzVJZ14/0qgF9AVnX3rko466w829tvGCchIoft7AwAAAABgeNGkOiVbPeTcsHf9/qJOvG9XD4DpW3TzIjM0za7QFfWevKwPG4NBUyoFqvjxeE3pr0m139w65fv887iiT391Se1/9daWVE/QrFlXdPKnl1VYPS6hSurE+2ZYXfI6dzOH/Tz5+ytwPst7r99g2zvHzI8lYzc42/+Ncz2D++pyju/gZbW/n/gz9s6vv+8ufjwnf3pJyb/yAX1/WX4Pmjtedy5yzieTYOjk4MLIVE2q//ODP9T6yYe19V/eVdg/0TSpBgAAAICxjwqiVG4osMHAFXUNOBwyYcAE27fIrnIVqHDWeN0xgpo032RCCzcIMpxzXjTO7bmUsO7B8Sqxz2KmFGiSc41M4+5ZgcDGML2Z7shpo2XnejrHtOh73nEl7Ms5jpuc40vuA3X2v19Wr/PXnE/K4/C/45OXk8Kh4f3+RkTV0OTJutkuAgAAAADyDwFRKiU2iOgTHvRv0uL40DRTfRNrPP2rS/rUbfNSoJu+FxK6DDvnHN2KFq+nkntsU0w1UNI6531T+jTiLnAbdE8x2wfO8S+/txUuzufcnIvm3YYZ6jerwK0WMkP9YtfT9oEy+oRYf72sT086f9McR8nfjHO+Y+f4/3tiVc6wfn/vJ56P+/GmCim2LvBgKCMAAAAAYIgQEKUwqdguDNQN43TbPd7QLDOUyPQtivnrFbX/MhAyLPardK6e3rcv2+FOVxT90DvW4Lpe91hTMIHNTy8lDO86//4lnTTBjKOwOEfn53zmX351UUeda3fWuYZxXh+o2P6SqnpiVUShTcQLNGWW88c5h2hwqNso+/4GZ4oii76plbc4i93d+sRbCQAAAADIQwREuRaoPArvsXNF7Qe90KHwtoIcDsPKTm80GLh4guvOh7zuuaJPf9e3b4+Repvsnfev5Q0FKpk7ThXV43Xn98dr0Y+9XkMmsClMLun56xV1mTBn1ri+Q8KczzBFQr0fJvUTGmXfX1ZK7tL/8fc/1P/59/9FT389omndrfr9H8L7DwEAAAAA8gMBUQrno3bB9Nqxi5nwK496/e3DnDXT4zsG+Nn5zDSMrvj+BLcP0SzTG8j0InKuX3p+mFOgKbOD7y1Q+SJbJfRWYpiVj9/fZ87jU28RAAAAAJCnCIhSIcQZOeaOjzeMNrOWvX3J7UX0F9uPyB9iFur9y+6QsMJ7xsV7BqVsTp0nzr6r/+8//pP+t3/8v7Trz+c0bXJE6791lyL2ZQAAAABA/iEgSsUfnpRlr5nCdD2M/GFMXZlMd5/vClTxoK32MQ2jf3lJJ9664vYiOp/QjygVv7dSvNH2pNnm+jufl9ScOuiqfn/DFkp26f852KBdHzuLzGIGAAAAAHmNgCileNNmU32SclrzGwpUPjceIJ0/biuPwvreuPzhTSH9b8L0Fxb8NX2lU3xGrlHONJMONoyOsWFNGuffuuzODuZNeV+g4tuc65/cnNrK+vvL8feQ3HAbAAAAAIChRECUhgkWgtOaVywO3vw7y3PH605n/U0PBsIEf3p1f5tAeOSGSd933u8GBX373yTzZhDzKphi+zVNmpPCA/99s6oT31dePV53uDNyjQFTxum2sOtvrqfbpDqdK/rETIc/pUDFzmeY4WUpw7lBfH+D/x6uqMvf90PjEr9n870HjwUAAAAAgBwquHfZ8vQphaMr2rdTy/TpEbW15cO8R8FQIIxzU/97Mx26ferqfxszhXr4LFlxkxanCBZOXtLBxsDXNne8FrnDsPrqffuSPi0er1mzEvdZUu3N/tX1+4uxY/f3l36df26pz8Hfxuz7aEKI0t918XnT5/u/upTXwehy3vuhNCvpuPsqUMWPx7szlyV/fl9Zfn9ZfA993DBOd35vXIqqqP6OO73u2/6TXQqaov/Pf/0velCHtfVfwmcym/zh/2uXAAAAAABjFRVE/bqi9l9e1F9+f1ldXcGw44p6T152myX3DSWC29hVLrPNJf3FucnvLxwyzr/lvPdtO3TJ5xzDpyfssu99532/d94X3JcJTn510Q1ohmLa+eHkXoeQ8/N7Ep1NN+NYjF+d4+i3OXWW318uvoe/XtZR5zeV+Fsz1UnmfPO0qTYAAAAAYMhRQYS84VVN9VPBM4ZRQQQAAAAASIUKIuSHG8Z5vYq6wptT573JC1Rd0e/YPwAAAADAGEVAhDFv0tx4X5+ug5eHZmr6UatLb390zl1a8M3/ov/z739oH9/Uf3bXAgAAAADyAQERxibT7PnHE7TIedzxoBcOmf5BqZtY56/Wgw3a+udWfdZtVwAAAAAA8g49iDA2BWcU67riVg6deH90N+serPAeRP2jBxEAAAAAjH1UEGFsev+SDv70ovf4pakcyu9wCAAAAACAdAiIAAAAAAAA8hxDzFJgCB0AAAAAAMgXVBABAAAAAADkOQIiAAAAAACAPEdABAAAAAAAkOcIiAAAAAAAAPIcAREAAAAAAECeIyACAAAAAADIcwREABBqmh5Z+JSOVj2lpunz7DoAAAAAGJsIiPKafwNcq0eK7CoE2OuzcJnm2DVDa7j3NwBT17hBiXnsnGrXJZinnfb1o7ePkTClaK7uK/QWI+VztNJbBAAAAIAxiYAIwIAsLQ4JgKbO0VK7OGb0vK83e73F1vZjesVbHBMiMyq0dtNa1e+uVf2mCrs2vUjVIm3e5rzfbOM+1mrz6gpF7OsAAAAARjcCIgADU9y3mmZl8Wy7NJZ8phcPPaM7m5/Rqrb37LrRbckmL9zZ/vRyrVow2a7tX2T1Wm1fv1CVpXaFa7IqVyzX9m2LCIkAAACAMYCACEhpqm6xQ4yGx3Dvb+D2R487/3e27k8YZjZP9xc7f5zX9nsrMFAz4tU5O1aX2JW519b4uup22ce+bru2H86xbVxhwqRutexr0JZ1daoxj62vq6XTWV26UNszrEICAAAAMHIV3Lts+RW7nFJX9Kxdips+PaK2tlb7bOwZ6+fnMT1v1uvhwqhePlKnF3vs6kwVzdMj5Yt1X3FxrIKgtfe43mw/oBfPfGbXeFbe/pSeLZb2n3hGG8/YlX34x3NcTzY39BnSM2fqMm0or9LSWIgSVWv0LW354D0ds2tiipapaX6VIr3Nqjn0Rt/XU5371DVqKp+tSCZBTbRRdzr7HpQc7G9A18U/b3nXxXyHG2YvdrY1CY+jN6r97f/qfEeJ35/bg6hitlrbm3Xa7Ct4LPa1/c5rSn4taAC/F9+c6bWqL1f8Owr7DGd/Yec6xzmu7f1c29b2XVrVZvbt/x689cni70uWeD2POc9X3v4d/SDh+Jqd4wv7DcaZyp7aBfaJutW0dY/2nLZPh0rVA6pfP1M6/LpqfnbCruzLP7aOfQ16dG/y/xZUaPPu5aocrmMGAAAAMGSoIEIWnJvi22t1dH61Hg7cCBuRwtl6uGJ9n0bGr7Q3y8RtS8vTNGD2mwJHk/u9mJvwp1RfEQxBDGffxdWqz3GT7YzCmhzKfn+DuC6FJdrgfIf1zncYC4cMZ3mp8/2lbjR9Rh+bvjyBYWZznM8yoZRZP8NblWTgv5cwJiwK/QznkRy+rDTnVpFh8JYLzjWYVTRPOxeu17PJx1dcpfqR2Hg8IxW6xw2uTqmxTzhknNBetxJpsm6+2VsDAAAAYHQiIMLATV3i3qSb6o8nj+xye7R4j116sj3qvmVpxZrEPjU9b+gX5qXCKm1IEQasLK9ybqyjerk9sfpkzvTv2MqOqPafCOzvSKNedpsIF+vh+Un7y9aZhsD5NHpDpkwVUmxd4BFWJTNQg9jf4K7LbC0132G02fkO/X3Evz8VV6cIbc7oD2fNe/xhZtP0rZJi55g/0B/Om+chsvm9JCjWLeVrVF9u9tP3M2qSfi+mosmENOa6vBy4LjUnvJBSMhVq3rp4VVC831DwUeNfj37N1rNu2Ja8TzMkz5Hmd28caDzkDddydOx7beRU4syYIrft0OGPdMBd4QkGYK0d59y/pWVDNzQOAAAAwNAjIMLAnWlQzRHn5vpQg17pCQ67+UyvtNXpSfeeukS3JlWvxKqIwmbB8vvYmKAhONStaJm2m2DA3OwfqUsc+tTznnNTv8uGIbP1g+nT3NV5IQfXxR029cEbzndoV9jvzw9Fwr6nyKSpOtb2lhtkua/bqq/97WmGUGX5ewlaWmyGt+3SnSGfcSxpaKRX0WSGM9YlDF07duYNrXIDm+QeSjliwqvm5H022POTZhSm+X2ePqjnH/d6+/QdxnUV3TxZZc6fjo4u77k7pKxW24O9kj7pVofzp6xsivccAAAAwKhEQISsxG7Ki6Zp5dRl2nl7rZoW1upolddryK36mOS+I86fNrx4cd+hT3aa9Naz7ycGDZNKvGqF6FspeiR9phfbvSqNSMncUTqMJwuDvi5RvRkNBi1xx6IfeJU2k6amuJ7v6TUTejivryy+3TmO43rN9JXyjylEVr+XoGhjih5A2Ukb1mQlqpeP9+2bZZw8bxOisaDqVlXaRQIhAAAAYGwhIEJWTGPknQuf0tH56/Ws6YFj+q4Ee9mE8kOLYt1XHLxBn6ZHys006cf1i6QQwK8GaT2fsrO1dP6sF2iYPjDuirFvWK5Lmu1eMbOZFVbpWVPF1KdnVF/Z/V7i0p5nkmO9XgWOO2wtGESaHkEV3nT8p3tzFzblg1gY1PyumtyhcN1q+XPqxtYAAAAARh8CIgzc1DXxxsi9x7W/vdHtC1Nje8P4Q2pCnTngDn2KlC+J95xJ2ZwaI9aZY7Ep7fdH++nFNJjfSzZiw7pMX6Cn3Col92F6BJnV0Ua9lHnelN/s8LG4s9rjDoXbo+eb7ao+w9AAAAAAjEYERBggvwrDNuM91KCNbe+5fWGOJfSGSeWzpCbH0hx3mJLzecnNhgNM75uU/KFNvWd10l2RY8NdmTSA/Q3Jdclou/f0WntUrb3N3vCylAb7e8mWlzp5Tal9Zgr/RtWETImPFE53yS0YWnCrlrgr+oqUXe/+7ewYQb2TAAAAAAwYARGyY5pJBxsjx0zTrXYplViTY3fK+8AsWCG9dGL9cML6Frn84WlJ/Yt6zsidCCpF2BKfASwT6RsohyqyQ6qqnlLTgJtn97+/rK9LQHjPn/6385kG06sOvZFZ1dcgfi8D5s5iJr1sGmPb2cS8R50bTo3IcGjGIm3eVqv6YPPnEeGE3j5s/s5UdehxVWj1isnO31N6268oAgAAADAqERAhO4VV2j59XqCJ8TTNcW7Mmxau18P9tpZ5Ty+ZmbIKb9e3pnvDy1KGEf70+O6U7bXaOTUQthTN0yNmf27Qk9y/6Iw+trN4PXt74DiLpumR250bcXcGsP7YZsxm37OXJfWzMc2WUwc/Zsp+d0iVI1L+nRQhTrIB7C/r6+Ir1tIKZ7vgd5jRdlka1O9lYLz+TMW6JaHP1ci2pHqhKt355KWyFfdr7QxveSQwU/C7s5StWKMdqyvijchnVGjztuVe0+qkafABAAAAjD4F9y5bfsUup9QV7Tt0YPr0iNraEgdwjCVj/fw80wKBQDpm+u74DE1zpqcJWMxU387P5dny2dp/4hltTDn8aJ52VtmeMEmf31d/x+lN9d5nNq+pa3TUNiVOZqZM/8Wk9Xq2OMW2vqJlappfFb8pTpD6uFfe7s/OZfSzj6AB7S+b6xLfptX0ggrdNmQ7/1pGG3XnBymGAqZ4z2B+L/627pT8mQZWaa+hp9XZ75vtBxKmpA/T//7965n6O87kHJZsqlXtAvtE3Wraukd73BK43EncRxqHX1fNzxIbUEdWr9V2t1IoROchbXn8YNJwPgAAAACjDRVEGLBjbXWqOXHcDRhinBtuv8fMK8H1KfnVMo5+m1N/phcPPePss1n7Ez47qtZoo2qaU4QvZxpCj/NJM/TIuVHPaPrxnje06kijs9/E95qA4eUTB1Ie9yvt8WNtbf/XzMIhY0D7y/K6uKJ687jZNvH6tEabneuTbruBy83vZQB63tcvoum/20jhbD1csV4707RwGk6mSqfFbfYjdex7Lefh0GC17t2jLbvMMXbbNUa3Wva9TjgEAAAAjBFUEKWQHxVEV5dXZTOA6hrkQP8VL6ObPT81q+bQGyn6DU1zfnumesyEdwOoTAIAAACAMYwKIlwdRcv0AzPqKEVzaiArRf30tHJlWD0GAAAAAHmEgAjDbs7UeI+Y/e2pqjyA7JnG4KZxd7wptmeOacQda1Ke40bcAAAAADCKMcQsBYaY5VhI42DTJ2dVqobHGCJjfYhZcoPwFEwPpOMNDG0EAAAAAIsKIgyPSSXxcKg3qv0ndhEOYUi88oHfuDvap3my1+x7l2oOEQ4BAAAAQBAVRClQQQQAAAAAAPIFFUQAAAAAAAB5joAIAAAAAAAgzxEQAQAAAAAA5DkCIgAAAAAAgDxHQAQAAAAAAJDnCIgAAAAAAADyHAERAAAAAABAniMgAgAAAAAAyHMERMgj0/TIwqd0tOopNU2fZ9cBAAAAAAACIuSPorm6r9BbjJTP0UpvEQAAAACAvFdw77LlV+xySl3Rs3Ypbvr0iNraWu2zsWesn19+MhVE6/VwodTa3qhVbe/Z9fmmQpt3L1elfRaq85C2PH5QYf8ERKoWafVDC1VZaleoWy37WrR374nQ9wMAAAAARj4qiJBHPtOLh57Rnc3P5HE4NDiR1Wu1fX0wHDImq3LFcm3ftkgRuwYAAAAAMLpQQZQCFUS4KmYs0uYfeQFMx74GPbq37z97g2criNJUCYVyjm3H0wtV5lYMvaa9zrG5285wPu9HzueZ0Ojw66r52QmzFgAAAAAwihAQpZA/AdE0rZy+RD8oma2I7c8jRdUafUtb2t/TsR67KsYO01Kzag69IRXN04bZi7W0sNh7uTeq/e3/qo1nPvOeh3G2eaR8se4rLo5VnLT2Hteb7Qf0YrrtnH3PmbpE28tLnGO1+/OP9QPnWO0aT3w4WZjW9l1a1Ra2r8TzO2auz+3f0Q+CxxptdvZnXgs3Z+oa5xiD17OvVPtfsqlWtQvsE3Wraese7Tltn+aKH/QMMMzxjy08uPKHrQ3RMQMAAAAAhhRDzPLaPO1cuF7P9gkzihUprlb9/FrtnD7NrktSWKINt9c676mOh0OGs7y0Yr2O3h42S9g0PeJsc9TZ5uFA4GJECmfrYWe7nVPtimRF3rHWV5hjDezPP9aqWj1SZFflgnN+s+w+n00+1uIq1S9cpjn2edBKc03cY7QrxowK3eMGV6fUGFrVdEJ793U7fyfr5pu9NQAAAACA0YOAKI/NmW4qf5yF3uN68ojXm8d77FLNieNq7S3WDO+tIWZraXGxW00T33aXnmyPei8XV/cNe6YucYMhUy305JFdCfvzt1tasSZkdrF52ukGUc6is+3LJ5K3dY5VxbplkvduT7zfUPBR4x9fv2brWXef0YT9meviKqzShj7nt8YNk0xVU+I2zXYYl3Pedl149ZJ0oPGQWjq95Y59rw1NJc7Nk1Xm/OnoMFVBa1W/u9Y+1mrHpkVaEvalz5git+3Q4Y90wF3hCQZnrR3n3L+lZSXuXwAAAADA6EFABLWePaBXEoaSfaZjZxq06lDqIMNwh0l98EZg28/0SltdLIRZWpxUReR8Zs0R5zMPNTjbBD/X2+5Jd7MS3ZpUCeQGWWah1wz7akgahma2dY71yC5tPGNX5YoJsprrEvZnrot3nNKMwsTqqjmFXjCy/0TyNm9olRsszdb9qSqkfKcP6vnHnWu4rm6I+g/Fla1YrtoFk+0zY7LKFixU7dO12lxlV/lioVKX99wdUlar7c5jx2obCH3SrQ7nT1nZFO85AAAAAGDUICDKY8eiH7iVLZHy72jn9HmaM6AhWlG9GQ0Pj/zP1aSpfYZhxXoaFU3TyqnLtPP2WjUtrNXRqqf0rDtyLLkSaJq+VWKrco6n7vujhMApF8z+GvSKfRZ08nymVUh9JYdKV0Xzu2o6fEpNuxq0ZZ0XRrmPra/Hqpcq1z+gJd5iuKpbY9PkEwgBAAAAwOhHQJTPet7QqiPN2t9brKXlpufQU25Qc3Sh6T000MAohOnjYxd9c0wotNDZx/z1eraiyh2mlthTKNlU3eL28zmrj/o0zB5ZjvV6FT/uMLngtTO9jCpmu4une3MdZGXjrPb87FXtabazkPlOn9DzjzeoyQ2JZuqe5CoiRywMMiGT+75utfyZWcsAAAAAYLQjIMp3PW9oo+nVc8Tr5bO/N6pW02jaBkZNt88LbcaclalrVG9CIdtLaH97o9uLqMb2I/KHbo1aseFnpn+RDdvMw/QyMqujjXop18Pgcu6s/nTINJtO6iVkh4/FndUedyjcHj3fbFf1GYYGAAAAABgtCIjg6fF6+Ww8VKdVppHykUbt7zUzdlVre6qZzFKZVOI1L+49q5PuCsOvorENnA85+2p7z+1FdCyj4WF9exONTF7KlVCZ46wzYVhNn6n4R5HTXXILhhbcmnLoWaTsevdvZ8fQ9k4CAAAAAOQeAVEemzM1TXVQz3va2O7N2BWZFN5ZObFXkG+aHin3hlO1nn2/byDS+4H+kNBk2jdNt9qlRO/pNTdzKdbDs8OnlncVTctdpVO23FnMpJdNI247W5n3qHPDsIzCoRmLtHmbN6tYrPlzTpVo7eqKhNnHElVo9QqvcXVi0HNCbx82f2eqOvS4/O1O6W2/oggAAAAAMGoQEOWromXaXlGt+qpabxhZUdKMXIG+Oa3nw8ZFFWtphe1VZNeYXjuPLFyvh92eQcf1i7AZ0AqrtD24jaZpztQ1ajLbpWhF9Eq7nSbe2bZ+4Ro9MjV4rHb7+etV75zH1eTNYlasW4qzb0S9pHqhKt355M0sY/drbdiU84MQWX2/Vq1Yru3bHtDaKlvpZUWqTDi13Gs+3XlIe5OCHjMFvztL2Yo12hEMmWZUxLdLmgYfAAAAADA6FNy7bPkVu5xSV7TvkJHp0yNqa0scSDOWjPXzM0zD6A3ltidQKu7U8sHZw6bFQqBWMwQtdNuoXj5SpxeTmkrPmV6r+vIUKZCZUt75mT1bPlv7TzzTd8r6omVqml+VpvIlfJ/J/GNwp+gPncLfP7/Un5fyM/o9RnPNjuvN9gNJU/XHLdlUq9oF9om61bR1j/actk9zJLJ6rbbbKqFQnadU9/iroUFP2m07D2nL4weThtcBAAAAAEYDKojy2LEzXoPqmhNmJrPEDtEmyDC9ghLDoaCo3jxutj3uBkW+1miznkwRrBxrq+vzfhMM+T2JXgmuT2ZmXGv2GmknbO8cR2u0UTXN/YdDQ67nff0imr7TdqRwth6uWK+d4aP23Codf6r5jn2v5TwcMlr37nGntG86nNR4urNbLWbq+xThkGG23bLLHKPXyNrjbLfvdcIhAAAAABjFqCBKIR8qiLLTf4VNfrLXRckVV0HTtPL29W6fotQVTAAAAAAADD8qiIBcKJqr+8ywu7DG3DGf6eT59BVGAAAAAABcDQREQA5Fyr+jnVP7zqhmmn4/crvfgylFA28AAAAAAK4SAiIgF3re0C/sdPxLK9arvuopHQ086udX6+HiYq/n0pEGveJuBAAAAADAyEBABOTIKx/EG34nd6+KN/1uoG8TAAAAAGDEoUl1CjSpBgAAAAAA+YIKIgAAAAAAgDxHQAQAAAAAAJDnCIgAAAAAAADyHAERAAAAAABAniMgAgAAAAAAyHMERAAAAAAAAHmOgAgAAAAAACDPERABAAAAAADkOQIiAAAAAACAPEdABAAAAAAAkOcIiAAAAAAAAPIcAREAAAAAAECeIyACAAAAAADIcwREAAAAAAAAeY6ACAAAAAAAIM8REAEAAAAAAOQ5AiIAAAAAAIA8R0AEAAAAAACQ5wiIAAAAAAAA8hwBEQAAAAAAQJ4jIAIAAAAAAMhzBEQAAAAAAAB5joAIAAAAAAAgzxEQAQAAAAAA5DkCIgAAAAAAgDxHQAQAAAAAAJDnCIgAAAAAAADyHAERAAAAAABAniMgAgAAAAAAyHMERAAAAAAAAHmOgAgAAAAAACDPERABAAAAAADkOQIiAAAAAACAPEdABAAAAAAAkOcIiAAAAAAAAPIcAREAAAAAAECeIyACAAAAAADIcwREAAAAAAAAeY6ACAAAAAAAIM8V3Lts+RW7nFJX9Kxdips+PaK2tlb7bOwZ6+c3/ApU/v3xumnKFX36q0tq/6tdPVRuGKc7vzdOhfZpTNdl/eWXl3XePh0+w3z+yCMlWrL6LlUvnKmyUrtKp1S37lUdsM8AAAAAoD8ERCnkR0A0nKEFAVHf8y9QxY/Ha4r7ema6fn9RJ963T64aey7K7FqWVE/QrFn2SUpjITgb2HXJlSWbalW7wD6JISACAAAAMDAMMcPY9NfLOvrTizoYe1xSl30JGDtKdNM0b6llV4Nq1tXZB+EQAAAAgIEhIAKumis6kRBieUHWp26SZSpqkl8bCdVDA3e2MXgOqc6PYXeD0nlIe5v7VnoCAAAAQKYIiAAMWOFAxsXlEa4LAAAAgNGKHkQp0IMoAzc42//NOE2ZVRDr9dPbdUVdBy+r/f3kn1XivqLO85sfcradUuC9bLc70We7gBT7+/R3l3S232O3/X4G0oMoq/0VaNLccbptkbONDQt6T17Wp//9svQ3phdPf9c6i+9kQMfpf36qfkYp9j93vO4MnFNaJy/pYGOq7zHT87Pvi/XzKVBJ9TjdFDxH57p+2Jj8XSZuZ65NRr8zv2dVyt/HUF+X7Lk9iKYd0pbHD4q2+gAAAACyRQURsuDcLFeP16LvOTfMgRt2o9C5Eb/pwfGqmGtXhCj8m/G6w9k2dtNuOMtTnO0WVQfWBUxanHp/s743QXcuDt8uW9ntzwsR7ngwMTAonDXO2caEC3ZFDg38OK+o/ZdePyZzvctv8Nb6Ji0e5x5n79uX+4Q3V6U6xjmPSTcUqMK5rrOSz9G5rnd8f5wm2ecJnO1udn6jA/2dZeOqXJdkpZM13S4CAAAAQDbGR2be8hO7nFJvb9//nn7dddfriy/O2Wdjz1g/P0+BrlswTtc6d93/8+gVfdljV/dn7njNvafArVI5vfeyTrx2WZ/8d/O4oq/GOzfgNzs38rcV6CvnefyX4+/LhCfOticv6/TvLtlt49tpinPDf+6yomfsZoazv8r7zA39FXW9fVkf1l/WKXd/l9V1rkDXOvsqdLYtOJnuHApU/DfjVNh7RZ8fvqL/ZdeGynJ/ZrauyE1mydnu95d1tMlu47zvP5Q7526DhPTXegDfySCuS9R5/Wbn9WvLpS7/etwwTnNXjNN/6LqsY01J1+jMFfdzvccVTTLX0lTb/P8uxfYZe3xgtwmV6fnFfy9T7nT2VXhFnzrX9H3/mjrHf6Nz/HJe/w8Jv5csf2dFBZp2p/NZKX8fKY47Z9clezMW3aW7Ss/p3caTOm3XAQAAAMBAUUGEgXv/kv7yq4s6+kszhCk4ZOaKzr51SSdPes8Kk6pTfL1vX9LRxsuB4U/edn952/usKRUm9PAVqHyR97zr986N/lvB0Ek67xzL0d+b7Zwb/9nB7bKV5f5uMMOfzII3BCk4hOm8c41OONfKa86cK4O8Ls7r7vc0ZZxuc6uMnM97aJwKzfH/bvimaM9I1xWdNE2sg9fUP35HYXHI+TkG9jsbjUoUWf2Aqs0U953davNWAgAAAEBWCIiQlfP+TfcNBSqZO04V1eN15/fHa9GPTZ8d80KBCkvcdyS5oq7j8Rv9oPPO+l6zMKUgPmzI+fwppvKm67I+STWD1/uX3SFTpmopdLjRQGS7vxLnfM3fk32HZg2JHFyXs43eULPCe8z35w0tM2HTsBx/xkxgdUlh83Odj4b/jjwD/J2NJjMWacfuWtXvXqPtK2aqrPOUmn5O/yEAAAAAg0NAhKyYRswV35/g9r+Z9aBtkOzccOdE8MbdD16mjNMdP3b2F/oYLzt6a/Cy3N+kYu9vb9T7O+Rycl2u6MSvLqvXVBk5359pojwap9HP2mgNiJJ0OI9PvUUAAAAAyBoBEQZurmnEbGaGcpbNrFBvX9LJX5lhZ5d08KcXY0N/MPJNmm2DJmOMBCZj3umDenRdnWrWNahuX7fKSmeq9keLFLEvAwAAAEA2CIgwQAWqeNBUCpmmwZd08Jde/xvTi8j02hkUvyqmK9BP56wdDmSmCP/pxfSPTKevT2eQ+yu0lURDLhfXxQR993iVQydNX55YP6IMjdZAKex3lkvDdl3O6sDePao77CwyixkAAACAQSIgQnacm+tooGlwXKAiJZTzemhvonjT5d4PAzfuf72iLtMoZ9a4PlOyZ6W/m/cs9xfra+NsF3p6zmfldDr0QV+XeNB3stE0b77sNtEuvGe8KuZ678hEqkbkI8FAf2fp+hL50/9naiRfFwAAAAAIQ0CE7Nhqk/jNtLM812tU7c3mldqUByfozuC2Nzg37WY79wb8ij59Kxg8XVH7QfO8QDd9b7wqzHYJN98FKlns7PfH48ODmYBeE6iYz0nad0nC52W5Pz+wcV6f5ZxL8DPd6+J8Vi7zocFel5Jq73hMU2qvAbTzeb8z/YjM99PftXTO1R1G6Oz7oXGJ189cz7kDqEIaMgXuebjXxa5J/zuL/z5mVSdt41wrt9KqX6PhugAAAABAuIJ7ly1PvEsK0RXtO4fQ9OkRtbWN3Xlzxvr5eYI3zOl404z7v4JJi9PcMJspyT+UZjmvd/3+YqDpsb+vK86NeEGKahrnpv1X4bNopd2n4ezXzHaVbgaulJ9hhmk1Jv5jkNX+bhinO79npooP4by/yznvKbNSn6Mnfp3Sv8+T1XHOHa9Fpnoo3XmHvJYg3bkm/V5Kqv2Z7dJJPt/+r4N/rO509rGwJ/6bNoHPgH5n/nUJYfbxafF45zz6+V4GcF1yo0Rrt63RKh3SlseZyQwAAABA9qggwoCdf+uS/vJ7E/TYFYYJImxPorPpZvJy3vfhLy/22b735GW30XWqG2+zz4PO65+etEOBfCZ4cW7e/+LsN+VNu+Ue99t9t//0hF0OyGp/f72so3abuPj7P0k7LXt2BnycJsAIDC1LZj7PbTI+a7xb5ZWSPdcuZz9BveZ6/v5yjkOQbDjn/7sB/s7ed65XyO/65K8uugFU+mn1rRF/XQAAAAAgHBVEKeRHBREw1gysAmv0o4IIAAAAQG5QQQQAo13pQq2u6q8LFwAAAACkRkAEAKPWWf3pULe7VLl+jep319rHA1rirgUAAACAzBAQAcAo1rp3j7bsO6WOTrsCAAAAALJAD6IU6EEEjEb51oMIAAAAAHKDCiIAY8gVtf/yog7+lHAIAAAAAAaCgAgAAAAAACDPERDlKTOEDgAAAAAAwCAgAgAAAAAAyHMERAAAAAAAAHmOgAgAAAAAACDPERABAAAAAADkOQIiAAAAAACAPEdABAAAAAAAkOcIiJBHpumRhU/paNVTapo+z64bKP8zavVIkV010sxYrG9sekH/dfev9ff28V831ajEvhxmtvN+732L7Rrkq5LV3m/hwSq7AgAAAEBeICBC/iiaq/sKvcVI+Ryt9BbHlhk1+q9Pb1DlglJNtquMyQu+rZptj2m2fZ7A2ebrzvuNydNuShskXU1ecJHiHJJVPeaFY9tSBWMRfWObCc8y/LwRZ7EetOFf2seAA7+Ibltofgud6v7EWwMAAAAgPxAQIX/0vK83e73F1vZjesVbHEMi+saPvu0GQ92HX1L9ur/TP9pH/a4WfXzoNzruvTHR6YP6uNMsdDrvOaiz7sqRxgYXnZ8qatekU1JW5i2U3qXbZniLico12eQgh98JvyYjXdXdusUuptPd0W6XMmWvS+e7+vC0twYAAABAfiAgQh75TC8eekZ3Nj+jVW3v2XVjyIxFusUNPV7Sv/zsrYSg52zzC/r93lb7LFmr/vS4CZIeS/Oeq80GF599mlGAVVxmwqROdatUt9wdsWsDZtzkBWkDDlBGCOf79MM/NwDc5yZ8+nhXfJ15/MtAv097XTK9zgAAAADGDgIiYCjMWKTN22pVv7tWO1YPz6Ctkrvvcm/uP/7zW96KscRWzGR2bot16wLnz2fvupVRk8vKvdUB/rXq7hipgdjAuIFYLoaF3TzKgzMAAAAAWSu4d9nyK3Y5pa5o3/+WPH16RG1tY+PmKgznN9qZZtLr9bDtOZSstX2XVrV9Zp+FmaY5U5doe/lsRexntEab9Yv2N6Typ/RscVQvH6nTiz3ea8mWbKpVrQkpXN1q2rpHe3I+ZGexHtxWrVtKTTiQToteW/dCfCiV6c+zvtI+Cej8reofr++3csT0AqpZ4Xzq1sf0J3NOM5zj+FHgODqd/f3c2V/S+ZZU1ejuh+4KHG+nug+/qz831vd5b+bnZiSdn9uH6dvSvif0B/2Dc6wdia87Zm/6te5f0Bk/hwQR5/V/cPsyudU0ju7Dv/WO82Zz7coC25leRs+p8rOX9I+N0jeqq93+T+YatDjX4E/OefRZ12d/5to8pm89VOlVSbk69fG+Rr2zN7ESLJzpR7RBtyRfh5RSn1/0bvPdlrqVSL9vti8CAAAAyAtUEAF9eOFSfUU8HDIixVV6dn6tfjDJrrjazHCgjAKURLH+PEm6M+w/5FWrdKjrtBcW/f3TGxKDHLOYHIJUPaaa9d9OCnxK3ebZ9z/9gh6sShoGNpBzS+5LFKuCadXZjg5nqVK3JszIFdGUaeavdw4JTLi0+zndHwhPjNhxft0Ea8Ht7NA33a0HbXNwV2mlbql+LNYw3F9XWZ3cNNoEYb92rk0wHDJKdcuKDapJ2WQ7wB8Wlkk/pbTn95judhtUt+gjwiEAAAAg71BBlALnNzbNmV6r+vLitBVEK283FUJmKar9J/5VG89475tTNE8bZldrqRsapa8gcoeY/WihKp377Y59DXp0bybRy2DYKpIMq4AS2IqizKpGbMWMnP387iY32DANsf/Q+JbOuqFJRLOrpOPNwd+W3aa009nHf3P24b8WUUnVd/UtE44oVTWPMbBzS6xwsts6x/iPP/OHp4WtM+x6s+js67Wfxyub3Aof9zgdweOw1UpeQPOS6k3vp2CFVvK6sOPwq4Xe8a+hY8ZifeNHG9zfT7/fi/3s7n1P9NNzKIvzAwAAAJA3qCACgoqW6Qc2HDIBkB8OGcd63tPGQ7v0sp0JLa3TB/X843WqWVc3DOGQYxDNhb2Kokz71/gVM3fpW+vL9PGuJ7yG2LFgpzUpHArofFfvJLzW6jbP/pd1T+i1lOGQY4DnFqxwkt7SR4edPwvujk9nbz8vuc/O7E02PDEhzuOJw97c49zV4j0JHoetVnJDFXMdzPInn6o7eZ0V3Ke3vxb33H9vhpIFz//0W/rTz3/rfs7kspAm2wF+RVh//ZQyOT/3uGlQDQAAAOQlAiIgaFKJ3Nvx6Fupq4NGoqybC/vTx2c4rbkf1pSWqnvXY4FqoHRa1WVyttJv61ubFqukz7TzrSE9iALsuQ2oQXVg2NnxP5tgJzDMLDAELWZGjb7ubueFOukEj8MPZz7+XaDixj/ewLq+IY49Tue47n/61/r73SEPvzIpLfv99TcsLMPz864LDaoBAACAfERABATMKfQ6vrSeP+P+HS1mu71xOvXxO5kENkEDmz4+Fq7se2JATYyP/+wJvXa4U5MXbFCNG4i8oAdXL+6/v47DP7eMKpzCqo2a39HHzp9bvu71/wn7vNisZmn6MIVVWoXNHhb2+d77AiGOnZVt8Oz3l9yHKUnm5xcMsQAAAADkEwIiYNRL03S5PwOaPn4wQVSrjv/sMf3j1if02j4zlMk2YXaDonRDqAZ4bqGVVCHDzJI+zw96Up+XX6kT3M6vAgquCzvevlVNscqjXX+nf1yX/pG2r1CGw+8yPz8aVAMAAAD5ioAICBGZNNUujQaZVZGECauKSW0QQZTvdKuO7zV9h/5O/7j1JX3caYKif9A3+gw789lzy2SGLod/PslBiDfMrExTZthzGPC1CrnGfjiTcGwhx5smxOmvv1C/QgOxbGT/GwIAAAAwNhAQAQHHoh/IjRaK52iluyZJ0VTdEpj6PiUzi9m2WtXvrtWO1ZkMpBqEDKtIwiQ2dO5PNiHCYj1o+g7ZZwlOv6Xf/84EN6WafLO3qg//3DKU8nzcxtGluuXuRe45hA+1SnUckXiD5+A1DgtnbEVWwrqQ93nT70uTFy5KOcyupCrS7xC8gVV0DfD8AAAAAOQVAiIgqOd9venOUjZbzy5co5VF7lrXnKlr1DS/Wkvt83SWVHtT3BtlK+7X2pQVMoPn95fJdJhYnF8RVKmvB4Z5lVQt1uyw480iiCpZXa1bTN+hbS/oweTAY8ZiPfiQCTgysKBa33C295WYaeA31QSGjBlpqoNOH9THnSaQsb14kvrsRDucFx23rH8s4dxLqmr04LbndL87lCwx5Anr2ZPpOr8vkmncXbPNOY/gPt1ze0E165/T3X5j7VCZV3Rlc34AAAAA8kvBvcuWX7HLKXVF+94OTp8eUVtbJv/VenTi/MamOdNrVV9erNb2XVrVFp/CPkHRMjXNr3Juv0P0Htf+87O1tNibBj/VTGdLNtWq1t50O7fdatq6R3uyHZbVj9mbfu3c4HeqJd1U8SmUrH5BNStskhVgeuP0aUJd9Zj+fn2l26A6bV+cJKn2EXP4pT7TwcdF9I1tz8XCtmQJxzmjRv/VzPxlpnEPmakrfhxh12qxHtxtq2iSdbbotUNlun+FErYLu+7eOuf9616wQ8z84w+us+z1TKXbOY8/JFyX9NcixsxU9nhgVjXXwM8PAAAAQH6hgghI1vOGVh1p1MvRYB1KVPvbG1VzqEEvne9/gNWBxkNq8Yo21LHvtSELhwZSRRLm7N7/5s4uFtepj/e9pHdCGhWHVsJk4Oxe05z6JbU4++m264zuTmdfu55IEw4ZrfrT40+42wZ1m1Bja1KI1U8/nrPvvGv3H3at3tLv7THG+Mf3+Au2Iim4Xdh1D6tgSjMsr/kF24cp6dwO/9Y9t3/pc13sZ/UntMJroOcHAAAAIN9QQZQC5wcAAAAAAPIFFUQAAAAAAAB5joAIAAAAAAAgzxEQAQAAAAAA5DkCIgAAAAAAgDxHQAQAAAAAAJDnCIgAAAAAAADyHAERAAAAAABAniMgAgAAAAAAyHMERAAAAAAAAHmOgAgAAAAAACDPERABAAAAAADkOQIiAAAAAACAPEdABAAAAAAAkOcK7l22/IpdTqkretYuxU2fHlFbW6t9NvZwfqNc0TI1za9SxD6N6W1WzaE3dMw+zZ1pemThej1cGNXLR+r0Yo9dPVSG/fxGswlau2ayVl0vdRz5Uo++c8GuBwAAAAD4qCACMMRMQDNV9T90HmuK4qHWbdd665zH5tvsugSB7dI9gp8Zpnii7rreWyybP1FLvMURxJ5nf+cxKBO12V6vHXdPsOsSRe6ekvZ1JMv2dw0AAACMTAREGJt63tCq5md0Z+zRqP32pTFhtJ7fuYvqW7d2SZ902cWhEL2gd895ix1HLuiAt5i3yuZPGoEh2Sh3NX7XAAAAQI4REAEY4S6p6TdnVPNPKR4NPSE350EXtafBey/Dy4yJqqZKCAAAAEASAiIgn81YpM3balW/u1Y7VpfYlbl2UZ/aCp4EXZfUYRfz23jdbIfADbnWC2px/oz5KqLiIm22w7+Gbsgcv2sAAACMLQREQCpF8/TI7bVqqnpKR+2jaeEaPTJ1mn1DanOcbXcurI1td9RZ3tnfdin2t7LIvj4EllQvVGWpt1y24n6tneEtD5WOc5fsUpBzox21i4OWvm9Rf2GB14dnitYW2xXFE7X2m1O0I/gZ35wY0itogpbcfa12JOzb2c681/+soNuC771WlWbd9ZO0PbZt4OF8Ru5c0N4j5jvIoooo7FqsuVZrb+v7OUu+aV6/VkvM9+Fs471/iu3JE7YuRIr9LQm7nkmWVE5SZazvlHOMGWwzGEP/uwYAAACGHgER0Mc0N6g5Or9aDxcXJ4QBkcLZerhivXZOtStC3FJeq3pn26WFgbtSZ3mps93R2+fZFYnmTE+9v2fnP6Wm6f2HUiNZm72B7uy+6P51RS+q0/x1XmtzV4wsblj03Wu1KjJeZXadYZYTh7RN1OY1k1U7f6LKEiqBnO0i12r7d6doc0gYk/jeYXK9cxzv9AywisgGOmHX4vqJWnXf5JRNxqvN7HHONp7xqlxQ5HxW0rr7TJCUKOW1d/ZX+92hrAoamNH4uwYAAABSISACkk1d4gY1rb3H9eSRXYFG0Lv0ZLtXErC0Yo1WukvJirXUbBttdrbtu52Kq/uGS1PXqL7chElR7W9vVE1sf8+o5sRxN4yIlH9HjwxBJdGBxkNqce9mpY59r2nPaW8511qDN9Axl/RJ2BCdQYn3Gwo+trhVM5kar5srr9X2+eOdm/wLqvtNd+CzurWlJbGPUeTuIq9axX1vcL/Oe9+8oI5z42WLtOI+/DLwvi/dwEbnzmtLbF3g8cdc900aYBXRbZPcoKYj5FrU2esaFvK4Adn1fv+objWZ7/p681lJ65zjuCcYMN1mr73z+2g58mXCNXGvp/NKf1VBB1rOq8X+tjqcz9gzRJU8w/e7BgAAAIYeARGQ7EyDao48o1WHGvRKz2d2pfGZXmmr05PuzWaJbk0R2LS279KqD95wtrUr7HY1frhUHKwimqZHyme7S/tP1Glj23s65j7zHHOOZdWJ485Sse4rHoIqotMH9fzjzrGtq9Oje8/alUMlxaxOoTNABY3Xqu/GhxklPHI6/CquMjJRHUe6VdPwpQ5EgyGAc6wpwoaO1vPOe+0Tl/PeD7/Uow2mOXZYkHD1tA6kisg5hy2/cc4h5FoceKdLde6XN0E3hQQ28XDmov7U6oVJwXV9e/hM0NoF3nfa8maXnn/nQsJvw72eb5rAbLzuujVNuBXt0fOxxuRDfe2z/V0DAAAAIwsBERDimB/uFE3TyqnLtNP0BrI9hZ51b4SLdcsk9x1JonozGgyV4o5FP/BuGCdN1Rx3jaNoru4rdP72NuulM96qPs4cc6ewj5TMjW832rgVM11JlRy22ifnFTI50PplxsFC60fxqpbNd6foOTTiDKyKKBaKFU/QktuKtNn0Blrj9RGqdcdEjtfNU9x3JEgYemUF1/lDtGKKJ+outxrrvPZ+6K3q40PbaDsS1gtqmI223zUAAACQBgEREGKOCYUWPqWj89fr2Yoqd9hYJNhTaDAKSzTLLmpSiXeTW1il+kBz6sRHtZa6b85Xaaa5H6Kb8PCmwylEe/Tob8yQpvGqnG96DtnqpjWm99DIDYwGUkUUMaGQaar93cmqvW+SKk1voOv9PkI5NMX2HErVsNt92KbeAAAAAHKKgAhIZnoCmVDIrew57vYFMr2Iamw/Im+IGRDgD2n6jenLc0Et5y6p4/p4YBQ+89nVllhFFN5Px2F6AplQyPZZMn2BTC+iLbYfkTfEDAAAAMBoR0AEJJinnRWmJ1BUL5/YpTsPNbh9gUwvomMJ/Yiy4FcL9Z7VSXeF4/xZb9hZtDHWmDrl49AbCf2JMAJFTV+eL/V8Q5ceNRVOv/nSbZZsZjPb2N9QruvHa7pdHC6xKqKUw7UmavN9pifQJTW96fVkMn2BTC+i1oR+RDnSdckdrmeG+PWpFkt+NPTQ4wcAAADIIQIi5Jfg8K50ej/QH86EBULTdKtdCpeqN1G8GXXr2ffjQU/P+3qz1/lbvDg3s5Rlen6+GYu0eVut6nfXasfqErsSAxG5LU11UPSCnj/sDYPrf0hWeKPnoWWriK6fpNUz7aow5y7oTx+GBULOMdulnHCu17umcXWkKO0sZf0qtkPifjhypsQHAAAARjoCIuSJM/rYBDGarR9MnxdoEj1PK8OCmcIqbQ++T9M0Z+oaNS1cr4f7uXFdWvGUmpL28YjZzgxZ03H9oi1xZrQX271Zyh6eX6udZruE45mmldOd/ValmlbfN8Dzs5ZUL1SlnYO9bMX9WjvDW0aGiou08b5rtf2HU7xhZMWJYUSk2K/ASdfX6ILedkthxmvV3xZpSfD35TaFHtqAw68iMjO3pXT9JG00/ZTsUxMMRW67VjvWTNaqnI6du6g9bqBmZq4L6+HkXI+7nf3+MGxa/bgllXZInKO/KfEBAAAAeAiIkCc+0x/Oes2DIuXV8YbQ86v1bHlw2vn39JKdjj7hfVXrVV8x27lBPq4n3UAnlahae/vuwwuHonr5SINecd8XYKbVd/dZrKVmu/n+Pr39Plvu7Nf5zFTT6nsyPT/kVLRHO9/0GlSbYWTbvzs5oaHy9u/ahsrnzmtnmlnRDrSc94ZWXT9JtcEp/W1T6H6noh8UvxdRmPhrJmiJN46erO33TVSZ87rpuZRTZlp9d59JTb/tfmvnO/s9p6tQbQUAAACMbQREyBvH2upU0348sW9J73G9HE2cX9593wnnfW5FjmXeZ3sSvRJcn6z3A2059Eyf7VujzXrySJ1e9KfPT2L2eeeRRudYoknHF3WbZNc4+021rS/T8ws60HhILZ3ecse+17TntLeMzLV+6DWo3uIGRYlBS8e5C27vni399ctxZ0Iz/YrCtj+vA/b5UPGriMK0vtPlnNsF51jsCsOel+lJdKDbrsshs0/Tv6mp1fYk8jnXxzTJ3uLsN3Fq+UQmcDO9n4wO5/3p3gsAAADAU3DvsuVX7HJKXdGzdilu+vSI2trS3vKMapwfAAAAAADIF1QQAQAAAAAA5DkCIgAAAAAAgDxHQAQAAAAAAJDnCIgAAAAAAADyHAERAAAAAABAniMgAgAAAAAAyHMERAAAAAAAAHmOgAgAAAAAACDPERABAAAAAADkOQIiAAAAAACAPEdABAAAAAAAkOcIiAAAAAAAAPIcAREAAAAAAECeK7h32fIrdjmlruhZuxQ3fXpEbW2t9tnYw/nlqaJlappfpYh9GtPbrJpDb+iYfYoMDdn1nKZHFq7Xw4VRvXykTi/22NUA+jFBa9dM1qrrpY4jX+rRdy7Y9RgtIrcVafWCiaq8frxd43yX5y7o3cPntefDi3ZNMr53AADQPwKiFDi/PDXWAyL//NKcz5zptaovL1Zr+y6tavvMrs3SmA6I5mlnVbWW2meZ2H/iGW08Y59cNfbaaaT+puM3sjp3XlsaeuT+m+q2a1V/30SzpJY3z+j5D91Fx0Rt/uG1qrTPMpG4fZ4pLtKO705Smfvkgur+6UsdcJcxKgT+Oeij9UvV/DFF8DPiv3f7z70C/8xjDBvov+cBAMOFIWZAUM8bWtX8jO6MPRq1376ELHA9MRjnLobcKF7SJ112EQMXvaB3z3mLHUcuEA6NKhO12d48myqgLf90RjX+4zfdqmu55L4Wiu8dIxX/ngeAEYWACACy8p42JoRf5rFLL/ea10xlU/JrI6F6aCy6oOeDN8ruo1tN7s3wJTX9Jvm1fP+v0he1p8G7DgwzGmWKJ6jU/D13Xjud7y7hpjp6UQecR2p87wAAoH8ERACQV6bqlkK7OFAzFmnztlrV767VjtUldmWuXdSnttIhQdclddhFAGPNeN1shhshT/DveQAYqehBlALnN9ol9llR0TxtmL1YSwuLvZd7o9rf/q/aeKa/Hju2z8xAeuY4+3qkfLHuKy6O9d5p7T2uN9sP6MW0+5umOVOXaHt5iSL+cSqq1uhb2vLBe6n3nWJ/vzjeoFeSe/PkoAfRnKnLtKG8yrmWdkUmxxgz0OvpX5PZzjXx1rRGm/WLduc7LX9Kzxan6UE0kOtieeeu+GeGfUa0Mc25ZtEbaUDH6X9+qn5GKfY/dY2aAtcwLef87nTOL8ySTbWqXWCfqFtNW/doz2n7NIeWfHOqap2L0XGkW4++Y6siYj1UMumf4ve3MBVEXdoTtauT+PtJ3+vC/6zgfhP7pah4olb/bVG8afC5S2o5/KXzmWkqOpxt1lYW6a7IeNsXxjnfcxfU+G/OPlIc78AF+nyESLi+CRLPr9V5vuSb16o6eKyt57Xzj7npFZP99xDnNW6e5HwHdoWcG83WHucYkyptDP+3FOx9ksDfV/jvJ3L3FG2fr/hrYd9l65fh+x6gyN3XauP8ibHPTSmh/1C237sn+/Nzfid3T3J+J87xJn8PLc57k3/Xt12rHQuC700jXX+ljOXgd53in9uwBuHe79r8Xs/rJmc/q5xtzPVoebPL+Z07x9JnnbtZomH598TVMfh/zwMAhgIVRBjbCku04Xbnpn9+dTwcMpzlpRXrdfT2eXZFLjg3586+jjr7ejhws29ECmfrYWd/O6faFcmK5mmnc2NfX2Fu4gPHKedziqtVX1WrR4rsqgATaKTa37Pzn1LT9Gl2TS6Y8OEp5xiD4ZCR/hiz54Ud3jWxqxyR4irn3Gr1g0l2RYhcXJeUn+E8+g+2MjPw4/xMLx7y+jgtreh7vedM/44bHrW2/2ufcCqjcGiEaDvn9VLp7A7ccEUvqtP8dV5rc1cM3oGW8+5/ra5cUJRw/RM4N2h3mRvY1pC+LdeP1+pvOjfT3702YUYps77yvsmq/2Z4M2FzA17vbGNuDoM3/mXXT1Ttd6dqx90T7JqrzDmP6c75b3ZuqmuTjzUySdvXpLluAzC478Hc9E/V9vuC4ZDhHG/kWm3/4RStDf4rNcdSfpfOY7DhkGdCwucOt8zPz/5OTJgV9j18d4o2h/yuMwqHci2r37UJdFL/c7vK+ed98212RYIJqjahlLONx/l3g/M7X/vNpHX3Xasl9plv1Px7IkvD9e95AMDAUEGUAuc32sUrLQy/6sSryJimlc6N9LPl3l1D+pmlBlDxMnWNjlbMttUfB5x9+dU3wf0d15PNDXrFe8EKzIblbPtyQqWR2XaJflA+W6eTj9Puz1Tw7G9/Sy+1xata5jivbTfBitsLJ1BJkmpWsRDJFURedY05B2d/JwLVV6YCZna1vdZh5xeU+fVcebupEDJLifub4+xvg7M/L6QKqdTJ5rpY/jnujx7X0mLnM5zv48mk73JO0Wc6lrRdXIoKnjCDOM7YtsHrmEF1mGegVVwBZojZjxaqslTq2NegR/f2/d+GnLAz2SRWlCT/1/907Hv7qSAy+qte8V5P/hz/871npuqgsaXH/hd9U0VxrXOj7N389fnc2Cw9l9RypEd7A71kIs5rG53XypzX+jvuwfAqRMb3X0EUu3l3jufNL2MVEuY4t+d4pqHsvof4uXhVGIGqLVN58bfOzbV7DknVCDmpIBqvltYLqow41+Gc8/n/dj7QA2iCIsUX+1bMDFa/x51e/9+7J5vzi30P7nuD1S3Oe2+bpI0LnM9pTbdfOxthlueWmUH8ru0/t171TuK1iP/znvg783/T7n7c31Fw/33XJexzBPx7YsjZc0y81vZ6MJsdAFw1VBBhzHODjg/8cMj4TK+01amm3fv/qpYW56iK6EyDao48o1WHzNCgeLDi7+9Jd3clurVP1cdiGw6ZG/aGpGFoZtsGrTqyKynEmqZHyk24YAKuOm0MhAvGMedYVp047iwV677iHFQRFS3TdhsOmcAiYWhez3t68ZDfnHm2fpCLqiVnfz+w4VDy/o45+9sY21+y3FwXEw6Z382dId9l6nBoIAZ5nM7r7u+psErb3evtfN5sE/w51+v4AEOfgTh9UM8/7vyzs65u6MKhmBSz2JwLm/Eme7HqlZnejWGiibrH3OA5N4V/SnET5t5s/9EPh4yLOvBOl7Yc8f7reOLnOjc/5kbZ4Q4pSWo03Prhl3r0TTOMZrzuunWEVAeYG/5/cm5CA8NnzHHW2QMvnZyb48zqeygu0kb3xty7UU4Y0he9oD0NfrPyiaoegmoLE56Y77+mwQQiweBjCMKhqyCb8zNhaeLQJ+e95nfdYJpjBz/jKhvo79p5bctvnHMIuRbmn3dvuwm6yf3frURmxjkvxLmoP7V6/14Iruvbi2cU/nsia8Pz73kAQOYIiDDGRfVmNHiDH3cs+oH3/4BMmqo57prBi4UHRdO0cuoy7by9Vk0La3W0yq+GKdYtCUOjpulbJTZ4SXdjnxBSOIrm6j5TQdPbrJdSVT+dOeYORYqUzO17fiaMSpphy3/4wVmCSSVe1VH0rRRVMZ/pxXYTaKTY30D1u78UBntdfNHG0P5LOZOD43zlA2+oWaT8O87vzBtaZsKmAV2vkcq5AaoxN29JN5ruLEyD7kOSxJ/+O1LUdyjSbRNV6fzpaE28QYu7pHc/Cr/pbf3ogtds9foJ3m/Z8IdJnTuvvamqbj68oBbnT5lzcx7b7qq5pCZTDWKfBfnDQ3Imm+9hih1609qToorC+c0c9n4vQ3I9W50b9ZEUeuTaAM7P/72Xzb9Wm+92rnVIUDJyZPe7joVixRO05LYibf7mFO1YM0X1P/Qrhcbr5inuOxIkDKGyguv67HPU/XsiS8P573kAQMYIiIDCEs2yi4NlGjjvXPiUjs5fr2dNrx7TWyahp1Ayf0aps/poIDf2foBSWKX6Kmd/oQ87bC0H5jjXyGg9nyrNcJw/69285eB6ZrS/MDm6LgPe70Dl5Djf08Yjzc41L3Z/ZybUYhr9bPghQvJ/jff/K/4FNQ4mBDD9TuxiLNC4fpK2OzeV5say7+NaNwzJPwP/HiK2yqMjXVjlz4oU/B5yJO1+x4ABnV+0R4/+5rxazo1X5XzTc8j+nteY3kMjPTDKjGmEvnmNc07fnaxa0/PK9AZyflc5x78nAABXEQERkCtT18QbOPce1/72Rj15ZJdqnIepzPGGmAG5M6f49vh/Pc5hJVze+fC8OxSpbP6keKPYlE2RMWT4Hka3aI+eN9Ufv+lW3ZELajl3SR3XxwOjHd8cxdUubn8i2wj9nHNuR75UnXOeW5xHzT+diQ1NAwBgtCMgQv7yqzh6z+qku2Iw5mmnbTj88gmvd43pK2P61xxLHh4Wqm9vorT8ah0zJXnSELE+j4E2Ik4jMinVNGyOnF5PT9r9hblK12XAcnGcJpA0faGcz3jSDAuM9SPKUA4r50Y/vzfIRN1jZyKK3GqbwLZkOdTBrwJwbpJjs/H41Sxmym7npjLtIy8btGb3PaSt4gj7HjC0oqYvz5d6vqFLj5rf8m++VIsJ/iLXamN/vaCGoNJr8CZqs20Y3fSm15PJ9AUyvYhaE/oR5Qj/ngAAXEUERBjzEnv++OJNglvPvt9/UJDpzXTvB/pDQpNp3zTdapcSvafX3MqiYj08e1nqCpCiaYmv9byvN02T5uLFOZ5aPlysX1PK/eX2esb3N0cr3TVJivyheUmG+bpkbdDH6QeSx/XkB+/plbZ/dZt2R8rXa2fGmdoAQ0nDzGK2rVb1u2u1Y7U3DHCsaH2nx+3p4U21PkHfMFNQp2lO7QvrORJsMpvQNyddnx24BvI9xPo8pbyeqb4HO5V2ijAicrc/+xkyFbktTXWQ87t/3u8F1e+QrPBGzyOC+R0GG6HHOMdsl3IiV/+eKLZD4n44wCnxh3s7AMCIQkCEMa5YSytqtXP6vHjAYqZlj02Bf1y/SNuM+Iw+dmfLMrNzJX7GyrCba7eKI/A+TXOnLG8y+0vx/+i90m76yDicbesXrtEjU4NVIHb7+etVf3twtjW/KXSxHp5vzy/heMz0+M52VWvCA5aB6nlDv/CDLLO/4DEOxfX0AxTnfc861yT4mnc9UvXnGebrkrXBHefK273z33+iQa+4a5zPO+79jpZW9HduiaFkwnV3m6unrkJaUu1NcW+Urbhfa2d4y2PDBe01M49dP1HfuNsb1pS6ObVvvCrvsz1W7Bp3evXYVNbJfXPifXZWfTesN4s3ZfaOH14bH2KVdwbwPUR71Oi+YK/nbYGb0rTfwyV9Ym7ANVG1wWFPxRO09pv+tPnImJlN7r5rtf2HU7xhZM51DIo434VXgeN8lyn7Gl3Q2/53+bdFWhL858JtCj0CAofrJ2lj8J91559XM+X8DvM7S5mOZSM3/55YUmmHxDlM8/BMw6bh3g4AMLIQEGHMa+0t1tLy6ngz4PnVNswwU6j7N9ipfKY/nPX+03Uk6TOeLQ8GNu/pJTv7V8L7qtarvmK28/9QHteT///2/gY2iitN9P8fBl/x4hHB2OxiE6AhAUJGuQE8MORaOIElWSWZBGsRyMxKV8zVECXWDERwkSCaiD9KFJC4oAl3/iYaRhu00gQLlJWdDIlmmQ0KiF8YGAO50UwCIdCYYGcutO3wW/OiP4T/OVWnuqu6q/rN7beu70dqqK7u6qo6Vd3uevo5zzGjfKXo+UiWWsWGlVEz5aczVptl3curbb38mfX0OD2svrVOs3+znWXs5V6fpJa7KblniQR4/wtnaHkddHNtY5+0ZyLgodvkdde+We2hazzZL5Oqn9slb/lu5/gV9oh4yUWp1Xm00Xo91V6eYGIqd1DS3bZ2cfXaAQ6eDRw7e0VdlM0eLVUpQQV/7U5RXqd47DIn++SutLzrM1KSHi7bGgI/qZivdSuThtkjpKpbBm8WRT/I5Tgc+XdnKHsdrCtLtGXa4+BcgCsR97HTF/rDraHdqSmTg1iP7DpsF6jW3ci2qXZMnNPj1X1TULn7huxKdyxbb5iC4qOlwf2+MEWhBy5oaoKWig58JApHl8m2RboL5G2r5lJB8TkBABggBIhQ5GJy+OxrUn/urESt4IYtGjsmvzyT3ZDgn7c1qgt5tby5b7l5Vt6OeYeMsp6XtB7reaYm0fvu+cl0kOjYHiuI5FlebX801iz1x/y3Va/z0TPNalvU88w8y82YVSS7Xq23cMOefyO/OqXb8ph8nMM2Jsu2Pe3Amb1vCYn92n0jKELU3+2Sv5y3s3SxtLi6liXTr2cVQy+vk5Z09YhM236s1uMWtc7XI4FBviPNp6TV6psj0n7wkOy7ZE8XDyeLQcmqKPJdOfkfV2Xj4dvSbgUpbO3RG9L4bvLwzQnRE51WXZaWqKk14ui+axW/3bj/euCy4ZDLcbhjDYu90QpQmFkW1bZR1ZYpw2gb+gI86bjpLkSN7161hnYv+DD+RS76pV2g2j4O3rZrV+2qa/dszFQvxxoJTdcr8lv+xoAWKdfvWb/zxalJdKTLzCug3n5O6ICb855oV8/P9jOlv5cDAAwuw55YvOSemQ7UGbtmphImT45IW1vaP/VDGvs31E0w3Z50Vkt2gQsAqH1qvDREdNZJcIBHd/Gwuy9leh7yld1xAAAAQCGRQQQAgFZeKnW6loguRktQYuBwHAAAAAYEASIAQOhFppfKzmW65o1I62mGjh4oHAcAAICBQ4AIABBO5aWy0xR+3bbIDkroujXbv7QfRj/hOAAAAAwKBIgAAOE0brgVjLDowq+Hu2Tdvxd4NCJkxnEAAAAYFChSHYD9AwAAAAAAYUEGEQAAAAAAQMgRIAIAAAAAAAg5AkQAAAAAAAAhR4AIAAAAAAAg5AgQAQAAAAAAhBwBIgAAAAAAgJAjQAQAAAAAABByBIgAAAAAAABCjgARMKhNkJfnviqf1jTIy6VmViDnua9Ky+RHzLy+1N/r62/F1J65nEf9YbBtj1uF1C5/WnZubZCmvc7taak1jwIAAADFigARUCjjV1gX95luLZMnmAUKrPRhWTTKnoxMmiXP2ZNpmIv0uYtllpmTk5zX118SgZa0t0z73d/7N2jbM1xq166QhmenSlWlmQEAAACEBAEioFj0/FUO37Qno5c/l/ftyb7T3+vrb7RnCFXIRBO/bd2zX+pXNZrbh3LEng0AAAAUrWFPLF5yz0wH6oxdM1MJkydHpK0tau4VH/YPOdMZRDNmitw8JvWnPpLPzeze0dkwq+Wno2Ly9plG+VWPmV0Q5rWlkNs7GPRlmw1Vg61NBusxqpCVW1fIUjklGzcdFz4hAQAAECZkEAGhNV6mmS5NwKA0ZYFsMLWAdi6vMDMBAAAA9AUyiAKwf8Vj1vjF8tKkGnk8HgyJSTR2VDZ+8ZlP1kxyVs0Eee6hf5KflZdLxDwjGjumlvXJuOlVBtEEtZ21sm3STImY7dTr+e3lj0QmvSqvlydnWjgZGOZukujlPbK07Rtzz0VtY4trHWnFmuVR1Ua2PNfXm/Y0ZqltdreLH+/688lO6e/9y3d9DrWeybXyswp3u5jz+rI6r1P2OblNcj8OUvqIvDxpoSxyL3PzrPz27H55P7CNcz2vvWrXNkjDHHNHuqRl8z7Zd8nc7SPWOieQQQQAAIDwIYMIRUxfFL8qTTPcwSFNXeCW10lTuhGURlXIg+qCeJe6qH7ddUGsRcprpCnfws6+7Iv3phneIIhez+uzG+Rno82MAskqOFRoebbncw81pLTLoNSv54tZT0rQzJzX6pzZla4Q+ujct3PW5Ab5dHad/DR5mVEz1TkaVHi9f8/rgqosk8lmEgAAAAgLMogCsH9Dn76obZpUrqZi8vG5f5M1V01Ghs6EmKkudq2L1rPyy2P7XQWBkzM7YvK2WvZXZlmdzaIveLWPz72mXtOatDkZRGmkLKM895DOpNBT3u2cpbbzJbWddnAru2wYZ58zZ6Boj8iuGvX6vaiZlHl9hWjP5GUWy7YZNRJJOXYOZ53ZtVk6fbp/PrI5fvHz+qbaf0/2TiJbR64lL1+Y4/Dx5aOyuy2ReWdld6nHIvr1ktq6IOe17mL24lyprhRpP7hf1h1I/VtUaHbW0kVppDA1AAAAQoYMIhSn0sXqQtkODukL0HhwSOv5TH51ao+8bY0YNVN+FpRtoS/Aj6mLV9eyn1/dL7+M2dNTRhVguHq1nT8zF9HJ2/m52s418e0sAjm256xRds2Zj88lL/ORLD13Vk3NlCfH2/P8lctPZ/sMb69vDz1inlNA/XG+uESvHUnq2vWNtb6lp15LHxzMaTsnyMs64KTo47DGFRzSrPVZx6JcFpW7livUeX3puGzfZI8k1vfBoQqJLH9a6nSXto4uabNnAgAAAKFBgAjFabS62NP/x44GZCd8I7+6rC9sRSIVD/t0q1EXtjo7w9xzO3/DXEkH0Rk5x16TR31uKRkkGbezWPSiPdModNAlf32zf34+j31h1caJTPon2TX5EZkV1E3SV47bWfqwLNKZPuqc3h2U/XT1c/lY/ed5Hw2l83rKAtm5t0Ga9q6Qbc9OlaqOi9LyFvWHAAAAED4EiFCUnOyT6I00fXpuXLMvAnX9GGtG/8tqO0Pq85t2xsjjM1bIc+4giK71Y7pDXbqZJlPGyl7xD9Qlim8PQT0fydIzx+Tjm+Xy+CRdc8hkRc3VtYdyDRhl4AR6RtVIU3IWVvxWJ49bT04Yyud1u7pdsScBAACAUCFABGBwind7sgshxwMSs01AItYcnNVS7Ho+kjWnXpNHz+yRX14+Kx/fjEl0VCJg1PLQIwUsil3kLh2Xdat0N7b90niwS6oqp0rDiwvswBgAAAAQIgSIUNQio9MUqXGyI25ek/PWjIGTdjv72gBmUGVmd3vydvfRxZKbpf4Lbz2cUOr5Rt5v2y9rTjXKUp0ZdaZZPr6pzqfyOtmWbiSzbDlZdrFm/0ws982n0PmAntc5uyZHDuyTxtNqklHMAAAAEEIEiFCUnDotUr4wYCj7RPHd6LW/DligIbGds+Q5a06S0vEyLT7yVF+pkAcK2S2pUMavsEbB0t3ErOBH/JZaLDlMZo1Pkx2kC0A7tbUKEZzp+asc1sWkA99H/gp2XutRzLbq+kANsnO53W0NAAAAQN8gQITi1POR/NZKPtEjWTXIrvHuEZYecQ35fVZ+m27Ep77mXIDrblRzvbV29BDiLU53qj7xmRxy2mjm4qQ6PxPkOXebDQC7jk25THOPjhV2enS+GXXSVNNgdyNTx8lNDyHv1GcqTP0fp5i7eR+l1DhS58lkdZ7WqHPXzLEU6LyurbOHuNeqnn1SVk6xpwEAAAAUHgEiFK33v3CG0i6Xx2es9tSwsYNDuoix/4hOvZK2oK+6eYZYVxfgZ4/Z2RajvLV2mtSFfuTmWfnYZ3CpQnn/srPumqQ6P6vl9Rm1/tkf/cTJQnl8kuvYJd1a5q6Qlwc4kNWvej6SjefsAtW6G1mTOk7u9mhyAi83j8nGQgU+r+6X+sv6JEwqim3d1HkySZ+nkpSFNrDndf4qZKI+nRjmHgAAACFEgAhFTF2knnpN6q0LajPLEpNorFnqjzUOjiG4rVGpmuXtmPuK2dTZObVfdhd4mHQPs25d5Ngtqi7g3z53pPDBs1z0/FV+62mTVJFRM+WnM1bLrqFU6qaXPr9qF6i2z2u/47ZHnTep9YB64/O2Rqu+kT5HraCPQ63fOU9T3ksFOK+PNJ+S1g57uv3gIdl3yZ4GAAAAUHjDnli85J6ZDtQZs4ebdps8OSJtbZ5LhaLC/gEDaYLdDVCOpQl2TJDnHlpt1SmKXt4jSweyqyCKRIWs3LpClsop2bjpuDcYBgAAABQ5MogADD6lD8uiUZkKiH8j5/syuwrhVTlXltdQFBsAAADhQoAIwKAVmfRPVoHx5FG7dDHmlx9qkKZJ5ereABcaRxG5Jp+c6rKmqlevsEZPs29PS601FwAAAChedDELwP4BA+u5h161uo+lpWvunPWpfwP0QmT507Jm7lSpMiOoiVyUxlUfyhFzDwAAAChGBIgCsH/AwJs1frG8NOkhmTKqXCJmnqaLMR++fET+cPWbghZjBgAAAICwIkAUgP0DAAAAAABhQQ0iAAAAAACAkCNAhKKkM6QAAAAAAEB2CBABAAAAAACEHAEiAAAAAACAkCNABAAAAAAAEHIEiAAAAAAAAEKOABEAAAAAAEDIESACAORnygLZufVpqTV3AQAAgIEUWb5Sdq6dYe4hV8OeWLzknpkO1Bm7ZqYS9DDibW1Rc6/4sH9DW7HvHzIoXy9/P63a3Em4deEn8m3M3BlIOrCyZa5UmbtxHadk46bjMiTO3JqnZefqqVLVcVEa3/pQjlwy8wdEiaxcUSZLx96Vlnc7Zd9gOMY5iEwvleVzRkj12OFmjkh79205efqG7PvyjpmTzNln9dwz12XdidtmPpCvof0+Gji0G7I0ZaE8Vlcn0+ZUSpmZ1XX6PfnDm02SeqVlm7l2hzypnt91erf87s2jZi7CqGL5Dql/tlIu7PmJfHDMzIQvHSDa9qx6l53+o9S/ec7MRbbIIAJQdEpGpoRelFa5zRf3wtABLh0ckovSuCkoOKQvmsZL0wvqtqJUImauTB9jz1O3DdPNPMsI2WDmZ3vzLj9EqfbYtmi0JzikVY0dIUuneud5lI+QeWPtyarZIwZhFpc5/u5jDyBHxfo+yvXvQxGYUi//vOUlqXYFh7SyOc9L/db1MtPc91DL/FA9XyubMFEqrKnBRwcufr43YB+S1axXz31Hfr61PmB/IvLYVvV4tq836CyUZ/T+ZbqtXWien62ITJ+rz4UO6frantN7FbJya4M0bV0wyD9fct/O6IF9svFgl8icJbJz+WB95wxeBIgAFJ07V9bL307+xNxekZ5bauatKxKUi9HvLh2XdasapT5++6O0mocGP/WH+kWd/dQlLZs/lCNmblrdd3yyou7K151mMrRGyIZFI6wpnQW08TdXpd65vdslja13rcd8xW7LyW57sv3M7eyOAwAMNqH4+xCRx1583goM6UygplU/kV+bW9OeVrlw6l05az/RS31XuNChJzrUc44HZhkNLBO46Lgi2fwGV1FlfsCrnCfTp9iTXpOkTMdBTp/wb5PBrma+TDOT6XS1XzZT2TLt0nFSvhzQjO2hQweJGk+LVD37pKz0PdcQhAARgCI3SYaPVP/dHEQBoiEssvxJWaq+pLQfPCT7Cvol5bZsdwdIrFuXtFhBEN11I/mxq7L9S2vBoau8RPT3Pem+IbtO3PZeJMXuyBF1C3ZH9u2324HuZQCQvcjyp2XD2n7MmpiyQKZZQQ+7m5g70HPt2A754EBQx/KofLJJB5LWp3nOQDOBi2+uZBXAKq9ST+7okC7112/afJ8jMGWiHUjLOYAySKjj6QT/rADgQSvCZ3ULc8//Xa7H07RLtu0M25E39Q+wZbL0xcGeJTW4ECACUNzK54uOD93qou9+782Q5bpPd8cp2XUg01eUO3LFZLh4dN6VdjOJYjZc7jdd4ADkawDeR+WlssF0/9o5v8TMLLSB/fswuWqqVM8pk8nmfl+rmD/Puri/8Oci/B5iMmay27eF8sAc9d83J63MqLKqSfZsF6etutoHa0AsN1ZArBDdwu7vi8DZOLnf+pVqsOvNdp6TA7qrWeVcWV5jZmVjygLZoLu17W0IZRc1ilQHYP+GtrAVqS4ZvVBGVtXJiLJKcb7O3el6T7493xScNTM6opb5hZS6lpFbrdLT/q78Z8yv7SLy/UfekNKbu+Vv5/UXAbX8xGVSWlXtWudutc6jvussKa9Xz50nI0c6n/Id6vkn1fqa5NYNM8tPztvpVTJxh/oDLdLzl/Xyn+nW41JSvl7u0/ulI0uWDrnV3iw9V/z3rfdmyIa9S6Q6hyLVkZoFsvzHc6U6/kezS9pPt8quN8+lXT5S87Ss+fFUsb6zBGg/uF/W+QWA1LJNq6cGP56k9qnx0hDRXaC6ZN0J03Lq4mPnstFSJbel8TfXM3SNyrb4a/LzStS6x0hdZHi8EHh79Ibs+vee4LYpHyErq0tlnnuZ7tvS/B9qGwtYuyoyf4ysmT0ivo5A0etS/+9OZpCzf+ZuEk/7+ojMHyfbZkuiDf32Va1vl1qft31UO84frdpRbW983eoCLtoju1rVc5PbZfoY2TnH/dw0PPuXL9MuckM27tfHtnDH3a9AuH0+6/P2hkxU61mqltHt0Xq4U7Z/qbYlZZ61mFc/nWcJJRKZPlrWzClRx8WpaWWOoc/x7qv3kX/B9d4fv4g659ZkOOd83x95HQenLRPr09vX3NojUq3PjQIVqS7A+8gufK9rm5kZgcc8lfO5bSvQPvno/d+H/NWubZCGORelcVWW3aRztlCe2Von0yozXdW2yqFVOxJdqXR9ntWpA2xIx3vStCm4kLXDLmKsXnXzevlEZ/hOUdvxoms7OtT63lLrS8r+raipl/k/nufa3g7pOn1S/tzclPLc7PdNS9o/qw7T8yIHX5E/yC/UtrZ7H1dmrn1HnpzTkdgHj4h6/BdWXSYrm0bRRb6t7bxft12Vazldy+gNqf5mt/y6Wazi4Lr+k26DVtUGn6j9SJmXsj7dNuvlH39cbWdJWTrkwsFmOXHAmwnmT9cjekmmJbdDoOD9i80vUIFqPcBIhu+AcUEFnqfMkJV11TJvTlni87PjojT7Dlii6wetsDLPW/c0yvaUbXce12UL9iUy0wuxnQ5nYJgcClbbnxHmjlVSwbVtIUAGETCkRWTkgzuk/AcveQMoSknZ81I+b4d8f7SZ4aIDIOU/eEPuS1pGRlZL6bQ3pHyiTyLm6AUyYqTInZuX1XS9em21vCs4pJWUvST3+S2r1zfteVdwSFPrVtt43w92yH3lPssoeW1nkpJRep3tcier4NBCue+Rd9S2uoNDWqWMrHpJyh+p927HgLCL9W1b7Q4OaeoP9Zwlsm3vysC+1rVrV6rlsvyD66P2h1PVv11y8kTmr0VaW7ddQ6ejy3VxFrujvl4p6rE2a0aBjRshG9RFZ4Prwk+rioyWbQGFXnUApWmZfXHvWWbsCGlYVuhf0dWFupkaCIH7qm7eC0fTjjqY5blQVctFxsi2ZeNkg0+7ZHVRW2hjh8tkdcGf23HXAZ3g4750UVlAkdwSqdNBDbWMbbi6wChVr5U0b9GYlMLh/XueKaZNti3Sx9DZNs0cwxfGycpyMytZzu+jfNtTyev46QDDOLNvZkaW8jsOdjAreX16+xrUe6GuwOd9/u8jvZ3jTeF7M8uSxTHvZwPy96G/6O5AWQVQvOL1eZJ0ZVl/yM5WaZdOdSFrFY7e8pI3kKMnky9ya9ZL/ernkwI+lVbx7Ce37JBnapLefbnsW3JdongWTFSutetcsWp5wJPVEZFxE/T/9j546ODS3jesEd2c4IkW384f6sCaeznT9U3myzOmOLilslqm1a2PFwx35lXXJReN1oGwd1TbuINDWqVMe/YlqQ8ssu3idAvLpp5S2v1bL/OtAtWt8lUBRi/L9zugpkcHa9qyRJa6gkNaVeVUadjil21zTfZtsutsVq9O/X6armxBb7bT49J5Oak/WOY8MAgH9BicyCAKwP4NbeHIIDIZPVYgo0NuXfjf0hOLmgwXV3bPrfck9pkrk8g1BLw34yciJWqZcrWMfr2UjBuz3J1b6lN2ZKV63Vb59qt35dYN3c46UKUDOWpSvaadYeRwttPexm/jWT9qfeXL5D4djEmzPi2n7fRYKPfNe0lGpmyTH/Nc3ZbtzdLTpdbnvO7ohfL9B16y2rpvhsrPPoMoPnSndEnrnkOy/Zj5fNa/6Lyo/mhbf1B9fhk12T96uRa13D6znM5EWrNaF53O9Guq8ytPDr+66hFp1AVV62F3vaDkrIF0zHOzziAyd/Wv3oevxzMWdJaBvrDTvNuimG20sj7O9MgBVy0gKztBXxD21a/ozq/l3dm0RSo7M2h4lhlEw6U1eluqI2pfu29L43/ccNU4KpFI+R1PRpCzjP1cd1ZFIotCounWqy74Xxgj1XnuW3Z6f9ztrBFvW9TOHyMNet+TshgSmRXO+eBef+o8zzr7/Twz7a8n1T62eDJ4TGbY7BHS4ffe7Kf2LMT6UpcpVW2ZJgPFtVwux8F97FvV+rY76ysfIcv/QbWz5xywHiqQ3N5H8fdt0nZaGVNqO+22Dmgbh+5i9g92gCnTZ0uvmGPhPbbmnMjq70P++j6DyM1kkWSZBeRhMoqyyxoxGTOi1vP7iVZgQxfE/kPzUblmXXhHZGaNyNlj7lY1y1R2qHX8b7WO+LtBKmqWyT/q4Ij6TuSfzaPltm/eDCezrNrGX8eH7/ebp5n5elKt69BbicwmK8PH2k7FvR0mW8marwuD69pP7gyt5Hl+26H23coWOuG0oTJloTz24kvWD3QZj4t57a6Dr2SoOZTH/hVEjtnrru+RrQdb5cCBRMa6lZ1ujW4bkG3jLOtel5PZk3H9uWfZJ7O/O0v2mUC6i9mL9g+x2WbNFxMyiIAhqmTiL+zgkA4AnVxvBV4SX+OicuvKDon9Zbd8+5W7m9lCKyCj6UBHzNMdTC2vl2nXYfZKGVHm/dXIGTq+RGcBtb8if/tshwkOaWp97e+5XsvHrZNWACtBrS+m1nfyFfk2JciT/3Z6jJ6ovm6arKcMRj6og0Ot1rZ8q7uSubfnxlH5z6/s/SsZmWZ9fU39wVpjgkP6j1w8OKRdOif7Nu2XFuvn16lSl/QrTsT8JN26R/1xdC0XPXZc1u25qKamyo/S9s82fcA7unL8ZTdgNJpuv5FrCkAHNH6jLtKcCyMl+uV1aTQrqyxzZweoixEd6FCsLkGui0VNL7fusO6+MVzmPVDg7I4BoIND+oKvfr8O+Ljfrd7gkJvuQuPtcqOeq9tlvy6OnfYd379yOu6Kemzju2offNriyIlOs1yJTPTJttAjztlBgDvySdTOgnDPS62t0v/nWWR+qbpQVKzAQiKAYtP7qNb5bpc36OLWj+1pyXF9EXNft6d3mR7TliPkRykZS3keh/JSqXMFBuNBFyUauy3b96vPY796Ov1NbecaExxK3k496uG++HaOkLp02WqxHrVPTgF897HsC/3x90FfXNq1RJyb3XVkqjQkzd+QS42SbPWiuLCdUZRt/RonY2ae/OPqKrmw5xW7IHb8YjiaFBxy6TgpJzyPRa3i2b9b9YocCgwOKTnumzvDSeSofHVa/TdnfmI4e/N6yXV2Zq41wRMdxNnk7fZmbeceMw6seztMtpIVVNHtoKe/vqK+PSXNM9zrtNfXau37B7ormXv/Lx2VT956z3qdsqr03wedjLBM9ZSy2T9ru/M4hwqnQlb+WAeH7O+R213BIS167EPzXbJM5s33ya1Sj+sRxXQtoDXW91P1es6IuG/lF/TJXZncf7+ZzOTScdm+yR5pOGzBIY0AETAkLZRS6w9tq3zrzg5KduOop75PycQ6q2DznfZXArNgdF0g/Xolo7zFA+2uWjpg84rErgR/lKcGY6Jqnvpv5PNy34MLpSSly1s0pQZRb7bTY5QJEN3K9KdnoYywvklUy30/eEf+fp7P7QfPW681oO43Kb2nWwN+Abkm+36v/0CLVM19UHINZVVWZUyYzo264KrXF31JAQZr9K1e15/xoy6MdLaLuefmdGfwKB8h83TcTF1EHwi6UP7ytpUaXRUZkXN7DjpRdQGc5QVf9Kvb6mu82u/ZY2TDfLXvg6Rbir8cj7sRD4qVl0jt9FLZ8NQ42blinFWc184WGS73j7Oe4eHpEmO456Wss9/PsxJ5LGICBf+RJgvDE8hx69/2zHd9maQEsfI9DuNMV7RoT4Gzgwos43aqz97T9ufuoPg86/e/DwMk7+LCzvDxWQ5r7gRrKiula896VzZQOlHp/Eb9V/m8/OPahVKR0j096lODyMXsW04Fql3dzs7+2ep4lOhm5uqCFjelXn5oLWcHddJxb4cTnLnwe1fGjbO9rnmpQRyznWq7ntzyjvx8r8/NyUxKyxw/9YmStltYlvtnt0uu51ABTXlQ5und6TglB4L259hX9udnwPdPe0Qx9fizT8qGtXbXMutHy2zO716Ktg+GKP7QQYAIGIpMZox0nZBb1ozs2EGeDrndlc0XB7eIWlb/3yq3AwpDl5TNCwzG3Dr/inzb1WHVKCq3AjA75L6JCwMDLvlvp9fIMv0but5m+36gcnuks8HOyQJqb/f7ydX4usu6sFdXR54RWpw/jtWrn5Za95fAKTNkg5UyrFq8PWS/kjgXVGNHyzZ1EasvZFNvpptOEWjP5WI71iPr3r0hrd3DpXr2GNm2zLSHuuAf/AGj7OjuSNZoTcvKpEHXbNE1aTy1egqk388zZ+SrO3KlHwMa/daeStQE5KxaT+5zsXyEbFhkZwmlBPLyPA5OtlJO758BkNV2OqOE6bpP1owwOCfbV9mZAM7NymSwulV756cW0O29mVZtnA65cCLX7zO5DR8fD64cfCWnIsZn33xFDp3ukLI5L0m9FRDZIc8sX5i5vo7i7FtWGU5+2UbHTsgF9d+0H9r1f/xeLz6qWZo6TH6ZVn6jh/m9vv08VxDHjMrWe+b4JddhSpL9/ukAUe++E/eK8wNl5VzZlpR5l7gtyfB3TL0XN59Sn0FlokcR1MWl++I9h94jQAQMRU5mTBZdpxKcIE+Ggs2+rz1Jhlvd2a5YWTt+nKDOXZ0tlCIqt86vl7/95RX5tr1VvYYp+mwFipJ/Z+jNdrqZ10mzzQ6n+5zuzva3k+lv6bKnBjUnvVen1W9x/UHfYv6gqz/Ugb8KIZycribvdknjmdvSqi4829WFpRMw2vnUIMhCyJdV38YU8u1W+3bmujSq/dyobrprjdO1CVnq7/aMdz+zC0vHAzzLTIAnej04SwjoN2mKLmeS0/DxvQlEReXsm+vl15tfkUMHdVcmU4TZChSl+4TPcd98M6l8upklvZ4T6AneLydTx72ckwXknue3valZTfHMoz0/kV+vSn9LW1coy+532e9fYQpUD7TIfF2nyJgwTu1d/3B+YEV2CBABcInI963iz0mZQE6Gzc2gYEuWQZ0bpjaSDrb8ZbfcuqUDRb/wHWktvYDt9DBBrcBtTjWg9YVyUFXl20/D5vzK41sryOrFro6Smy42+EfZmGF4fJFO+doq++TNTBrSnF/T9VDR6iI27a0PC6YOejG7Zs32/Z2yTrfFu9eltVt3UxkjazKNvDUoMxWcLJO70nLYrsmk69Ho2jnRwG5XvTBg51mamj8F1c/tGWdnyng/z3Tx6euy0W84914eh77KhspKDu+jtNvpZFF1D/FRwoaM7LJI/PhlxQTrRSDKcSkqZw/oukM/kV9v3i0XOnSg6BfyWMCoqPF9y2aELsXZn+RAiN3NrErGTTH7kHNb+bSxE5zxbJvP9qYJ4mSqL5SRb0AsH/mfQ1nL5nudk52uh4pPyrxLuQUVkq552h5kRb1G40H1fTRejyhLvf7+2SVfZ/V+AgEiYCgyQY+SqmXBXaNGJ3fhMrWApFpGBFw0uAtf97j+EsUzbLqCfskKyjBaaNcdMvc8bhy1sonUJ74Mt4JLjvy308MEtbLJsrpzy77EKBm3wH9blZLySOBjcXrUg612Zk7qUJ9ZyPDHL3riov0Hek51wFD2iSKC7afOe/9Aqz/MujBny+ZGWef5Y55abNDfNbmiaxXIWJkY+IVxiIndlpO6512kdNAM/TxYRKanyQ7ShXmdWiYZL5r7K0iRh+7b8om7kG+c2mYzVRD9fp7dlj9Zb+jhsvQf/IeIt5SXBD+Wj/5qT236GKuuUYsujO0J7qQWn47L8zg49bgkMsJ/iORyp0tfX8r8PkpsZ9D+JYp0t0cD2kjTo5jproIvBA35j6xlmUXix1vQOZN8gggL5Rldd8jc87h0VD74vf39rCyoqK+zb1kK3B+rcHSlTJu/wNoH/65WQdsRSRR4drexX3DGZGR55vk8zx5+X6Rs7oLAbnYVNZGMXfByy+jKcf/89Or7Zxbf6+JDxQd9/8zEKWdwURrfPCdHDhyyBlWpenZFDsXh8/3+WSGPzdVHuluuZB1AVdvrtOfaGWZeeBAgAoaiG8fltlV8qFrue2S9jBzt+pqvpkc+uEP+/gcvpXTfutWl/+CLjJy2Q+4rdy+zUL6vlnFSXXs8I5+pr5Vpu48pTjCm87h3OV1sWtcdesRen+erplrnfSYLKFm+2+lHB31GOhlKum3cr+eImVpOI59X21qfeL5S4qxz2htSmuELem2dPSSmpovwZf9H1GTnWKOPzUhctE2Z4a0XdOm4NFvdxMpk6ZaV6o+q60uAHubeGoZe37kozUmjLtjptWVyv9/oElk68uc0I1QMSU7RVnUhvcyvto49RPfOF8b4XxgWKz0a0qIxsu2FcXY3snLvRaIe2tup8xJc78QbpPDWidFFjAfBhefY0bJGH3NzVx9vPdT5Tj3Mts/HRP76/zw70nrDDhboejsrxshKT3ub/VxWJtvU8S2YfmtPdQ5a9XaGy/05jfqW53FwAku6O5tqS/e5bLdjX9Ypy+F9FOuRZue5ev/cj6n3rDV8vBXIui3NaYrV11abroKKLlJfjMHztvaL0no61xE5c+fUl8m2m1iCkxFULT90dfOqqFkoM/2+V+QRiKpYXifTdN2hrTvkmeSAx5SF8syPszyr59TJY2p5R4UeBn5tvavLmJYmO0h9r7mgvv+UzTW1eJLq7Ngj1opMW73es+8VNfXyzNY35EmrK5k3yONXsyfbeU5dJF24u36r2g/3Oq192yH1q9+Q+WmDGtlndOWzf37y+/55Tv7kfKd8cUFSfcoKqXV/x1Rnlj0Iivn+qb+retahnr/8adm592nfv2O1a+1yBq17PjQDEqjXe0vXI1Jnua6Nac0Lkst2+nAKbJ/+yncwBD+R5dWJ9sw7KDZ0DXti8ZJ7ZjpQZyz142by5Ii0tXnfxMWE/Rvain3/LKPrpTzNyFp3ut6Tb8+nBlBGPviO3Gd9k/DTIT0pQ85H5PuPvCGlI1vl25M7fItil0y0gza6hk/yqGPOY4G6dicNY2/LfTuTLZT75umh65Pcek9ifiO/la+XvzdD6/u5o7bzW5/tdKtd6wyfq9lD0Wc7OkNk+Uo79TaZTud985y5o1W4AkF+AtY7ZYHs3KKHFA3W3nFRTv7+pGcYfC89XLD6I99xSjYGpRAXVIm5qLlrDdscPIJQ5udF5o+TbbOHW8O8J4/k5TwWqPu2NcpSwUcwKi9VF5ejpcoaijz3rkXp9skt2+e56YLDy+ckLhR9ZdpuZ//MXS89rLn/yFXZy/+4pz3m6njr+jYNs0dI6+Gr8aHga5+yR+Nyz3NeJ9M8Le06tUKfZ2nbX0tut/5tz169bzPumw5e3paTp28kDfGf53FItz71/NbuEVIdCd6PXsnpfeS0qbmbIvM2Oue5rY/2KSRmrn1HXeB3SOvmNEPFB6hYvkPqn039Q69r46QUoa5ZLz9fXW0VqE5bFydJ0DriTu9OGQ4+ISKPbX0jfhGdzLOdU+rln/XIX3oYd5+RuhLb4ddWC+WZvSaLJllHqxw6VSVPPqs+l13L+bW7PU89f9UO08XM2X73PMO0Z5AutR9/8LRL+raI0yOVbXKNqmbJff/85P39M+13Q13I3Qno2AK/qzrU98iWtz70rrvmaWnS2UMp32ddr+fzmEeO2+nmrKN1T/aF6JP3s/3g/lANd08GETBU3WiS2El7dDDP199brdKjh6L3CQ5pt87/RGIXWuWOO9Jzq0Nute9Wr+cXdOldgeo7V3Rx6t3Sk7Sdd/Q6re30D7rkvp3Jjsq3f3lPbrmWv6Pbpt2b5RQX22HqItm/5jisQNtf1LZkCA5pR5pPSatZvP3goZyG7owe2CcbD5ouZA79h/bPySOWXZN9mxpl457Eumxd0q7+wG5cFfCl4NJ5aT5t1yAKUlU5VZauTpfue04O5NNvfJCLnui06uq0RE2NEke3qWeyvw+CQ4Nc9Eu7QPXGw3okM2+WkL7w1rVmMga1rJHQdL0iv+Vv9DI41Dv6mG88fFtti5mhmf3SNXSOpH+r5KXfzzPd/r+xC4x7R/hV64+q9aUMMZ6/fm/P2G1pVu2YTtXYEbJ0UZlsmG5mGHkdB3Mu62USEs8/kHSOF1RO7yN7mHj7fWtmWbI/5jr7zFm2Xe1f2D77Cqd3dYGuHfjf1uhiCR1y4eBuOeFzgeubCZOFawd0cerd0qrW436LdnWode15JU1wSIvKJ5tesZZ169JBjc1JQawM9XiunThp1u/XVkflA7ONcc72bdphMpLcy/m1u18GU5puecd2mDpMSft2+j1r336X0i7mtTLxzfDKdf/85f3989JxWbf5j2pZ74e0/sGwZc/JlL/T+rtqvXp+i/o+6f2+aupZbkoKDunAjqtrWTL9etYAKnOWpO8al+N2JsyQ5TrQk254fh/RA61J37HDhQyiAOzf0BaKDCIgaybrSNJl/lRI7doV1i9Q6X8pcTKYcsuQAoDCMFkyki6DrURqnyqzMmFyyZwDABQPO7OqF99XTfYTGUQAgOJi+l+nFK72uCZt7dn8zO/0G1cXaFsy9RsHgAIrHyHzxqrPs3SFluWOtPVlVg8AYFDT3cTsHz1zy+h3s+t3dsnJE+EJDmkEiAAgJHThQl3YOlFO0hbRBa7XOv2tUwtcp9Cpvnt0d7ip0rCVIBGA/qcLKOtCzCmfZ7og81NOnaH0BZkBAMXHXdso78yfKQtkjfUaraHLlqeLWQD2b2ijixng5S1gGMCvuGA6um/5i2XSrJY5QlczAP3EW0g5gK7R0xfF5QEAg5oOEK2papV16QpfB6pQy8+TNc9OlSr1vbhxU3AB7GJFgCgA+ze0ESACUkVqFsjyH0+Vysoyz0gQzuhlnxy7lqbLBgAMHvZIeyOkcuxw7+dZtz162Sdf3uHzDACQI3vE3srTf5Rdb54L5d8RAkQB2L+hjQARAAAAAADZowYRAAAAAABAyBEgAgAAAAAACDkCRChKdC8DAAAAACB7BIgAAAAAAABCjgARAAAAAABAyBEgAgAAAAAACDkCRAAAAAAAACFHgAgAAAAAACDkCBChaNWubZCmvc5tpezc+rTUTjEPAgAAAACAOAJECIkyqaqcKg1bnpZaMwcAAAAAANgIEKFoHXmzUepXmdvmP0pLh547ViaSRQQAAAAAgAcBIoTDpXPyyakucwcAAAAAALgRIEJoRNu7zRQAAAAAAHAjQITQiFSNNVMAAAAAAMCNABFCpluuXDKTAAAAAADAQoAIAAAAAAAg5AgQIWSmSsPWBVLLSGYAAAAAAMQRIEJoRA8cksbTXdJeOVcatjRI094G2bm8wjwKAAAAAEB4ESBC6FSZ/wEAAAAAgI0AEcKjZp40zCkT6bgojZv3S/2qRll34Jp5EAAAAACA8CJAhNCwh7nvkpa3PpQjlwgMAQAAAADgIECEkGGYewAAAAAAkhEgQsiMlYmMYAYAAAAAgAcBIgAAAAAAgJAjQITQiLZ3mykAAAAAAOBGgAihYRepBgAAAAAAyQgQIRymzJDlz5aZOwAAAAAAwI0AEYpW7doGadprbluWSLWe2XFRPmEUMwAAAAAAPAgQISS6pP30KWl867hEzRwAAAAAAGAb9sTiJffMdKDO2DUzlTB5ckTa2or3Upv9AwAAAAAAYUEGEQAAAAAAQMgRIAIAAAAAAAg5AkQAAAAAAAAhR4AopKg/BAAAAAAAHASIAAAAAAAAQo4AEQAAAAAAQMgRIAIAAAAAAAg5AkQAAAAAAAAhR4AIAAAAAAAg5IY9sXjJPTMdqDN2zUwlTJ4cKeqRsIp9/7TatQ3SMMfckS5p7+iW5rc+lCOXzCwAAAAAABAKZBDBKJOqyqnSsOVpqTVzAAAAAABAOBAgCrEjbzZK/Spz2/xHaenQc8fKxCnWwwAAAAAAICQIEMF26Zx8cqrL3AEAAAAAAGFCgAhx0fZuMwUAAAAAAMKEABHiIlVjzRQAAAAAAAgTAkRI0i1XGMUMAAAAAIBQIUAEAAAAAAAQcgSIkGSqNGxdILWMZAYAAAAAQGgQIEJc9MAhaTzdJe2Vc6VhS4M07W2QncsrzKMAAAAAAKBYESBCiirzPwAAAAAACAcCREiomScNc8pEOi5K4+b9Ur+qUdYduGYeBAAAAAAAxYoAEeLsYe67pOWtD+XIJQJDAAAAAACEBQEiJGGYewAAAAAAwoYAEZKMlYmMYAYAAAAAQKgQIAIAAAAAAAg5AkSIi7Z3mykAAAAAABAmBIgQZxepBgAAAAAAYUOACLYpM2T5s2XmDgAAAAAACBMCRCFWu7ZBmvaa25YlUq1ndlyUTxjFDAAAAACAUCFABKNL2k+fksa3jkvUzAEAAAAAAOEw7InFS+6Z6UCdsWtmKmHy5Ii0tRVvKKHY9w8AAAAAAMBBBhEAAAAAAEDIESACAAAAAAAIOQJEAAAAAAAAIUeACAAAAAAAIOQIEAEAAAAAAIQcASIAAAAAAICQI0AEAAAAAAAQcgSIAAAAAAAAQo4AEQAAAAAAQMgRIAIAAAAAAAg5AkQAAAAAAAAhR4AIAAAAAAAg5AgQAQAAAAAAhBwBIgAAAAAAgJAjQAQAAAAAABByBIgAAAAAAABCjgARAAAAAABAyBEgAgAAAAAACDkCRAAAAAAAACFHgAgAAAAAACDkCBABAAAAAACEHAEiAAAAAACAkCNABAAAAAAAEHIEiAAAAAAAAEKOABEAAAAAAEDIESACAAAAAAAIOQJEAAAAAAAAIUeACAAAAAAAIOQIEAEAAAAAAIQcASIAAAAAAICQI0AEAAAAAAAQcgSIAAAAAAAAQo4AEQAAAAAAQMgRIAIAAAAAAAg5AkQAAAAAAAAhR4AIAAAAAAAg5AgQAQAAAAAAhBwBIgAAAAAAgJAjQAQAAAAAABByBIgAAAAAAABCbtgTi5fcM9OBOmPXzFTC5MkRaWuLmnvFp9j3r/8Nk0n/Y7hMHHdPrvzrXbn8f83svvJ335NH//v3ZJS5G9f5nfyff/lObpi7/aef9x8hUiG1y+dJ3dypUlVpZslFaVz1oRwx9wAAAAAgEwJEAcIRIOrPoAUBotT9HyYz/udwGWc9np3OD+7Iub+aOwPG7Itk15YVdSXy4IPmTqBiCJzl1i6FUru2QRrmmDtxBIgAAAAA5IYuZihO//c7+fR/3ZHj8dtd6TQPAcWjQiZOsKda9+yX+lWN5kZwCAAAAEBuCBABA+aenPMEsexA1hUrkqUzapIfGwzZQ7m71uzeh6D9o9tdr3SckgPHUjM9AQAAACBbBIgA5GxULv3iQoR2AQAAADBUUYMoADWIsvB3avn/9j0Z9+CweK2fm533pPP4d3L5r8mnlXddMXX//h+rZccNsx82y51LWc4lYH1Xfn9XrmXcdlPvJ5caRHmtb5iMfvh7Mn2BWsYEC26e/06u/D/fifw3XYsnU1vncUxy2k7n9YPqGQWs/+Hh8qhrn9I6f1eONwcdx2z3zzwvXs9nmFTUfU8muvdRteuXzcnH0rucbpuszjOnZlXg+dHX7ZI/qwbRhFOycdNxoaw+AAAAgHyRQYQ8qIvluuGy4L+rC2bXBbs2Sl2IT3xmuMx42MzwMeq/DZf/qpaNX7RranqcWm5BnWuey+iFwet78L+XyKML/ZfLV37rs4MI//UZb8Bg1IPfU8vo4IKZUUC5b+c9ufwvdj0m3d6T/s6e6xi98HvWdt7803cpwZsByY5R+zH674bJDNWuDybvo2rX//o/viejzX0Ptdz96hzN9TzLx4C0S7LKMplsJgEAAAAgH8MjU6f9f8x0oJs3U39Pv+++sfLtt93mXvEp9v2zDZP75nxPxqir7v/303tyvcfMzuTh4fLwj4ZZWSqXDnwn5w59J1//P/p2T24NVxfg96sL+enD5Ja6nzhznHXp4Ila9vx3cun3d82yieVknLrg7/5OYlfNYppaX/UifUF/Tzr/9J182fSdXLTW9510dg+TMWpdo9Syw86n24dhUv7fviejbt6Tv52+J/8/M9dXnuvTo3VFJuoptdwH38mnLWYZ9bz/MkntuwkkpG/rHI5JL9olph6/Xz0+ZpJIp9Mef/c9efjZ78l/6fxOPm9JaqOr96zXtW/3ZLRuS51t8/+9G19n/PaFWcZXtvuXOF/GParWNeqeXFFt+lenTdX2/73aflGP/xfP+ZLneVY6TCY8ql4r8PwI2O6CtUv+piyYJ/Mqu+Vk83m5ZOYBAAAAQK7IIELu/npX/s+/3pFP/0V3YXJ3mbkn147elfPn7XujkrJTHDf/dFc+bf7O1f3JXu7//Ml+rXEzdNDDMUwmLbDvd36gLvSPuoNOIjfUtnz6gV5OXfjPdC+XrzzX93e6+5OesLsgubsw3VBtdE61lV2cuVB62S7qces4jfueTLeyjNTr/fh7Mkpv/+/7b4j2rHTek/O6iLW7TZ3tV0aV++yfktt5NhRVSGT501Knh7jv6JI2eyYAAAAA5IUAEfJyw7no/rthUvHw92RG3XB59H8MlwX/U9fZ0Q8Mk1EV1jOS3JPOs4kLfbcbav5NPTFuWKLbkHr9cTrzpvM7+TpoBK+/fmd1mdJZS77djXKR7/oq1P7q/8+nds3qEwVol2vNdlezUT/Sx8/uWqaDTf2y/VnTAau74jc+142Y/3lky/E8G0qmLJCdexukae8K2fbsVKnquCgtb1F/CAAAAEDvECBCXnQh5hn/o8Sqf/PgM6ZAsrrgLgj3hbsTeBn3Pfmv/1Otz/c2XEzvrd7Lc32jy+3/b8bs//tcQdrlnpz71+/kps4yUsdPF1EeisPo522oBoiStKvbFXsSAAAAAPJGgAi5e1gXYtYjQ6lpPSrUn+7K+X/V3c7uyvH/dSfe9QeD3+iZJtCkFUnApOhdOi7rVjVK/ar90niwS6oqp0rDiwskYh4GAAAAgHwQIEKOhsmMZ3SmkC4afFeO/4td/0bXItK1dnrFyYrpdNXTuWa6A+khwv/XnfS3bIevT6eX6xtlMon6XCHaRQf6fmRnDp3XdXni9YiyNFQDSn7nWSH1W7tckyMH9knjaTXJKGYAAAAAeokAEfKjLq5jrqLBCa6MFF/qcd/aRImiyze/dF24/9970qkL5Tz4vZQh2fOS6eI9z/XF69qo5Xx3T71WQYdD73W7JAJ955t18ebvrCLao340XGY8bD8jG0GFyAeDXM+zdHWJnOH/szWY2wUAAAAA/BAgQn5MtkniYlpNP2wXqrZH8wo27pkSedS97N+pi3a9nHUBfk+uHHUHnu7J5eP6/jCZ+N+Hywy9nOfie5hULFTr/Z/D/QMzLjd1QEW/TtK6Kzyvl+f6nICNevxBtS/u17TaRb1WIeNDvW2Xijp7e3RRarsAtHq93+t6RPr4ZGpLta9WN0K17h9/z9t+uj0fziELqc8Ms/bDahczJ/15ljg/HqxLWka1lZVpldFQaBcAAAAA8DfsicVLvFdJPjpjqWMITZ4ckba24h03p9j3z+a+YE7HHmbcOQtGL0xzwayHJP9S5EH1eOcHd1xFj5113VMX4sMCsmnURfu/+o+ilXadmlqvHu0q3Qhcga+hu2k1e98Gea3v774nj/53PVS8D/X8TrXf4x4M3kdbop3SP8+W13Y+PFwW6OyhdPvt85hHun1NOl8q6pyR7dJJ3t/M7eBsqzWcfTzYkzindcAnp/PMaRcfeh1Xyoer/chwXHJol8KokJVbV8hSOSUbNzGSGQAAAID8kUGEnN04elf+zwc60GNmaDoQYWoSXUs3kpd63pf/cidl+Zvnv7MKXQddeOt1HlePXzlvugI5dOBFXbz/H7XewIt2w9ruP6Uuf+WcmXbJa33/9zv51CyTkHj+12mHZc9PztupAxiurmXJ9OtZRcYfHG5leQUy+9qp1uN2U7fnB98VOAiSD7X/v8/xPPurai+f8/r8v96xAlDph9U3Bn27AAAAAIA/MogChCODCCg2uWVgDX1kEAEAAAAoDDKIAGCoq5wry2syVeECAAAAgGAEiABgyLomn5zqsqaqV6+Qpr0N5va01FpzAQAAACA7BIgAYAiLHtgnGw9elPYOMwMAAAAA8kANogDUIAKGorDVIAIAAACAwiCDCEARuSeX/+WOHP9fBIcAAAAAIBcEiAAAAAAAAEKOAFFI6S50AAAAAAAAGgEiAAAAAACAkCNABAAAAAAAEHIEiAAAAAAAAEKOABEAAAAAAEDIESACAAAAAAAIOQJEAAAAAAAAIUeACCEyQV6e+6p8WvOqtEx+xMzLlfMaDfJyqZk1kGrWy8/3vpNye6bGPI7Qqli+g3MBAAAAQNYIECE8Sh+WRaPsycikWfKcPTmkVVRVmSm3VvnqmJkchOzAxXqZae6n5QTAttZLhZnlFZHHtuqgWJavN+gslGdcgb3A29qF5vnZisj0uZXq/w7p+tqeAwAAAADpECBCePT8VQ7ftCejlz+X9+3JIe3agfXy61U/MbdXpLVDzey4IjH74UHIBC6y3MZ4AKxynkyfYk96TZIyHQc5fULO2jOGlpr5Ms1MptPVftlMZcu0S8dJ+fKSPQcAAAAA0iFAhBD5Rn516jV59NhrsrTtMzOvmJigwDdX5Jo9YxDKbRvLq3QwqUO6pFKmzY+YuS5TJkqZ+i/3AMogcWyHK8D3E2k6qCN8Ihf2JObp2+8ORK35WTPtMrjPBQAAAACDCQEioC9MWSAbtjZI094G2bncv3NUwZlslAt/PmrfH4xy2saF8sAc9d83J+VCh0hZ1SR7tkvF/HkmQJRjAGWQsgJihegWdv8QD5wBAAAA6HfDnli85J6ZDtQZS/0NevLkiLS1FcdFmR/2b6jTxaRXy09NzaFk0ct7ZGnbN+aenwkya3ytbJs0UyLmNaKxY/Lbyx+JTHpVXi+PydtnGuVXPfZjyWrXNkiDDm5YuqRl8z7Z18ddfXRtn/pnRVo3r5dPslpXRGau/YX8cE6lnW2idJ1+T/7c3CRn718vP19d5ftaFTX1Mv/H82RapQ5maB1quZP2cinrXSjPbK1zPTedVjm0akeiq9iUevnnLc+LHHxF/iC/UPvW7n1cmbn2HXlyTkfAPueyf7qW0RtS/c1u+XWzyGN1dVKtlpOOVml9a4d8ovYjZZ5PG1fUrJd//HG1nSVl6ZALB5vlxIGjWWTy6HpEL8m05HYIFLx/sfn6XKi0MpE+GMT1qAAAAAAMHmQQASns4FLTjERwSIuU18jrsxvkZ6PNjEHGzj5pl06fwEUKHXzZ+4Y86QouaGVznpcnt+yQZ35Yre75vFbNeqlf/XxSwEe9hrNcTVI3MN3VKavgkJJclyieBROVa+3taqpaHvCMyBWRcRP0/z7bmfP+ma5vMl+e2fKSHQjSKqtlWt16+eekedV1yUWjdSDsHdU27uCQVinTnn1J6gOLbLs43cKyqaeUdv/Wy3yrQPXgLlYOAAAAYHAhQIQilag35L7VX85cGvm5h5zMo5h8fG5PYtkzzfLxzXJP0CjIkeZTdsFopf3goT7PHop3x8qqWPNCeWbL83ZgoeM9ObTZVQNnT6td70e/Vkoh6Yg89mMdWOmQC3tecdXIeSWx3OpfyGPuYtKXmuR38eftlgt6nlpnU3ye67apyZNlYxeoNt2tjp2wlp32Q3dgJqhAdR775wRn5lTLtNO77e1Tz9XK1LyypHleJvOnUmcLqee51vfrzbvt86DyeZmfabj5rLuFZdo/tQ+6XQZ1sXIAAAAAgw0BIsCtdLH8rFxP2F3I1lxNdEP7vOczWXNqj7xtRkJL69Jx2b6pUepXNcq6A/1QJjiHYs0z1+puTMrp3VZQxt0t7NqxHfI7JwgSVOC446ScOObunhi1l1v1ihxK170tx8LJ3oyoo/LVafXfnPmJ4ewD9jmv/TPBGSt49abpDvb1FelKnme412mvr9Xa9w90VzL3/l86Kp+89Z71OmVVPkW2XZwR2zLVU8pm/6ztpkA1AAAAgBwQIALcRleIdRkfOxpYX2hQcnXHSmtKvfzQyp6xgx7ppBaSjkqnjpdVPi//uHahVKQMOx/1qUHkYrYxpwLVriyYs3/WgR1XNzO/fc5z/5zgzIXfu7KYnO11zUsN4pjtVNv15JZ35Od7fW5Otk9aZvj/TN3Cstw/u10oUA0AAAAgewSIAJdZo+xKMdEbV63/h4qZVk2dzDVn4qN+nToemF3i6dqV5Oybr8ih0x1SNuclqbcCIjvkmeULM9fXUextzHKELr9so6RuZn6vl+/++Y0e5vf69vNc7WxGZes9010uQ7ew7PfPHcQCAAAAgMwIEAFDninWnEXNGScQcuFEUPDAyWQJKnYdlbNvrpdfb35FDh009Xx0EWYrUJSuC1WagtJ+4tlB7iwYn25mSa+X3/45WUDueX7bm5rVFM882uOqOxRw+92BNAGbLLvfZb9/FKgGAAAAkBsCRICPyOjxZmooMNknBak5k10mi1yKytkDuu7QT6xCzBc6dKAoqUC1R1BBaX9Olk9yIMTuZlYl46ZkHxTz8tk/Jzjj2Taf7U0TxMlUXygj34BYPrI8fgAAAACQhAAR4PJ57AuxQhLls+Q5a06S0vEyLYtRzGTKAtmwtUGa9jbIzuXZdMDqBdPNKfvgQqWU3W8mPSKJAsgpQZCF8oyuO2TueVw6Kh/8Xgdugl5XcYIrWbIzZXyyjazC0ZUybf4CKxDi39Uqx/3zC874tanP8+zh90XK5i4I7GZXURPJ2AXP6c4WnBnkls/xAwAAAID0CBABbj1/lcPWKGUz5fW5K+S5UmuuZdb4FdIyu04eN/fTqa2bK9U6xqFUPfukrAzMrCkcHaSY6axnSkRm1qRmtcTa7bH3p61en3iuUlFTL89sfUOetLpapQabKpbXyTRdd2jrDnkmOeAxZaE8Yw1/n4U5dfKYa7sq1LKPra13dRnT0mQHXTouF9QulM01tXiS6uzks39+NXuynefURdKFu+u3qv1wr9Patx1Sv/qNDEPcZ9/9Lt/jBwAAAACZDHti8ZJ7ZjpQZyz1t+jJkyPS1pbNr91DE/tXnGZNbpCmSeUSvbxHlrYlhrD3KF0sLbNr1GW7j5tn5eMbM+XxcnsY/KCRzmrXNkiDuVhXl+vSsnmf7Mtw8Z+/hfLMXpM54qZHutrkGpXLEvBcraNVDp2qkiefFWn1Ga6+YvkOqX/WRL38nN6dMhx8QkQe2/pGPGiWTNfw+cCpmTOlXv5Zj/ylh3H3GakrsR0dPtuZ+/7NXPuOPDnH+1r2PPX8VTtMFzNn+93zjJr18vPVwQGyLrUff/C0S/q2iCvw8QMAAACAdMggApL1fCRLzzTL2zF3/kpMPr7cLPWn9svuG5mruxxpPiWtdrKHtB881IfBIe2ofLD5PSuzxtHV0Sqtv/frfqWfu1taT7ue3NEhF/a8Ik2bdpiMHf9MlmsHdHFqe9kuM0/rcpYPDA5pUflk0yve9Sp6Ow9tdgWHtAz1eK6dOGnW77edue6fX/aOXwZTmto+x3aYOkxJ+3b6PWvffpfSLua1MvHtJpb/8QMAAACAdMggCsD+AQAAAACAsCCDCAAAAAAAIOQIEAEAAAAAAIQcASIAAAAAAICQI0AEAAAAAAAQcgSIAAAAAAAAQo4AEQAAAAAAQMgRIAIAAAAAAAg5AkQAAAAAAAAhR4AIAAAAAAAg5AgQAQAAAAAAhBwBIgAAAAAAgJAjQAQAAAAAABByBIgAAAAAAABCbtgTi5fcM9OBOmPXzFTC5MkRaWuLmnvFh/0b4koXS8vsGomYu3E3j0n9qY/kc3O3cCbIy3NXy09HxeTtM43yqx4zu6/0+/4BAAAAAIoZGUQA+liJrFwxXppeULcVpYmg1vQx9jx12zDdzPNwlhsnK8vNrEHNbK97HwtuhGwwbbZzfomZ5xWZPy7t40iW7/kJAAAAFBcCRChOPR/J0mOvyaPxW7N8bB4qCkN1/7rvSGre2l35utNMImtVs0dLrZlGgXB+AgAAIMQIEAHAkDRC6sgSAgAAAFAgBIiAMJuyQDZsbZCmvQ2yc3mFmVlod+RKt5l067wr7WayOAyX+8eayb4WvS2t6r+izyIqL5UNpvtX33WZC8v5CQAAAKRHgAgIUvqIvPxQg7TUvCqfmlvL3BXy8vgJ5gnBZqlld81tiC/3qZrelWm5gPU9V2oe7wO1dXOlutKernr2SVk5xZ7uK+3dd82Um7pAj5nJQiofISufGic7TR0ZK8iwYoysnJ4u0FAitfPHqOclltE1kHY+NUIifnWQprufO0aq9byxo2VbfFnXTb1G4dyWA2d0W+aRRZRDu9Q+pR8fI7W6To9axn7+OFOTx2+ej4D11WZRV6q2erRUm6Bb1Wy1jX1ci6pfz08AAABgkCFABKSYYAVqPp1dJz8tL/cUHI6Mmik/nbFado03M3xMm9QgTWrZx0e5rmbV9ONquU8fesTM8Jo1OXh9r89+VVomZw5KDWZt5sK7o+uO9b8ldkc69P/qsTZrRqGYwMWyMbI0MlyqzFytauwIWbqoLCCYMUI2rCiThtkj1PPMLIt6jcgY2bZsnGzwCcZ4n9tPxqrtONGTYxZRvu1SInWqXfQytuFSPadUvVbSvEU6kORlFcwOWF/DssFTSLt/z08AAABgcCJABCQbX2sFaqI3z8ovz+xxFYLeI7+8bKcSPD5jhTxnTSUrl8f1srFjatnU5aS8LjW4NH6FNE3SwaSYfHy5Werj63tN6s+dtYrmRib9k7zcB5lER5pPSat1FSzSfvCQ7LtkTxda1H3hHXdXvvbr2tNb00dbAYn27tvS+G6X1P/mqrl1SaOVdSMBwYxSO1vFWs5Zxl5u4+Hb6vWGi0m2Svjyuut5162AjXTfkI3xea7bv9+2FimcHLOI8mwXK0A29q60WG3SJS36mI3Vr5U0T23Hj9wBpuljZNtsHUC6K61nrnvaxGpP9UimrKAjrTek1Zwj7eo19vVRJk+/np8AAADAIEWACEh2db/Un3lNlp7aL+/3fGNmat/I+22N8kvrIrVCHggI2EQv75GlX3ykljUzzHL1TnCp3J1FNEFenjTTmvr4XKOsaftMPrfu2T5X27L03Fk1VS6Lyvsgi+jScdm+SW3bqkZZd+CamdlXAkaD8h05qhe+vC4b370q6/ZflyMx94X/HTlyolMarZWVyMSAwER79IZaztyxqO1Tr7luv3rNE36BhIETzSWLqBftkgjO3JFPonYwyT0vtYZPiaycY3epaz3cKdtP3PYcY6s9D+uA2XCZ90Ca4FasR7ardtdBpb5v+346PwEAAIBBigAR4ONzJ7hTOkGeG79YdunaQKam0OvWBXS5TBttPSNJTA7H3EGlhM9jX9gXmqPHyyxrjlL6sCwapf6/eUx2X7Vnpbj6uTWEfaTi4cRyQ42VadOZlAFyR/bpi/+CZ9aIRJ31lJdI7fRS2aBr4Kyw6+U0WH34hsv946xnxEW/SmS1bJgfUHNo0MktiyifdtE8Xa8M9zyni1Zc+QiZZ2Vj3ZADX9qzUnxpCm1HVFvbcwZOP5+fAAAAwGBEgAjwMUsHhea+Kp/OXi2vz6ixuo1F3DWFemNUhTxoJmV0hX1xPKpGmlzFqb23OnncejKyFdHBD108elmZNCwaLdW6Bs5Yp15OgFiPrHtXd2kaLtWzdc0hU1R5ha49NHgDRrlkEeXVLvkYZ2oOBRXstm6mqDcAAACAQYEAEZBM1wTSQSErs+esVRdI1yKqN/WI7C5mGLR07Rsd/DD1hHT9G11zZ6Opu2N3pQrgdGlSz208o5btvivtYxMBI2s0M/PUwcObReRfT0fpTbsAAAAAKHoEiACPR2TXDF0TKCZvn9sjj57ab9UF0rWIPvfUI8qDky1085qct2YoN67Z3c5izfHC1IG3Ux956hPBzwjZsEjXvrkrLYe7pH7/dav+ja65E/XU3clAPffICbXs/k5Zpwsrv3vdKpasRzNbk6kr19jhMtlM9pd4FlFgd60CtUu2Ou9a3fUk6i7iHXDb30ONHwAAAGAQIECEcHF370rn5hfyh6t+AaEJ8oCZ8hdUmyhRjDp67a+JQE/PX+XwTfV/+cLCjFKW7f45piyQDVsbpGlvg+xcXmFmFoHu2/LJl36BjxKZaKaSRaanyQ6K3Zbtp+1aNJm7ZAUXwO47Joto7GhZPtXM8pNHu+RFtddJXbg6Upp2lLKMyk2XuBcGz5D4AAAAQLEiQISQuCoXdCBGZsrPJj/iKhL9iDznF5gZVSPb3M+TCTJr/AppmbtafprhgvfxGa9KS9I6XtbL6S5rclZ+2+YdGe1Xl+1Ryn46u0F26eU82zNBnpus1lsTNKy+I8f9M2rr5kq1Gbu96tknZeUUe3rIGzta1ui6QeauDoBEpo+RnSvKZKlfFKi8VNYsGiPbXhhndyMr9wYjIuVOBo5Ie3JB5rjb8icrFWa4LP2HUql1nydWUei+DXA4WUTVEXs7feXaLnm7I/usgJpqi2V+NZxUe8xX633Bb1j9hNpq0yVOyTQkPgAAAIDeGfbE4iX3zHSgzljq8NeTJ0ekra14Owawf8Vn1uQGaZrkc4Wpu3d98Zm5k+Z52s2z8kv1dnh90kz5+NxrsiY+8tgEEwSKSfSmLmhtZnvE5O0zjfKr+PD3CWnXqan1vn12v++yjmz3z612bYM0zDF3pEtaNu+TfZfM3QFXIit14MIECILdlsbfXJcj5l5k/jjZNjsgy6dbPVed9g2zR0jr4auy3TXCli7gvHxOIiDhq/uGbEzXJaq8VHYuG20XaE7h3c78jJANurhzwHa49739TJdnaPh82qX2KXt0M/c853UyzdPSrlNT6235D2e4/FTO+m13peXd5JHGAAAAABQKGUQIjc/bGqX+8lnvRbUOvMS848tbzzunnmdl5Bj6eaYm0fvu+clufiEbT72Wsnw0dkx+GRAc0vQ6Hz3TrLYllrR9MatIdr1ab7rgkJbt/rkdaT4lrR32dPvBQ4MoOJS/6IlO2Xj4trTrLk4OHYgwtXeOdJl5SaJf2gWqNx7WI5l5s4TazfJpg0OaNRKarlfkt/yNXgaHMnOyiPzk2y69odep6ze1RE1NIodqH10ke6Nab7qAz5FWfSzs6Xb1fIJDAAAAQN8hgygA+wcAAAAAAMKCDCIAAAAAAICQI0AEAAAAAAAQcgSIAAAAAAAAQo4AEQAAAAAAQMgRIAIAAAAAAAg5AkQAAAAAAAAhR4AIAAAAAAAg5AgQAQAAAAAAhBwBIgAAAAAAgJAjQAQAAAAAABByBIgAAAAAAABCjgARAAAAAABAyBEgAgAAAAAACLlhTyxecs9MB+qMXTNTCZMnR6StLWruFR/2L6RKF0vL7BqJmLtxN49J/amP5HNzF1nqs/acIC/PXS0/HRWTt880yq96zGwAGZTIyhVlsnSsSPuZ67LuxG0zH4NOeansXDZaqszduO4bsnF/j/AXHAAAFBoBogDsX0gVe4DI2b80+zNrcoM0TSqX6OU9srTtGzM3T0UdIHpEdtXUyePmXjY+PvearLlq7gwY03YyWM/pRADDcyE8fYw0LRqhp6T18FXZ/qU1qYyQDS+MkWpzLxve5UPGE3S4LY2/uS5HrGkMOkMyQGTev0IQKxxy/bwGAAx2dDED3Ho+kqXHXpNH47dm+dg8hDzQnuiN7js+F5h35etOM4ncxW7LyW57sv3MbYJDg1msR9b95qrUx2/XpdU8BAw6fF4DQFEgQAQAeflM1niCX/q2R96+qR/TmU3Jjw2G7KFidFu2ey6i9a1LWqwgyF1peTf5sbD/mn1H9u2324HuZQAAAHAjQAQAoTJepo0yk7maskA2bG2Qpr0NsnN5hZlZaHfkislw8ei8K+1mEsBgNVzu192NEBJ8XgNAsaEGUQD2b6jz1lmR0kfkpZkL5fFR5fbDN2Py8eV/kzVXM9XYMXVmcqmZo9b18qSFsqi8PF57J3rzrBy+fER+lXZ9E2TW+FrZNqlCIs52SkyisaOy8YvPgtcdsL7fnt0v7yfX5ilADaJZ4xfLS5NqVFuaGdlsY1yu7em0yUzVJvacaOyY/PayOqaTXpXXy9PUIMqlXQx73yXxmn6vEWtOs6951EbKaTud1w+qZxSw/vErpMXVhmmp/XtU7Z+f2rUN0jDH3JEuadm8T/ZdMncLqPap8dKgGqP9TJesO3HHnhmvx5JN3RynLobOIOqUfTEzO4mznvQ1MpzXcq/XW2dFykfI8n8oleqxw61HpfuutJ6+rl7TbLsftczK6lKZFxkerzHT3n1bmv9DrSNge3Pnqg/iw9O+Ht79i6r7tU+NkTr3tkZvyK5/L0yNmfyPQ0JkeqksnzNaHQMzQ9QFarRHbePt1G10zqXAWj7OuvzPn8j8cbJttiQe8zuW0ev+6+4VU28rlxpEAefZydM3ZF/g+amO9/zR6niPkKrk9mxV+5R8fk4fIzvnuJ+bhmqXetUuvVOA8zOHdrHPT33e3ZCJaj1L1TK6PVoPd6rzVW1LyjxrMa9+eb8PjN5/XgMABhMyiFDcRlXISw+pi/7ZdYngkKamH5+xWj596BEzoxDUxbla16dqXT91XexrkVEz5adqfbvGmxnJSh+RXerCvmmGvoh3baeo1ymvk6aaBnm51Mxy0QGNoPW9PvtVaZk8wcwpBB18eFVtozs4pKXfxvzZwQ67TcwsJVJeo/atQX422szwUYh2CXwNdcsc2MpO7tv5jfzqlF3H6fEZqe09a/I/WcGj6OV/SwlOZRUcGiTauu9a/3d0uS7UYnekQ/+vHmuzZvTekdYb1q/c1XNKPe3voS7s5ukL36hPvZ6xw2X5U+Nk2zJ10e4EhzQ1Xb2oTJqesou0JtMBhia1jL6odC4WtaqxI6Rh2XjZOb/EzBlgaj8mq/3foC7GG5K3NTJatq1I02456N1x0MGC8bJtkTs4pKntjYyRbS+Mk5Xuj9QCCzyW6lbY4FCudOAi+Dxbqs7PDdPNDA9zvGcnB3xMey4bJxt8zs+sgkOFltf5mW+7lEidDkqpZWzqPa7O15VPJc1bNEZqzT3HkHm/56m/Pq8BAP2DABGK3Ex5XF1866yTX8ZrwuyRX142P9mV1wUHbXI1vta60NfZH788s8dVeyaxvsdnrJDnrCm3R2TXbB3AUpNq2bfPJS97Vl1olMu05IDI+BVWpo/O4Pn4crPUx5d5TerP6WXUF9NJ/+QftBlVI001r8qnPjf7NVM5wQdrfe5tPNNs6u6Uy09n++1ffp57yM6USV5fvVrfxzfLgwMevWkXi2rrSeY1fI5l/WX/7Jqc5b2dn8ka9bjV3jMXyyx7pujssG3WNh+TjcmZX1f3u/bBFArXWVyudcZvAdlD2pHmU9JqfesXaT94qE+yh7So+0Ij7q587deVoTdiPdKsG3rsaFnue1EoUlutfwW/Ky2tflkPI6RaXfTpbIXGeK2jLmk8Y18wibqgTrnYnK4usmebbIMz12WjqzbSxsO3rUBJ1ewxBQpqJOoNuW8bne3LSF/A6uCX2v/DXYnl1XZa0rRbTnpxHCLz1YW3FZzQ2RuJbax/97qpQzVclqp9SL5o773hcn+1OZbdt9Xxd61bnQMbfc+XfjR9tBWQ0FkqydvmnJ/+wQydCacmrOWcZcw+6fOze7hU2k9N+PK663mmkLbOcorPc916nT3klsf5mWe7WAEyK6PMfq51bqnXXxpJmqe26Ufudfbr+31g9NvnNQCgXxAgQtGzukp98ZGru8438n5bo7rQN0Gb8gJlEamL8Pozr8nSU7prkPsC3V7fL63VVcgDKVkfC+2h0q1uV/uTuqHpZffL0jN7kroTTZCXJ820pj4+1yhr2rxdnj5X27LUBBEWlRcgi8gJPojddcnTNa/nM/nVKac480z5WSGyltT6fmZ9YU5d3+dqfWvi60tWmHZ5vHymdd486nMsP0/KzMlPL7dTPW6dT6NqZJvV3ur1ZtZIRLfX2T4cuv7Scdm+Sb13VjXKugOpXY8LK2D0m26/kXLyF89emeqX7aMu9nQKgrqY/MTElJNZ3Sr+vcfVTeSOHDnRGQ/CeF+3RFbOcYZ+7pTtJ7xdkKLqQnuddXE7XOY9MEiyCvSF9G86Pd1u9HY2mg2vLCvMduZ1HMpLZY25+NbdvTxd+mK3Zd/+xEV7XR9kaVRHRljHv36/7ibkvkhW52jA+dJv1DHa+O5VWeezbfr8tI9fiUwMCEzooKe365PaJ31+7tfFzf0CAgMk1/OzF+3Sfua66W54Rz6J2u9v97zUWjxD8P2et/75vAYA9D0CRChyMTkcc1/gJ3we+8L+4jJ6fCILo5fiwYPSCfLc+MWy66EGaZnbYGXmvG594UzOBJog/1hhAi/pLuw9QQql9GFZZGUcHZPdQSNjXf3cyhSJVDycun9B2SPq5gTOPEZX2Kn6saMBdXW+kV9d1gGNgPXlKuP6AvS2XRyxZt/6SwVTgO18/ws7E0hnGe16yM7u0sGmnNprsFIXTvX6oi/pAtXKhiloBoLiDPseKU39FX/6CKlW/7VHg2rJ3JWTX/lfLEe/srMDZGxJopuL002q+4YcCKq18+VtKwOjKjLCp3tMf7srLbpGirnn5nQrKZh8jsM402Un2pNSJ8imzpnT9vnSJ+0ZVRf4gylYkiQepCovkdrppbLhqXGyc8U4aXrBrhljZUGNs54R55y3Oqtlw3zVZj6BksEjv/Mzn3bRPF2oDPe8lHUOufd7nvrz8xoA0OcIEAGjKuRBM9lbuoDzrrmvyqezV8vrulaPri3jqSmUzBlR6pp8lcuFvRNASdNV7FNdDNp6cu/NUm2kRW8ERTOUG9fsi7cCtGdW6/NToHbJeb25Ksh2fiZrzhxTbV5unWc6qMUw+vlwggjJv+I7v/7flubeBAF0nRQzGQ9ojB0t29TFqL4gTb2NsYIh4ZP7cYiY7JD2dMEqZzQl93EokLTrHQR04e4NK9Q5taxMGnSNJl0DR7VDWrEeWffuDWntHi7Vs3XNIXNertC1hwZ7wCg7ebVLPni/AwCGIAJEQKHomjJOAeebZ626Mrp+Tb2pYWN3MQMKZ1b5Q4lfnQuYCRc6X96wuiJVzR6dqD0SWBQZfYbjUDi69o1TuLv7tlX/Rtfc2Wjq7jhdsHzFemS7zv5Qz208o5btvivtYxMBo51PDeFsl960CwAAIUCACOHlZHHcvCbnrRm98YjsmqFrysTsItOn9lt1ZXT9ms+Tu4f5Sq1NlJaTraOHJE/qIpZyy3Z4/ixERqep6F3Q9rSlXZ+fAWqXnBViO50i1+o1rCLoo5x6RFkqYObc0OfUFEkUmI08MCJNceosONkD6uI6PoqPk82ih/p2Fav1vWU7jHlRye84pM3+8DsORW+EbFiks65Uu+nizfuvW/VvdM2dqKfuTgbquUdOqGX3d8o6fU6+e11adQAvMkbWZKrp1AcZW71XoHbJFu93AMAQRIAIRS9l9C9Lokhw9NpfMwcKsr2YvvmF/MFTZNoxQR4wU16fySErsyhpRKpkpRO8j/X8VQ7rIs3lCws8tLy/eL2mwPUVtj0T65vlPypaqdM1L0k/t0veer2dTkDyrPzyi8/k/bZ/s4p2RyatzmFUvhyDktqUBbJha4M07W2QncvtboDFInqix6oFYg+1XiKPRYZbGQZBxakdfrVK3MVpPXVz0tXZgSWX4xCv8xTYnkHHwQzBHRDESIyMNkhlG3zR7eYu3B1XIhPNVLLI9DTZQer83e7UdEoXlLMEF8AecHm0S14K9X4vN13iXshxSPz+Xg4AUBQIEKHIlcvjMxpk1+RHEgGW0kfk5bnOEOpn5bdpixFflQvWaFl6dC7vazznd3FtZXG4nicTZNb4FdKi1xfwBfH9y7qOjKKWbZq7Ql4e784CMcvPXi1ND7lHW3OKQuuh5c3+ebZngjw3WS1XU6Bh53s+kt86gSy9Pvc29kV7OgEU9bzXVZu4H7PbI6g+Tz+3S956t53PPWTv/8fn9sv71hz1emft8+jxGZn2zRuU9LS7VVw9OAuptm6uVJsxrquefVJWTrGni8NtOaBHHhs7Qh6bb3drCi5O7Rgu1YtMbRYzR3eJWrmizAQYkuvmJOrsLF3mV9OlRGrnj5GdL/TFsOxDRQ7HwRke32nP6a6L2bTHwRmCe4Q0uLtLlZfIyqfGmWHJB6PEdtclnXO1fn9fxo6WNe7nqfMrMl2dX7pd/KJAelS4RWNk2wvj7G5kqj3cImo9dgaOOiaB9Zduy5+cY/IPpd7tsopCD4KAQ67tkrfCvN9rq02XOCWXIfH7ezkAQHEY9sTiJffMdKDOWOpwxpMnR6StLf1X56GM/RvqJsSDFlGdWeGXbWKGUM806tOsyQ12V55kunvQF5+ZO2mep908K79Ub6PXJ81UF/WvpRYTLl0sLbP1MOVB/Lc17To1td63z+5PLOesxxpS37/rkvOaeph370heiTb1V9j2TNsmusbTjZnyeHmB2sUI3vdsOW3Uy7Zw+G3n+BXyqc4eSm4vJf56Po95pD3f1Ll6zAk8edWubZCGOeaOdEnL5n2y75K5O6ioC30rOHDXGv7cf4QrP+oCOF40Vg+f7T9CUuL19YWyzqYwsz2C1x2ZnyEI0X3bGp0p++3OjbN+a4h+3wLcmdsv82v0RrbHQUscC38B+zB9jDSZYEcyvU/NY8ukIeK/bN/ue3qB547uxuQaMSrtOabOL11rp2H2CGk9fFW2u0bY0gWcl89JBAh8dd+Qjem6RJWXys5lo+2ufSkyHc9s5H9+5tMutU/Zo5u55zmvk2melnadWob3u7N+W/A+J+vv5QAAxYEMIhS5mBw++5rUnztrBYoc0dgx+WUWF/Da522NUn9ZLW/uW/SFe8wb5bGel7Qe63mmJtH77vnJej6Spcf2yC/1ejzPi6ltbZb6Y/7bqtf56JlmtS3qeWae5WbMKpJdr9abzT5m5xv51Sndlsfk4xy2MVm27Wm1idm3hMR+7b4R/I21f9slfzlvpw7suLqWJdOvZxVDL6+TlnT1iEzbfqzW4xa1ztcjvsEh7UjzKWm1+uaoi+iDhwZpcKg3nOwHJauiyHfl5H9clY2Hb1uBIkd79IY0prmoip7otOq5tERNjRJH912raO7G/X0XHBoacjkO9nDaGw/rkbfMLItq26hqy5Tht40v1WNJx80KELx71QooFHwY/wLR587GM6ZrnUMHGC56t9d6ns/+ObV3jnSZeUmiX9oFqu329L5mu1k+bXBIs0ZC0/WK/Ja/0cvgUO/k2y690dv3+5HWxLndrp6f7WdDfy8HACgOZBAFYP+GutwyOQBAs389z/Sreb4ZSshWdscBAAAAhUQGEQAAWnmp1OmuFd2Zi1OjD3EcAAAABgQBIgBA6OnaK07dlNbTDDk9UDgOAAAAA4cAEQAgnHQx3Rfs4Zy3LbKDErpujbvALPoBxwEAAGBQIEAEAAinccMTIy3pgrGHu2SdayQo9BOOAwAAwKBAkeoA7B8AAAAAAAgLMogAAAAAAABCjgARAAAAAABAyBEgAgAAAAAACDkCRAAAAAAAACFHgAgAAAAAACDkCBABAAAAAACEHAEiAAAAAACAkCNABAAAAAAAEHIEiIBBbYK8PPdV+bSmQV4uNbMCOc99VVomP2Lm9aX+Xl9/K6b2zOU86g+DbXvcKqR2+dOyc2uDNO11bk9LrXkUAAAAKFYEiIBCGb/CurjPdGuZPMEsUGClD8uiUfZkZNIsec6eTMNcpM9dLLPMnJzkvL7+kgi0pL1l2u/+3r9B257hUrt2hTQ8O1WqKs0MAAAAICQIEAHFouevcvimPRm9/Lm8b0/2nf5eX3+jPUOoQiaa+G3rnv1Sv6rR3D6UI/ZsAAAAoGgNe2LxkntmOlBn7JqZSpg8OSJtbVFzr/iwf8iZziCaMVPk5jGpP/WRfG5m947OhlktPx0Vk7fPNMqveszsgjCvLYXc3sGgL9tsqBpsbTJYj1GFrNy6QpbKKdm46bjwCQkAAIAwIYMICK3xMs10aQIGpSkLZIOpBbRzeYWZCQAAAKAvkEEUgP0rHrPGL5aXJtXI4/FgSEyisaOy8YvPfLJmkrNqJshzD/2T/Ky8XCLmGdHYMbWsT8ZNrzKIJqjtrJVtk2ZKxGynXs9vL38kMulVeb08OdPCycAwd5NEL++RpW3fmHsuarG/jhkAAC9ISURBVBtbXOtIK9Ysj6o2suW5vt60pzFLbbO7Xfx4159Pdkp/71++63Oo9UyulZ9VuNvFnNeX1Xmdss/JbZL7cZDSR+TlSQtlkXuZm2flt2f3y/uBbZzree1Vu7ZBGuaYO9IlLZv3yb5L5m4fsdY5gQwiAAAAhA8ZRChi+qL4VWma4Q4OaeoCt7xOmtKNoDSqQh5UF8S71EX1664LYi1SXiNN+RZ29mVfvDfN8AZB9Hpen90gPxttZhRIVsGhQsuzPZ97qCGlXQalfj1fzHpSgmbmvFbnzK50hdBH576dsyY3yKez6+SnycuMmqnO0aDC6/17XhdUZZlMNpMAAABAWJBBFID9G/r0RW3TpHI1FZOPz/2brLlqMjJ0JsRMdbFrXbSelV8e2+8qCJyc2RGTt9WyvzLL6mwWfcGrfXzuNfWa1qTNySBKI2UZ5bmHdCaFnvJu5yy1nS+p7bSDW9llwzj7nDkDRXtEdtWo1+9FzaTM6ytEeyYvs1i2zaiRSMqxczjrzK7N0unT/fORzfGLn9c31f57sncS2TpyLXn5whyHjy8fld1ticw7K7tLPRbRr5fU1gU5r3UXsxfnSnWlSPvB/bLuQOrfokKzs5YuSiOFqQEAABAyZBChOJUuVhfKdnBIX4DGg0Naz2fyq1N75G1rxKiZ8rOgbAt9AX5MXby6lv386n75ZcyenjKqAMPVq+38mbmITt7Oz9V2rolvZxHIsT1njbJrznx8LnmZj2TpubNqaqY8Od6e569cfjrbZ3h7fXvoEfOcAuqP88Uleu1IUteub6z1LT31WvrgYE7bOUFe1gEnRR+HNa7gkGatzzoW5bKo3LVcoc7rS8dl+yZ7JLG+Dw5VSGT501Knu7R1dEmbPRMAAAAIDQJEKE6j1cWe/j92NCA74Rv51WV9YSsSqXjYp1uNurDV2Rnmntv5G+ZKOojOyDn2mjzqc0vJIMm4ncWiF+2ZRqGDLvnrm/3z83nsC6s2TmTSP8muyY/IrKBukr5y3M7Sh2WRzvRR5/TuoOynq5/Lx+o/z/toKJ3XUxbIzr0N0rR3hWx7dqpUdVyUlreoPwQAAIDwIUCEouRkn0RvpOnTc+OafRGo68dYM/pfVtsZUp/ftDNGHp+xQp5zB0F0rR/THerSzTSZMlb2in+gLlF8ewjq+UiWnjkmH98sl8cn6ZpDJitqrq49lGvAKAMn0DOqRpqSs7Ditzp53HpywlA+r9vV7Yo9CQAAAIQKASIAg1O825NdCDkekJhtAhKx5uCslmLX85GsOfWaPHpmj/zy8ln5+GZMoqMSAaOWhx4pYFHsInfpuKxbpbux7ZfGg11SVTlVGl5cYAfGAAAAgBAhQISiFhmdpkiNkx1x85qct2YMnLTb2dcGMIMqM7vbk7e7jy6W3Cz1X3jr4YRSzzfyftt+WXOqUZbqzKgzzfLxTXU+ldfJtnQjmWXLybKLNftnYrlvPoXOB/S8ztk1OXJgnzSeVpOMYgYAAIAQIkCEouTUaZHyhQFD2SeK70av/XXAAg2J7Zwlz1lzkpSOl2nxkaf6SoU8UMhuSYUyfoU1CpbuJmYFP+K31GLJYTJrfJrsIF0A2qmtVYjgTM9f5bAuJh34PvJXsPNaj2K2VdcHapCdy+1uawAAAAD6BgEiFKeej+S3VvKJHsmqQXaNd4+w9IhryO+z8tt0Iz71NecCXHejmuuttaOHEG9xulP1ic/kkNNGMxcn1fmZIM+522wA2HVsymWae3SssNOj882ok6aaBrsbmTpObnoIeac+U2Hq/zjF3M37KKXGkTpPJqvztEadu2aOpUDndW2dPcS9VvXsk7Jyij0NAAAAoPAIEKFovf+FM5R2uTw+Y7Wnho0dHNJFjP1HdOqVtAV91c0zxLq6AD97zM62GOWttdOkLvQjN8/Kxz6DSxXK+5edddck1flZLa/PqPXP/ugnThbK45Ncxy7p1jJ3hbw8wIGsftXzkWw8Zxeo1t3ImtRxcrdHkxN4uXlMNhYq8Hl1v9Rf1idhUlFs66bOk0n6PJWkLLSBPa/zVyET9enEMPcAAAAIIQJEKGLqIvXUa1JvXVCbWZaYRGPNUn+scXAMwW2NStUsb8fcV8ymzs6p/bK7wMOke5h16yLHblF1Af/2uSOFD57louev8ltPm6SKjJopP52xWnYNpVI3vfT5VbtAtX1e+x23Peq8Sa0H1BuftzVa9Y30OWoFfRxq/c55mvJeKsB5faT5lLR22NPtBw/Jvkv2NAAAAIDCG/bE4iX3zHSgzpg93LTb5MkRaWvzXCoUFfYPGEgT7G6AcixNsGOCPPfQaqtOUfTyHlk6kF0FUSQqZOXWFbJUTsnGTce9wTAAAACgyJFBBGDwKX1YFo3KVED8Gznfl9lVCK/KubK8hqLYAAAACBcCRAAGrcikf7IKjCeP2qWLMb/8UIM0TSpX9wa40DiKyDX55FSXNVW9eoU1epp9e1pqrbkAAABA8aKLWQD2DxhYzz30qtV9LC1dc+esT/0boBciy5+WNXOnSpUZQU3kojSu+lCOmHsAAABAMSJAFID9AwberPGL5aVJD8mUUeUSMfM0XYz58OUj8oer3xS0GDMAAAAAhBUBogDsHwAAAAAACAtqEAEAAAAAAIQcASIUJZ0hBQAAAAAAskOACAAAAAAAIOQIEAEAAAAAAIQcASIAAAAAAICQI0AEAAAAAAAQcgSIAAAAAAAAQo4AEQAgP1MWyM6tT0utuQsAAAC4RZavlJ1rZ5h7GOyGPbF4yT0zHagzds1MJehhxNvaouZe8WH/hrZi3z9kUL5e/n5atbmTcOvCT+TbmLkzkHRgZctcqTJ34zpOycZNx2VInLk1T8vO1VOlquOiNL71oRy5ZOYPiBJZuaJMlo69Ky3vdsq+wXCM/ZSXys5lo1OPe/cN2bi/Z2gcdwwBQ+T9MOjQbvBRs15+vjr1+8SFPT+RD46ZOwiliuU7pP7ZSs6FLOgA0bZny0RO/1Hq3zxn5mKwIoMIQNEpGZlyCa60ym2+8BeGDnDp4JBclMZNQcEhfbE1XppeULcVpRIxc2X6GHueum2YbuZZRsgGMz/bm3d59A1zHN3HEECOivV9lOvn/NBTUeX/feKrQRwQ0IGLn+9dLzPN/bR0AGzvO/LzrfVSYWZ5ReSxrerxbF9v0Fkoz+j9y3Rbu9A8P1sRmT63Uv3fIV1f23N6r0JWbm2Qpq0LBvnnRO7bGT2wTzYe7BKZs0R2Lvc/0zB4ECACUHTuXFkvfzv5E3N7RXpuqZm3rsgd++GBd+m4rFvVKPXx2x/V182hQn0xeFFnP3VJy+YP5YiZm1b3HZ/smLvydaeZDItYj6z7zVWpj9+uD6HjDgBpFOnn/LUD6+XXq35ibq9Ia4ea2XFFBu/vTSZwkeU2xgNglfNk+hR70muSlOk4yOkTctaeMbTUzJdpZjKdrvbLZipbpl06TsqXA5pBPXToIFHjaZGqZ5+Ulb7nGgYLAkQAitwkGT5S/XdzEAWIhrDI8idlqfpS1H7wkOwr6Jei27LdEzzRty5p6daP6S4fyY9dle1fWgsCAEIosvxp2bC2P7MtTFDgmyuSWnxjsMhtG8ur1JM7OqRLKmXafJ+WnDJRytR/uQdQBoljO1wBvp9I00Ed4bO7CLrn/+5Ajp28TbsM7nNh8Dnypv5BtEyWvjjYs6TCjQARgOJWPl90fOhW11H7PnphhizXfcg7TsmuA5m+Et2RK1ZwJ0nnXWk3kxgKhsv9Y80kgDwNwPuovFQ2mO5fO+eXmJmFNrCf85Orpkr1nDKZbO73OZONcuHPg/j7RE7buFAemKP+++akXOgQKauaZM92qZg/zwSIiqNKnhUQK0S3sPv7InA2Tu7Xmzfo9WY7z8kB3dWscq4srzGzsjFlgWzQ3dr2NtBFrR9QpDoA+ze0ha1IdcnohTKyqk5GlFWK8zXwTtd78u35puCsmdERtcwvpNS1jNxqlZ72d+U/Y35tF5HvP/KGlN7cLX87r794qOUnLpPSqmrXOnerdR71XWdJeb167jwZOdL5q9Khnn9Sra9Jbt0ws/zkvJ1eJRN3qC8EIj1/WS//mW49LiXl6+U+vV86smTpkFvtzdJzxX/fem+GbNi7RKpzKFIdqVkgy388V6rjf6S7pP10q+x681za5SM1T8uaH08V6ztSgPaD+2WdXwBILdu0emrw40lqnxovDRH1eme6ZN0J03LxQs23pfE31zN0Ucu2aGzy80rUusdIXWR4vCB0e/SG7Pr3NIWgy0fIyupSmedepvu2NP+H2sY+60ug6y6NkepcilQHbOfJ0zdk35dBZ6dqj/mjVXuMkKr4Raq6gIv2yK7W2xJN3r/pY2TnHPdz04hel/p/v23u5MscP3HaoXDHz69d7PNSn383ZKJaz1K1jG6P1sOdsv1LtS0p86zFvPr9fCmRyPTRsmZOiTouets0cwxV+3vbpe/eD/7nWe+PX0Sdc2synHOezxFHXsfBacvE+vT2Nbf2iFTrc6NARaoL8D6KTC+V5XNGS3Xy+zblmKdyPn9tBdonH73/nM9f7doGaZhzURpXZdnduZfsosQirZvXyydZZdBGZObaX8gP51Ta2SZK1+n35M/NTXL2fl38usr3tSpq6mX+j+fJtMrE96Wu0yft5VLWu1Ce2Vrnem46rXJo1Y5EV7Ep9fLPW54XOfiK/EF+ofat3fu4MnPtO/LknI6Afc5l/3Qtozek+pvd8utmkcfq6qRaLScdrdL61g75RO1HyjyfNq6oWS//+ONqO0vK0iEXDjbLiQNHs8jk0fWIXpJpye0QKHj/YvMLVKBaD/iR4TtZXFCB5ykzZGVdtcybU5b4HOy4KM2+A4jo+kErrEzw1j2Nsj1l253HdRmBfYlM8UJsp8MZqCWHgtX2e93csUocuLYNBUcGETCkRWTkgzuk/AcveQMoSknZ81I+b4d8f7SZ4aIDIOU/eEPuS1pGRlZL6bQ3pHyiT+Ln6AUyYqTInZuX1XS9em21vCs4pJWUvST3+S2r1zfteVdwSFPrVtt43w92yH3lPssoeW1nkpJRep3tcier4NBCue+Rd9S2uoNDWqWMrHpJyh+p927HgLCLA25b7Q4OaeqLwZwlsm3vysC+3bVrV6rlsvwD76P2h1PVv11y8kTmr2FaW/dd6/+OLtdFXeyO+jqnqMfarBkFNm6EbFAXqw2uC0atKjJatgUUiI3MHydNy+yggGeZsSOkYVlf/vqeCx24CN7OpYvKAorBmvaYnXyhql4jMka2LRsnG3z2L6uL2kIbO1wmqwv+3I5fvu1SInU6qKGWsQ1XFyal6rWS5i0aI7XmnqPfzxfTJtsW6WPobJtmjuEL42RluZmVLOf3Q77tqeR1/HSAYZzZNzMjS/kdBzuYlbw+vX0N6r1QV+DzPv/3kd7O8Wo73cEhLYtj3s8G5HN+gNjZJ+3Smc2FqQ6+7H1DnnQFF7SyOc/Lk1t2yDM/1COj+bxWzXqpX/18UsBHvYazXE3Su0h3dcoqOKQk1yWKZ8FE5Vq7zvmqlgc8WR0RGTdB/++znTnvn+n6JvPlmS0v2YEgrbJaptWtl39Omlddl1w0WgfC3lFt4w4OaZUy7dmXpD6wyLaL0y0sm3pKafdvvcy3ClQXplh5vt/JND06WNOWJbLUFRzSqiqnSsMWv2yba7Jvk133snp16vfFdGUEerOdHpfOy0n9ATHngZS/rxgcyCAKwP4NbeHIIDIZPVYgo0NuXfjf0hOLmgwXV3bPrfck9pkrk8g1BLw34yciJWqZcrWMfr2UjBuz3J1b6lN9ZKV63Vb59qt35dYN3c46UKUDOWpSvaadYeRwttPexm/jWT9qfeXL5D4djEmzPi2n7fRYKPfNe0lGpmyTH/Nc3ZY6W6hLrc953dEL5fsPvGS1dd8MlZ99BlF8qFDpktY9h2T7MfP5rH9BelF9SbD+gPv8omqyf6xfXtRy+8xyOhNpzWpddDrTr7DOr0o5/FqrR7JRF2Kth931guwLtES2QTrmuVlnEJm7+tfyw9fjmQ46O0FfEGrebVHMNlrZImd65MCJxC/zVlaDvpDss1/f1cV0thlEZjvt7IgbckRdgNl0dtAYaZitAwepv9bri+ht+jG1XKMnqyKRRSFRn8yMuBy2MW+9P365tEsis8I5ru71p87zrLPfzxfT/npS7WOLJ4NH7+NoqZs9Qjr83mP91J6FWF/qMqWqLdNkoLiWy+U4uI99q1rfdmd95SNk+T+odvacA9ZDBZLb+yj+vk3aTitjSm2n3dYBbePQXcz+wQ4w+WZfFYo5Ft5ja86JrD7n89e/GUQm++T0bvn1m5m/T9iZKkrHe3LorUTmj5UBo4Mc+o56rGlTkyvzxWTZVHbIhT3/Wz44Fj+r1XLLzHJB2TyaWW/K6/rzZkT57V/QPuexfyZbyZqvXq9Jvd41PYKaeq4leZ7fdqh9t7KFTqjnOfs/ZaE89uJL1g9mGbN5zGt3HXwlQ82hPPavIHLMJnd9r2s92CoHDiQyyK1scWu02YBsG2dZ97qczJ6M68896z2Z/V1Wss8E0l3MXrR/GM02ix35I4MIGKJKJv7CDg7pANDJ9VbgJfH1Lyq3ruyQ2F92y7dfubuZLbQCMpoOdMQ83cHU8nqZdh3Wr5QRZd5fqZyh40t0FlD7K/K3z3aY4JCm1tf+nuu1fNw6aQWwEtT6Ymp9J1+Rb1OCPPlvp8foieprqsl6ymDkgzo41Gpty7e6K5l7e24clf/8yt6/kpFp1tfX1B/INSY4pP+oxoND2qVzsm/TfmmxfradKnVJvxpFzE/ZrXvUH2PXctFjx2Xdnotqaqr8KG1/cNPnvKMrx1+EA0ax6fYb8aYAdCDkN+rizrmgUqJfXpdGs7LKMndWgbqI0QESxepK5LrI1PRy6w7rbh/DZd4DBc4KyZXalo3vXpV1+3WQx/1OuyNHTnSa/SuRiQFZBboLjbfLjWp/vX/71Wv21YVjPnI6fkov2qX9zHUTBLgjn0TtLAj3vNTaKv1/vkTml4odHNIX2okAik3vo1rnu13eoItbP7anJcf1Rcx93Z7eZXpMW46QH6VkLOV5HMpLpc4VGIwHXZRo7LZs368+V/3q6fQ3tZ1rTHAoeTtFbee++HaOkLp02WqxHrVPdkH/vn+P98fnvL4otWuQODe7y8lUaUiavyGX2ibZyqFY88y1JriggxybvN3Crh3bIb/bY8av/CagwHHHSTkRDw5pUXu5Va/IocDgkJJj4WRvRtRR+eq0+m/O/MRw9gH7nNf+mWwlK6iiA0F6+usr6ttM0jzDvU57fa3Wvn+gu5K59//SUfnkrfes1ymrSv/9zBmxLVM9pWz2z9ruLNu5b1TIyh/r4JD9vW67KzikRY99aL7blcm8+T65VepxPaKYrgW0xvq+qF7PGaH2rfyCPrkrk/vvN5OZXDou2zfZI/8SHOp7BIiAIWmhlFp/2FvlW3d2ULIbRz31fUom1lkFm++0vxKYBaPrAunXKxnlLVZod9XSAZtXJHYl+E9HajAmquap/0Y+L/c9uFBKUrq8RVNqEPVmOz1GmQDRrUx/6hbKCOubS7Xc94N35O/n+dx+8Lz1WgPqfpNCfLo14BeXa7Lv9/oLgUjV3Acl11BWZVXGBO3cqAu1en2xmBSY2KcvWnpdt8aPuqDSWTLmnpvTDcKjfITM03EzdfF9IOgC+8vbVip2VWREzu1ZaPFaQeUlUju9VDY8NU52rhhnFaG1syKGy/3jrGfERb+6rb7+q+2fPUY2zFf7MEi6pfjL8fgZ+bSL5ukSY7jnpayz38+XEnksYgIF/5EmC8MTyHHr3/bMd32ZpASx8j0O40xXtGhPgbODCizjdqrP0NP25+dg+Fzq/8/5AeLqjpXWlHr5oQ5cmaBHOqmFpKPS+Y36r/J5+ce1C6Uipbt41BOsSGG2MacC1a5uZ2f/rN81rm5mfvuc5/45wZkLv3dl3Djb65qXGsQx26m268kt78jP9/rcnMyktMzw/+qTIW23sCz3z26XzMHCPjPlQZln/Wh3Sg4E7c+xr+zPwYDvg/aIYurxZ5+UDWvtrmXWj4jpzrECibYPhmg8ghAgAoYikxkjXSfkljUjO3aQp0Nud2UKmCSLqGX1/61yO6AwdEnZvMBgzK3zr8i3XR1WjaJyKwCzQ+6buDAw4JL/dnqNLNO/vetttu8HKrdHOhvsnCyg9na/n2qNr7usgIC6qvKM7OL8Ma5e/bTUur90TpkhG6wUZdXi7SH7Vca5EBs7Wrapi199AZx6M917BgHd7cYalWhZmTTo2iS69oqnJo2PWI+se/eGtHYPl+rZY2TbMrNf6oJ/8AeMspNXu+Sj388XZ+SrO3KlHwMa/daeStQE5KxaT+5zsXyEbFhkZwmlBPLyPA5OtlJ7L4JV/SGr7XRGCdN1n6wZYXBOtq+yMwicm5UBYXWP9s5PLbzbezOtmjqZa87ER/06dTwwu8QOgviPpHX2zVfk0OkOKZvzktRbAZEd8szyhZnr6yj2NmY5QpdfttGxE3JB/Tfth3b9H7/Xy3f//EYP83t9+3mudjajsvWeqYGUXIcpSfb7pwNEvfuO2ivOD4aVc2VbUgZd4rYkw98j9Z7afEp9lpSJHg1QF5fui/cOhh4CRMBQ5GTGZNF1KsEJ8mQo2Oz72pNkuNWd7YqVtePHCerc1dlCKaJy6/x6+dtfXpFv21vVa5iiz1agKPl3jd5sp5t5nTTb7HC6z+nubH87mf6WLntqUHPSiXU6/hbXF4gt5guE+mIQ+CsUBp5Vx8UUrO2+La1nrkvju12yUd10FxKnC48vp6uJem7jGbWsuvBsVxeWTsBo51ODIAshX71pF6Tq7/aMdz+zC0vHAzzLTIAnej04SwjoN6ZYc4bgguYEQi6cCHqzOJksQcWuo3L2zfXy682vyKGDuiuTKcJsBYrSfVKnKSjtJ54d5P4O5dPNLOn18ts/JwvIPc9ve1OzmuKZR3t+Ir9elf6Wtq5Qlt3vst+/whSoHmiR+bpOkTFhnNq7/uH84InBiQARAJeIfN8q/pyUCeRk2NwMCrZkGdS5YWoj6WDLX3bLrVs6UPQL35HW0gvYTg8T1Arc5lQDWl8oB1VVvv07bM6vSr61gqxe8+oouenihn+UjRmGxxfplK+tsk/ezKQhzfkVXg8xrS5+0976sNBqZk42xV1pOawu1Pdft+qu6Box0cDuRT7Uc3XNmu37O2Wd3qd3r0trt+6mMkbWZBp5a1BmKhSoXbI1YOdLmpo/BdXP7RlnZ8p4P5d08enrstFvOPdeHoe+yobKSg7vo7Tb6WRRdRfXKGGDl8k+KUjNmewyWeRSVM4e0HWHfiK/3rxbLnToQNEv5LGAUUrjr5vNCF2Kk+WTHAixu5lVybgp2QfFvHz2zwnOeLbNZ3vTBHEy1RfKyDcglo8sj19vZPM9y8kW10PFJ2XQpdyCCknXPG0PeqJeo/Gg+n4Yr0eUpV5/H+ySr7PJdkO/I0AEDEUm6FFStSy4a9To5C5cphaQVMuIgIsNd+HrHtdfvniGTVdQf+ygDKOFdt0hc8/jxlErm0j9hZHhVnDJkf92epigVjZZVndu2ZcmJeMW+G+rUlIeCXwsTo+ysNXOzEkdWjQLGf7YRk9ctL8QzKkOGMo+UbSw/dR57xcC9UVAF/Rs2dwo6zxfHlKLG/q7Jld0bQQZKxMDv6AOMbHbclL3vIuUDuyQ0dleNHbflk/cBWvjSmSimUoWmZ4mO0gX5nVqmWS8aO6vIEUe8miXvPT7+XJb/mS9MYfL0n/wHyLeUl4S/Fg++qs9teljrLpGLbowtie4k1p8Oi7P4+DU45LICP+hlcudLn19KfP7KLGdQfuXKNLdHg1oI02PYqa7Cr4QNOQ/sma6OWUfXKiUMt/iu5FEAeSUIMhCeUbXHTL3PC4dlQ9+b39f8n9dxQmuZMnOlPHJNrIKR1fKtPkLrECIf1erHPfPLzjj16Y+z7OH3xcpm7sgsJtdRU0kYxc8pztbcGaQWz7HL0mvvg9m8T0rPlR80PfBTJzyAhel8c1zcuTAIWuQk6pnV+RQ5D3f74MV8thcfaS75Ury+RdIba/TnmtnmHnoKwSIgKHoxnG5bRUfqpb7HlkvI0e7Lg/U9MgHd8jf/+CllO5bt7r0FwyRkdN2yH3l7mUWyvfVMk5qbY9n5DP1dTRt9zHFCcZ0Hvcup4tN67pDj9jr83xFVeu8z2QBJct3O/3ooM9IJ0NJt4379RwxU8tp5PNqW+sTz1dKnHVOe0NKM3yxr62zh+DUdNG/7P9om+wca/SxGYmLvSkzvPWCLh2XZqubWJks3bJS/RF3fenQw9xbw9DrOxelOWmUBzudt0zu9xvNIktH/pxmRIwhySn2qi7Al/nV5LGH9t75whj/C8peuytfW6Wh9GhErkBOubqA9TvXxo6WNe7nqe3TQ3rv1MNJ+5zW1mhIi8bIthfG2d3Iyr0XiXpob6fOS3C9E2+QwlsnRhcxHgQXnrm2S976/3w50nrDDhboejsrxshKT3ub/VxWJtvU8S2YfmtPdQ5a9XaGy/05jfqW53FwAku6O5tqS/e5bLdjX9Yby+F9FOuRZue5ev/cj6n3rDV8vBXIui3NaUYnq602XQUVXaR+QIPgfaSt/aK0ns51ZM386SDFTOdv8pSIzKxJfUPYI6yKTFu9PvFcpaKmXp7Z+oY8aXW1Sg02VSyvk2m67tDWHfJMcsBjykJ55sdZnp1z6uQx13ZV6GHg19a7uoxpabKD1PeMC2oXyuaaWjxJdXby2T+/mj3ZznPqIunC3fVb1X6412nt2w6pX/2GzE8b1Mi++12+xy9Zft8Hz8mfnO94Ly5IqhdZIbXu73ziDEqinqu/D+rvjp51qOcvf1p27n3a9+9R7Vq7vEDrng/NwALq9d7S9YhMrUprXpBcttOHU2D79Fe+gxr4iSyvTrRn3kExZGvYE4uX3DPTgTpjqTHSyZMj0tbm/dAoJuzf0Fbs+2cZXS/laUbWutP1nnx7PjWAMvLBd+S+wJ+ZOqQnZcj5iHz/kTekdGSrfHtyh29R7JKJdtBG1/BJHnXMeSxQ1+6kYextuW9nsoVy3zw9dH2SW+9JzG/kt/L18vdmaH0/d9R2fuuznW61a51hdzV7KPpsR4OILF9pp/om0+nDb54zd7QKVyDIT8B6pyyQnVv0EKbB2jsuysnfn/QMg++lhxlWXyo6TsnGoJTlgioxF0N3reGeg0ceyvy8yPxxsm32cGk/05Uy5LPzWKDu29boTH0x8lHgunX3GdcIQGm3UW2fruPSMHuEtB6+6hnyXBccXj4ncaHoyxpCPU2XqPJSdfE8OuDc0cOa+49clb38j18+7VL7lD0al3ue8zqZ5mlp16kV+nxJ2/5acrv1b3v26v2Xcd908PK2nDx9I2mI/zyPQ7r1qee3do+Q6kjwfvRKTu8jp03N3RSZt9E5z219tE+hsVCe2WsyR9z0SFebXKNyWQKeq3W0yqFTVfLks+rzZ3PqcPUVy3dI/bNpvi+d3p0yHHxCRB7b+kb8IjqZruHzgVMzZ0q9/LMe+UsP4+4zUldiOzp8tjP3/Zu59h15co73tex56vmrdpguZs72u+cZNevl56uDv591qf34g6dd0rdFXIGPn1ve3wfTflfTBdmdgI4t8LujQ32va3nrQ++6a56WJp09lPL90vV6Po955Lidbs46WvdkX1A+eT/bD+5nuPs+RAYRMFTdaJLYSXt0MM/X5lut0qOHovcJDmm3zv9EYhda5Y470nOrQ26171av5xd06V2B6jtXdHHq3dKTtJ139Dqt7fQPuuS+ncmOyrd/eU9uuZa/o9um3ZvlFBfbYeoi2b8eOaxA21/UtmQIDmlHmk9Jq1m8/eChnIYKjR7YJxsPmi5kDv2H/c/JI5Zdk32bGmXjnsS6bF3Srv6gb1wV8CXk0nlpPm3XIApSVTlVlq5Ol158Tg7k0099kIue6LTq8bRETW0TR7epg7K/b4JDml73xjOmS4lDX9he9Gb0WM87rJ5nZUAY+nmmVsyRgEMb/dIuUL3xsB7JzPua+sJbL582OKRZI6HpekV+y9/oZXCod/Jtl97o9/NFt/9v7ALj3pGB1fqjan0pQ4znr9/bM3ZbmlU7plM1doQsXVQmG6abGUZex8Gcy3qZhMTzDySd4wWV0/vIHibeft+aWZbsj7nOPnOWbVf711efYeFwVD7Y/J6VWePo6miV1t/7db/Sz90traddT+7okAt7XpGmTTtMxo5/Jsu1A7o4tb2s+63W5SwfGBzSovLJple861X0dh7a7AoOaRnq8Vw7cdKs3287c90/v+wdvwymNLV9ju0wdZiS9u30e9a+/S6lXcxrZeLbTSz/4+eW9/fBS8dl3eY/qmW9H7b6B7yWPSdT/t7q74716vkt6vud9/ujqS+5KSk4pAM7rq5lyfTrWQOazFmSvmtcjtuZMEOW60BPuuH5fUQPqPeb9/CjD5FBFID9G9pCkUEEZM1kHUm6zJ8KqV27wvrFK/0vM04GU24ZUgDgZbJkJF0GW4nUPlVmZcL4Zf8BAIYOO7OqF98fTfYTGUR9iwwiACh2pr93SuFqj2vS1p5NeoDTT11d2G3J1E8dAAKUj5B5Y9XnUrpCy3JH2voyqwcA0C90NzH7R8jcMuzd7HqaXXLyBMGhvkSACABCQhdK1IWtk8tqRnSB67VO/+7UAtcpdGrxHt0dbqo0bCVIBCB/uoCyLsSc8rmkCzI/5dQZSl+QGQAweLlrG+Wd+TNlgayxXqOV7PU+RhezAOzf0EYXM8DLWzAxgF8xw3R0X/YXy6RZLXOEP9YAcuQtpBxA1+jpoyLxAIC+pwNEa6paZV26wteBKtTy82TNs1OlSn1PbdwUXAAbhUGAKAD7N7QRIAJSRWoWyPIfT5XKyjLPyBPO6GWfHLuWpqsHABSePdLeCKkcO9z7udRtj172yZd3+FwCgNCyR9CtPP1H2fXmOf4e9AMCRAHYv6GNABEAAAAAANmjBhEAAAAAAEDIESACAAAAAAAIOQJEKEp0LwMAAAAAIHsEiAAAAAAAAEKOABEAAAAAAEDIESACAAAAAAAIOQJEAAAAAAAAIUeACAAAAAAAIOQIEKFo1a5tkKa9zm2l7Nz6tNROMQ8CAAAAAIA4AkQIiTKpqpwqDVuellozBwAAAAAA2AgQoWgdebNR6leZ2+Y/SkuHnjtWJpJFBAAAAACABwEihMOlc/LJqS5zBwAAAAAAuBEgQmhE27vNFAAAAAAAcCNAhNCIVI01UwAAAAAAwI0AEUKmW65cMpMAAAAAAMBCgAgAAAAAACDkCBAhZKZKw9YFUstIZgAAAAAAxBEgQmhEDxySxtNd0l45Vxq2NEjT3gbZubzCPAoAAAAAQHgRIELoVJn/AQAAAACAjQARwqNmnjTMKRPpuCiNm/dL/apGWXfgmnkQAAAAAIDwIkCE0LCHue+Slrc+lCOXCAwBAAAAAOAgQISQYZh7AAAAAACSESBCyIyViYxgBgAAAACABwEiAAAAAACAkCNAhNCItnebKQAAAAAA4EaACKFhF6kGAAAAAADJCBAhHKbMkOXPlpk7AAAAAADAjQARilbt2gZp2mtuW5ZItZ7ZcVE+YRQzAAAAAAA8CBAhJLqk/fQpaXzruETNHAAAAAAAYBv2xOIl98x0oM7YNTOVMHlyRNraivdSm/0DAAAAAABhQQYRAAAAAABAyBEgAgAAAAAACDkCRAAAAAAAACFHgCikqD8EAAAAAAAcBIgAAAAAAABCjgARAAAAAABAyBEgAgAAAAAACDkCRAAAAAAAACFHgAgAAAAAACDkhj2xeMk9Mx2oM3bNTCVMnhwp6pGwin3/tNq1DdIwx9yRLmnv6Jbmtz6UI5fMLAAAAAAAEApkEMEok6rKqdKw5WmpNXMAAAAAAEA4ECAKsSNvNkr9KnPb/Edp6dBzx8rEKdbDAAAAAAAgJAgQwXbpnHxyqsvcAQAAAAAAYUKACHHR9m4zBQAAAAAAwoQAEeIiVWPNFAAAAAAACBMCREjSLVcYxQwAAAAAgFAhQAQAAAAAABByBIiQZKo0bF0gtYxkBgAAAABAaBAgQlz0wCFpPN0l7ZVzpWFLgzTtbZCdyyvMowAAAAAAoFgRIEKKKvM/AAAAAAAIBwJESKiZJw1zykQ6Lkrj5v1Sv6pR1h24Zh4EAAAAAADFigAR4uxh7ruk5a0P5cglAkMAAAAAAIQFASIkYZh7AAAAAADChgARkoyViYxgBgAAAABAqBAgAgAAAAAACDkCRIiLtnebKQAAAAAAECYEiBBnF6kGAAAAAABhQ4AItikzZPmzZeYOAAAAAAAIEwJEIVa7tkGa9prbliVSrWd2XJRPGMUMAAAAAIBQIUAEo0vaT5+SxreOS9TMAQAAAAAA4TDsicVL7pnpQJ2xa2YqYfLkiLS1FW8oodj3DwAAAAAAwEEGEQAAAAAAQMgRIAIAAAAAAAg5upj50EWb81G/qtFMAQAAAAAADB1kEAEAAAAAAIQcASIAAAAAAICQI0AEAAAAAAAQcgSIAAAAAAAAQo4AEQAAAAAAQMgRIAIAAAAAAAg5AkRptO5ptIaut2/7ZePmP0prh3kQAAAAAACgSBAgyto1iV46J9s3/VFazRwAAAAAAIBiQIAojerVDdK019y2Pi0/maLndsoVsogAAAAAAEARIUCUrcqp8sMfVZg7AAAAAAAAxYMAUQ6qKseZKQAAAAAAgOJBgCgH7R2dZgoAAAAAAKB4ECDK2TiZWGkmAQAAAAAAigABIgAAAAAAgJAjQJSzc7J98ylpZSQzAAAAAABQJAgQ5aDqmSdlQ02FRC4dl+2bGqV+VaNs/KDLPAoAAAAAADA0ESDKQ9T8DwAAAAAAUAwIEOXidKtsP3ZNZMoM2bB1pTTtbZBtz5SZBwEAAAAAAIYmAkQ5sIe5r5CfvLhEqisJDAEAAAAAgOJAgChnDHMPAAAAAACKCwGinHXKFUYwAwAAAAAARYQAEQAAAAAAQMgRIMpBVeU4MwUAAAAAAFA8CBDlwC5SDQAAAAAAUFwIEGWr46I0779m7gAAAAAAABQPAkRptO5plPpV5rbpQzmiZ055UH7IKGYAAAAAAKCIECDKWoVEahbIhhfnSpWZAwAAAAAAUAyGPbF4yT0zHagzltq1avLkiLS1Rc294tK0t8FM5UZnGgEAAAAAAAw1ZBABAAAAAACEHAEiAAAAAACAkKOLGQAAAAAAQMjlnUFEcAgAAAAAAKA40MUMAAAAAAAg5AgQAQAAAAAAhBwBIgAAAAAAgJAjQAQAAAAAABByBIgAAAAAAABCLu9h7rXatQ3SMMfckS5p7+iW5rc+lCOXzCwAAAAAAAAMegXMICqTqsqp0rDlaak1cwAAAAAAADD49SqDyGPKDFn54hJZWtklLZv3yT6yiAAAAAAAAIaEwmUQXTonn5zqMncAAAAAAAAwVBS0SHW0vdtMAQAAAAAAYKgoaIAoUjXWTAEAAAAAAGCo6INh7rvlCvWHAAAAAAAAhow+CBABAAAAAABgKOmDANFUadi6QGqnmLsAAAAAAAAY1Ao3zL2lQmrXPil1c8qkysxpP7hf1h3IdnkAAAAAAAD0tz7pYuYEhwAAAAAAADD4FTaDqOZpaVo9VaTjojS+dVKOXCJzCAAAAAAAYLDrg2Huu6TlrQ8JDgEAAAAAAAwRDHMPAAAAAAAQcn0QIBorExnBDAAAAAAAYMjokyLVAAAAAAAAGDoKGiCKtnebKQAAAAAAAAwVfVCkGgAAAAAAAENJ4QJEU2bI8mfLzB0AAAAAAAAMFcOeWLzknpkO1BnzH7K+dm2DNMwxdxwdp2TjpuMSNXcBAAAAAAAwuBWwi1mXtJ8+JY1vERwCAAAAAAAYSnqVQQQAAAAAAIChj2HuAQAAAAAAQo4AEQAAAAAAQMgRIAIAAAAAAAg5AkQAAAAAAAAhR4AIAAAAAAAg5AgQAQAAAAAAhBwBIgAAAAAAgJAjQAQAAAAAABByBIgAAAAAAABCjgARAAAAAABAyBEgAgAAAAAACDkCRAAAAAAAACFHgAgAAAAAACDkCBABAAAAAACEHAEiAAAAAACAkCNABAAAAAAAEGoi/38I2L66+j+siAAAAABJRU5ErkJggg==;" vertex="1" parent="1">
          <mxGeometry x="1080" y="140" width="1160" height="1043" as="geometry" />
        </mxCell>
      </root>
    </mxGraphModel>
  </diagram>
</mxfile>
